<svg width="140" height="186" viewBox="0 0 140 186" fill="none" xmlns="http://www.w3.org/2000/svg">
<g filter="url(#filter0_d_905_6060)">
<rect x="4" y="4.81836" width="132" height="177" rx="8" fill="#646464"/>
</g>
<path d="M67.584 153.034V149.24H66.142V158.564H67.584V154.224H69.376V153.034H67.584ZM65.162 155.442C63.258 154.77 62.152 153.202 62.152 151.508V150.024H60.696V151.494C60.696 153.342 59.604 155.064 57.588 155.736L58.372 156.856C59.884 156.31 60.906 155.26 61.452 153.86C62.012 155.092 63.034 156.1 64.434 156.59L65.162 155.442ZM61.046 157.668H59.604V161.658H68.088V160.482H61.046V157.668ZM79.9169 149.268V152.544H78.6149V149.478H77.2569V156.94H78.6149V153.72H79.9169V157.01H81.2889V149.268H79.9169ZM76.8509 155.372C75.4089 154.826 74.4429 153.622 74.4429 152.054V151.956H76.5149V150.808H74.4429V149.38H73.0569V150.808H70.9289V151.956H73.0569V152.054C73.0569 153.566 72.2449 154.966 70.6349 155.596L71.3209 156.674C72.5529 156.184 73.3369 155.274 73.7709 154.154C74.2329 155.218 75.0169 156.002 76.1929 156.45L76.8509 155.372ZM72.7209 158.788H79.8469V161.91H81.2889V157.626H72.7209V158.788Z" fill="white"/>
<g filter="url(#filter1_f_905_6060)">
<circle cx="82.0131" cy="110.266" r="24.121" fill="#71A780"/>
</g>
<g filter="url(#filter2_f_905_6060)">
<circle cx="58.2001" cy="70.3002" r="26.9017" fill="#678E77"/>
</g>
<path d="M47.9853 125.454C45.9867 123.741 47.1527 118.911 47.9853 116.711C48.3528 115.739 48.4836 115.569 49.2344 113.142C50.3009 109.694 51.593 105.218 55.6585 103.684C59.9392 102.068 72.7894 109.037 74.9307 113.142C77.6075 119.387 71.394 122.242 69.3989 122.242C68.1256 122.242 61.1903 122.242 57.9783 125.454C54.7663 128.666 50.4836 127.596 47.9853 125.454Z" fill="#161616"/>
<path d="M47.9853 125.454C45.9867 123.741 47.1527 118.911 47.9853 116.711C48.3528 115.739 48.4836 115.569 49.2344 113.142C50.3009 109.694 51.593 105.218 55.6585 103.684C59.9392 102.068 72.7894 109.037 74.9307 113.142C77.6075 119.387 71.394 122.242 69.3989 122.242C68.1256 122.242 61.1903 122.242 57.9783 125.454C54.7663 128.666 50.4836 127.596 47.9853 125.454Z" fill="url(#paint0_radial_905_6060)"/>
<path d="M63.1177 93.448C63.1751 88.9739 59.6282 87.5924 57.8476 87.4609C56.5809 87.4609 54.0618 88.6584 54.1191 93.448C54.1908 99.4351 58.6005 101.048 59.7836 100.797C60.9666 100.546 63.046 99.0408 63.1177 93.448Z" fill="#161616"/>
<path d="M63.1177 93.448C63.1751 88.9739 59.6282 87.5924 57.8476 87.4609C56.5809 87.4609 54.0618 88.6584 54.1191 93.448C54.1908 99.4351 58.6005 101.048 59.7836 100.797C60.9666 100.546 63.046 99.0408 63.1177 93.448Z" fill="url(#paint1_radial_905_6060)"/>
<path d="M43.1089 97.4474C42.1913 93.068 45.4059 91.0295 47.1279 90.5578C48.3709 90.3139 51.0734 91.004 51.9392 95.7152C53.0214 101.604 49.0047 104.036 47.7955 104.018C46.5862 103.999 44.2559 102.922 43.1089 97.4474Z" fill="#161616"/>
<path d="M43.1089 97.4474C42.1913 93.068 45.4059 91.0295 47.1279 90.5578C48.3709 90.3139 51.0734 91.004 51.9392 95.7152C53.0214 101.604 49.0047 104.036 47.7955 104.018C46.5862 103.999 44.2559 102.922 43.1089 97.4474Z" fill="url(#paint2_radial_905_6060)"/>
<path d="M71.0769 97.1412C69.1553 95.2195 67.0496 95.7908 66.237 96.3166C64.8747 97.7147 64.9823 99.6149 65.2332 101.694C65.4842 103.774 68.424 105.351 71.0769 104.419C73.7299 103.487 73.4789 99.5432 71.0769 97.1412Z" fill="#161616"/>
<path d="M71.0769 97.1412C69.1553 95.2195 67.0496 95.7908 66.237 96.3166C64.8747 97.7147 64.9823 99.6149 65.2332 101.694C65.4842 103.774 68.424 105.351 71.0769 104.419C73.7299 103.487 73.4789 99.5432 71.0769 97.1412Z" fill="url(#paint3_radial_905_6060)"/>
<path d="M40.884 106.741C42.8056 104.819 44.9113 105.39 45.7239 105.916C47.0863 107.314 46.9787 109.215 46.7277 111.294C46.4768 113.373 43.537 114.951 40.884 114.019C38.2311 113.086 38.482 109.143 40.884 106.741Z" fill="#161616"/>
<path d="M40.884 106.741C42.8056 104.819 44.9113 105.39 45.7239 105.916C47.0863 107.314 46.9787 109.215 46.7277 111.294C46.4768 113.373 43.537 114.951 40.884 114.019C38.2311 113.086 38.482 109.143 40.884 106.741Z" fill="url(#paint4_radial_905_6060)"/>
<g filter="url(#filter3_f_905_6060)">
<path fill-rule="evenodd" clip-rule="evenodd" d="M52.6323 106.486C53.1151 106.127 53.6518 105.823 54.251 105.588C58.3697 103.972 70.7333 110.941 72.7936 115.045C73.9113 117.756 73.4178 119.828 72.3442 121.305C74.2755 119.897 75.8863 117.349 74.3157 113.54C72.2554 109.436 59.8918 102.467 55.7732 104.082C54.4541 104.6 53.4385 105.452 52.6323 106.486Z" fill="url(#paint5_linear_905_6060)" fill-opacity="0.6"/>
</g>
<g filter="url(#filter4_f_905_6060)">
<path fill-rule="evenodd" clip-rule="evenodd" d="M57.7924 88.25C59.4025 88.3689 62.6096 89.618 62.5577 93.6637C62.5166 96.8682 61.7466 98.5888 60.9157 99.4771C61.3615 98.4715 61.6841 97.0315 61.7103 94.9881C61.7622 90.9424 58.5551 89.6933 56.945 89.5744C56.406 89.5744 55.6163 89.8142 54.9365 90.5193C55.6668 88.7677 57.0004 88.25 57.7924 88.25Z" fill="url(#paint6_linear_905_6060)" fill-opacity="0.6"/>
</g>
<g filter="url(#filter5_f_905_6060)">
<path fill-rule="evenodd" clip-rule="evenodd" d="M46.8416 91.4844C48.4775 91.6021 51.736 92.8397 51.6833 96.8478C51.6415 100.022 50.8592 101.727 50.0151 102.607C50.468 101.611 50.7957 100.184 50.8223 98.1599C50.875 94.1518 47.6165 92.9143 45.9807 92.7965C45.433 92.7965 44.6306 93.0341 43.9399 93.7327C44.6819 91.9973 46.0369 91.4844 46.8416 91.4844Z" fill="url(#paint7_linear_905_6060)" fill-opacity="0.6"/>
</g>
<g filter="url(#filter6_f_905_6060)">
<path fill-rule="evenodd" clip-rule="evenodd" d="M68.2591 96.4258C69.5526 96.5079 72.129 97.3703 72.0873 100.164C72.0543 102.376 71.4357 103.564 70.7682 104.178C71.1263 103.483 71.3854 102.489 71.4065 101.078C71.4482 98.2849 68.8717 97.4224 67.5783 97.3403C67.1453 97.3403 66.5109 97.5058 65.9648 97.9927C66.5515 96.7833 67.6228 96.4258 68.2591 96.4258Z" fill="url(#paint8_linear_905_6060)" fill-opacity="0.6"/>
</g>
<g filter="url(#filter7_f_905_6060)">
<path fill-rule="evenodd" clip-rule="evenodd" d="M43.1688 106.043C44.2084 106.124 46.2794 106.971 46.2459 109.715C46.2194 111.888 45.722 113.055 45.1854 113.657C45.4733 112.975 45.6817 111.999 45.6986 110.613C45.7321 107.869 43.6611 107.022 42.6215 106.941C42.2735 106.941 41.7636 107.104 41.3247 107.582C41.7963 106.394 42.6573 106.043 43.1688 106.043Z" fill="url(#paint9_linear_905_6060)" fill-opacity="0.6"/>
</g>
<g filter="url(#filter8_f_905_6060)">
<path d="M48.6173 124.548C46.8793 123.058 47.8933 118.858 48.6173 116.944C48.9369 116.099 49.0507 115.951 49.7036 113.84C50.631 110.842 51.7547 106.95 55.2902 105.616C59.0128 104.211 70.1877 110.271 72.0499 113.84C74.3777 119.272 68.9743 121.755 67.2393 121.755C66.1319 121.755 60.1008 121.755 57.3075 124.548C54.5143 127.341 50.7899 126.41 48.6173 124.548Z" fill="url(#paint10_linear_905_6060)"/>
</g>
<path d="M69.7742 83.3455C68.5859 80.9967 71.5159 76.9839 73.1293 75.2709C73.8413 74.515 74.0276 74.4077 75.6522 72.4545C77.9599 69.6799 80.8704 66.0427 85.2135 66.1857C89.7865 66.3361 98.979 77.7025 99.3816 82.3143C99.457 89.1089 92.6236 89.3614 90.7812 88.5958C89.6053 88.1073 83.201 85.4462 79.0023 87.1799C74.8037 88.9136 71.2596 86.2816 69.7742 83.3455Z" fill="#161616"/>
<path d="M69.7742 83.3455C68.5859 80.9967 71.5159 76.9839 73.1293 75.2709C73.8413 74.515 74.0276 74.4077 75.6522 72.4545C77.9599 69.6799 80.8704 66.0427 85.2135 66.1857C89.7865 66.3361 98.979 77.7025 99.3816 82.3143C99.457 89.1089 92.6236 89.3614 90.7812 88.5958C89.6053 88.1073 83.201 85.4462 79.0023 87.1799C74.8037 88.9136 71.2596 86.2816 69.7742 83.3455Z" fill="url(#paint11_radial_905_6060)"/>
<path d="M96.0295 59.5953C97.7993 55.4856 95.054 52.8489 93.4601 52.0443C92.2903 51.5582 89.5046 51.6974 87.7197 56.1425C85.4887 61.6988 88.9418 64.8806 90.1306 65.1028C91.3194 65.325 93.8174 64.7324 96.0295 59.5953Z" fill="#161616"/>
<path d="M96.0295 59.5953C97.7993 55.4856 95.054 52.8489 93.4601 52.0443C92.2903 51.5582 89.5046 51.6974 87.7197 56.1425C85.4887 61.6988 88.9418 64.8806 90.1306 65.1028C91.3194 65.325 93.8174 64.7324 96.0295 59.5953Z" fill="url(#paint12_radial_905_6060)"/>
<path d="M76.0174 55.6101C76.8504 51.2138 80.6011 50.5649 82.3723 50.79C83.6137 51.0418 85.8446 52.716 84.8364 57.3987C83.5761 63.2521 78.9338 63.9567 77.8242 63.4756C76.7146 62.9945 74.976 61.1055 76.0174 55.6101Z" fill="#161616"/>
<path d="M76.0174 55.6101C76.8504 51.2138 80.6011 50.5649 82.3723 50.79C83.6137 51.0418 85.8446 52.716 84.8364 57.3987C83.5761 63.2521 78.9338 63.9567 77.8242 63.4756C76.7146 62.9945 74.976 61.1055 76.0174 55.6101Z" fill="url(#paint13_radial_905_6060)"/>
<path d="M101.962 66.0574C100.925 63.5455 98.7616 63.265 97.8094 63.4388C96.0149 64.2072 95.3851 66.0032 94.819 68.0197C94.2529 70.0362 96.3624 72.6209 99.1699 72.7781C101.977 72.9352 103.259 69.1972 101.962 66.0574Z" fill="#161616"/>
<path d="M101.962 66.0574C100.925 63.5455 98.7616 63.265 97.8094 63.4388C96.0149 64.2072 95.3851 66.0032 94.819 68.0197C94.2529 70.0362 96.3624 72.6209 99.1699 72.7781C101.977 72.9352 103.259 69.1972 101.962 66.0574Z" fill="url(#paint14_radial_905_6060)"/>
<path d="M70.3972 63.3374C72.9091 62.3002 74.6344 63.6357 75.1831 64.433C75.9047 66.2469 75.0762 67.9603 74.0466 69.7842C73.017 71.6081 69.697 71.9368 67.6047 70.0581C65.5125 68.1794 67.2574 64.6339 70.3972 63.3374Z" fill="#161616"/>
<path d="M70.3972 63.3374C72.9091 62.3002 74.6344 63.6357 75.1831 64.433C75.9047 66.2469 75.0762 67.9603 74.0466 69.7842C73.017 71.6081 69.697 71.9368 67.6047 70.0581C65.5125 68.1794 67.2574 64.6339 70.3972 63.3374Z" fill="url(#paint15_radial_905_6060)"/>
<g filter="url(#filter9_f_905_6060)">
<path fill-rule="evenodd" clip-rule="evenodd" d="M81.3446 67.6098C81.9282 67.4637 82.5404 67.3887 83.184 67.4016C87.6074 67.4899 96.3505 78.6695 96.6783 83.2502C96.6704 86.1823 95.4196 87.9064 93.8613 88.8585C96.1852 88.299 98.6504 86.5642 98.6615 82.444C98.3338 77.8634 89.5906 66.6837 85.1673 66.5954C83.7506 66.5672 82.4859 66.9642 81.3446 67.6098Z" fill="url(#paint16_linear_905_6060)" fill-opacity="0.6"/>
</g>
<g filter="url(#filter10_f_905_6060)">
<path fill-rule="evenodd" clip-rule="evenodd" d="M93.1065 52.7501C94.5477 53.4777 97.0301 55.8618 95.4299 59.5779C94.1623 62.5214 92.791 63.8148 91.6829 64.3163C92.4804 63.5587 93.3308 62.3527 94.1391 60.4757C95.7393 56.7597 93.257 54.3756 91.8158 53.648C91.3181 53.4412 90.4968 53.3596 89.5985 53.7499C90.9449 52.4126 92.3751 52.4462 93.1065 52.7501Z" fill="url(#paint17_linear_905_6060)" fill-opacity="0.6"/>
</g>
<g filter="url(#filter11_f_905_6060)">
<path fill-rule="evenodd" clip-rule="evenodd" d="M81.7523 51.5372C83.2178 52.2737 85.752 54.6668 84.1654 58.3478C82.9087 61.2635 81.5322 62.5374 80.415 63.0263C81.2155 62.28 82.0656 61.0884 82.8669 59.2292C84.4535 55.5481 81.9193 53.155 80.4538 52.4186C79.9481 52.2084 79.1159 52.1199 78.2101 52.5001C79.5611 51.1822 81.0092 51.2284 81.7523 51.5372Z" fill="url(#paint18_linear_905_6060)" fill-opacity="0.6"/>
</g>
<g filter="url(#filter12_f_905_6060)">
<path fill-rule="evenodd" clip-rule="evenodd" d="M99.6353 64.3159C100.798 64.888 102.846 66.673 101.736 69.2365C100.857 71.2671 99.8296 72.1268 98.9779 72.4371C99.575 71.9334 100.196 71.1146 100.757 69.8198C101.867 67.2563 99.8186 65.4712 98.6557 64.8992C98.2558 64.733 97.6065 64.6425 96.9154 64.8825C97.9212 63.9908 99.0477 64.0717 99.6353 64.3159Z" fill="url(#paint19_linear_905_6060)" fill-opacity="0.6"/>
</g>
<g filter="url(#filter13_f_905_6060)">
<path fill-rule="evenodd" clip-rule="evenodd" d="M72.7747 63.5709C73.7038 64.0442 75.2912 65.6212 74.2075 68.1421C73.3489 70.1391 72.4419 71.0259 71.7152 71.3763C72.2428 70.857 72.81 70.035 73.3574 68.7616C74.4411 66.2407 72.8538 64.6637 71.9246 64.1903C71.6033 64.0568 71.0701 64.0113 70.4813 64.2844C71.3725 63.3685 72.3024 63.3746 72.7747 63.5709Z" fill="url(#paint20_linear_905_6060)" fill-opacity="0.6"/>
</g>
<g filter="url(#filter14_f_905_6060)">
<path d="M70.7057 82.75C69.6723 80.7074 72.2204 77.2178 73.6234 75.7281C74.2426 75.0707 74.4046 74.9774 75.8174 73.2788C77.8242 70.866 80.3553 67.703 84.1322 67.8273C88.109 67.9581 96.1031 77.8427 96.4532 81.8532C96.5188 87.762 90.5762 87.9816 88.974 87.3159C87.9515 86.891 82.382 84.5768 78.7307 86.0845C75.0795 87.5922 71.9974 85.3033 70.7057 82.75Z" fill="url(#paint21_linear_905_6060)"/>
</g>
<defs>
<filter id="filter0_d_905_6060" x="0" y="0.818359" width="140" height="185" filterUnits="userSpaceOnUse" color-interpolation-filters="sRGB">
<feFlood flood-opacity="0" result="BackgroundImageFix"/>
<feColorMatrix in="SourceAlpha" type="matrix" values="0 0 0 0 0 0 0 0 0 0 0 0 0 0 0 0 0 0 127 0" result="hardAlpha"/>
<feOffset/>
<feGaussianBlur stdDeviation="2"/>
<feComposite in2="hardAlpha" operator="out"/>
<feColorMatrix type="matrix" values="0 0 0 0 0 0 0 0 0 0 0 0 0 0 0 0 0 0 0.25 0"/>
<feBlend mode="normal" in2="BackgroundImageFix" result="effect1_dropShadow_905_6060"/>
<feBlend mode="normal" in="SourceGraphic" in2="effect1_dropShadow_905_6060" result="shape"/>
</filter>
<filter id="filter1_f_905_6060" x="27.8921" y="56.1445" width="108.242" height="108.242" filterUnits="userSpaceOnUse" color-interpolation-filters="sRGB">
<feFlood flood-opacity="0" result="BackgroundImageFix"/>
<feBlend mode="normal" in="SourceGraphic" in2="BackgroundImageFix" result="shape"/>
<feGaussianBlur stdDeviation="15" result="effect1_foregroundBlur_905_6060"/>
</filter>
<filter id="filter2_f_905_6060" x="1.29834" y="13.3984" width="113.804" height="113.803" filterUnits="userSpaceOnUse" color-interpolation-filters="sRGB">
<feFlood flood-opacity="0" result="BackgroundImageFix"/>
<feBlend mode="normal" in="SourceGraphic" in2="BackgroundImageFix" result="shape"/>
<feGaussianBlur stdDeviation="15" result="effect1_foregroundBlur_905_6060"/>
</filter>
<filter id="filter3_f_905_6060" x="50.6323" y="101.844" width="26.3174" height="21.4609" filterUnits="userSpaceOnUse" color-interpolation-filters="sRGB">
<feFlood flood-opacity="0" result="BackgroundImageFix"/>
<feBlend mode="normal" in="SourceGraphic" in2="BackgroundImageFix" result="shape"/>
<feGaussianBlur stdDeviation="1" result="effect1_foregroundBlur_905_6060"/>
</filter>
<filter id="filter4_f_905_6060" x="51.9365" y="85.25" width="13.6221" height="17.2266" filterUnits="userSpaceOnUse" color-interpolation-filters="sRGB">
<feFlood flood-opacity="0" result="BackgroundImageFix"/>
<feBlend mode="normal" in="SourceGraphic" in2="BackgroundImageFix" result="shape"/>
<feGaussianBlur stdDeviation="1.5" result="effect1_foregroundBlur_905_6060"/>
</filter>
<filter id="filter5_f_905_6060" x="40.9399" y="88.4844" width="13.7441" height="17.123" filterUnits="userSpaceOnUse" color-interpolation-filters="sRGB">
<feFlood flood-opacity="0" result="BackgroundImageFix"/>
<feBlend mode="normal" in="SourceGraphic" in2="BackgroundImageFix" result="shape"/>
<feGaussianBlur stdDeviation="1.5" result="effect1_foregroundBlur_905_6060"/>
</filter>
<filter id="filter6_f_905_6060" x="62.9648" y="93.4258" width="12.123" height="13.752" filterUnits="userSpaceOnUse" color-interpolation-filters="sRGB">
<feFlood flood-opacity="0" result="BackgroundImageFix"/>
<feBlend mode="normal" in="SourceGraphic" in2="BackgroundImageFix" result="shape"/>
<feGaussianBlur stdDeviation="1.5" result="effect1_foregroundBlur_905_6060"/>
</filter>
<filter id="filter7_f_905_6060" x="38.3247" y="103.043" width="10.9214" height="13.6152" filterUnits="userSpaceOnUse" color-interpolation-filters="sRGB">
<feFlood flood-opacity="0" result="BackgroundImageFix"/>
<feBlend mode="normal" in="SourceGraphic" in2="BackgroundImageFix" result="shape"/>
<feGaussianBlur stdDeviation="1.5" result="effect1_foregroundBlur_905_6060"/>
</filter>
<filter id="filter8_f_905_6060" x="44.6577" y="102.408" width="30.9653" height="26.9023" filterUnits="userSpaceOnUse" color-interpolation-filters="sRGB">
<feFlood flood-opacity="0" result="BackgroundImageFix"/>
<feBlend mode="normal" in="SourceGraphic" in2="BackgroundImageFix" result="shape"/>
<feGaussianBlur stdDeviation="1.5" result="effect1_foregroundBlur_905_6060"/>
</filter>
<filter id="filter9_f_905_6060" x="79.3447" y="64.5938" width="21.3169" height="26.2656" filterUnits="userSpaceOnUse" color-interpolation-filters="sRGB">
<feFlood flood-opacity="0" result="BackgroundImageFix"/>
<feBlend mode="normal" in="SourceGraphic" in2="BackgroundImageFix" result="shape"/>
<feGaussianBlur stdDeviation="1" result="effect1_foregroundBlur_905_6060"/>
</filter>
<filter id="filter10_f_905_6060" x="86.5986" y="49.5762" width="12.3496" height="17.7402" filterUnits="userSpaceOnUse" color-interpolation-filters="sRGB">
<feFlood flood-opacity="0" result="BackgroundImageFix"/>
<feBlend mode="normal" in="SourceGraphic" in2="BackgroundImageFix" result="shape"/>
<feGaussianBlur stdDeviation="1.5" result="effect1_foregroundBlur_905_6060"/>
</filter>
<filter id="filter11_f_905_6060" x="75.21" y="48.3574" width="12.4595" height="17.668" filterUnits="userSpaceOnUse" color-interpolation-filters="sRGB">
<feFlood flood-opacity="0" result="BackgroundImageFix"/>
<feBlend mode="normal" in="SourceGraphic" in2="BackgroundImageFix" result="shape"/>
<feGaussianBlur stdDeviation="1.5" result="effect1_foregroundBlur_905_6060"/>
</filter>
<filter id="filter12_f_905_6060" x="93.9155" y="61.1523" width="11.1401" height="14.2852" filterUnits="userSpaceOnUse" color-interpolation-filters="sRGB">
<feFlood flood-opacity="0" result="BackgroundImageFix"/>
<feBlend mode="normal" in="SourceGraphic" in2="BackgroundImageFix" result="shape"/>
<feGaussianBlur stdDeviation="1.5" result="effect1_foregroundBlur_905_6060"/>
</filter>
<filter id="filter13_f_905_6060" x="67.4814" y="60.4648" width="10.0908" height="13.9121" filterUnits="userSpaceOnUse" color-interpolation-filters="sRGB">
<feFlood flood-opacity="0" result="BackgroundImageFix"/>
<feBlend mode="normal" in="SourceGraphic" in2="BackgroundImageFix" result="shape"/>
<feGaussianBlur stdDeviation="1.5" result="effect1_foregroundBlur_905_6060"/>
</filter>
<filter id="filter14_f_905_6060" x="67.4653" y="64.8242" width="31.9883" height="25.752" filterUnits="userSpaceOnUse" color-interpolation-filters="sRGB">
<feFlood flood-opacity="0" result="BackgroundImageFix"/>
<feBlend mode="normal" in="SourceGraphic" in2="BackgroundImageFix" result="shape"/>
<feGaussianBlur stdDeviation="1.5" result="effect1_foregroundBlur_905_6060"/>
</filter>
<radialGradient id="paint0_radial_905_6060" cx="0" cy="0" r="1" gradientUnits="userSpaceOnUse" gradientTransform="translate(61.2357 116.675) rotate(-68.2053) scale(20.6702 31.3876)">
<stop stop-color="#232323" stop-opacity="0"/>
<stop offset="1" stop-color="#232323"/>
</radialGradient>
<radialGradient id="paint1_radial_905_6060" cx="0" cy="0" r="1" gradientUnits="userSpaceOnUse" gradientTransform="translate(58.6183 94.8149) rotate(-77.291) scale(10.9366 10.3383)">
<stop stop-color="#232323" stop-opacity="0"/>
<stop offset="1" stop-color="#232323"/>
</radialGradient>
<radialGradient id="paint2_radial_905_6060" cx="0" cy="0" r="1" gradientUnits="userSpaceOnUse" gradientTransform="translate(47.7873 97.9225) rotate(-113.808) scale(10.9366 10.3383)">
<stop stop-color="#232323" stop-opacity="0"/>
<stop offset="1" stop-color="#232323"/>
</radialGradient>
<radialGradient id="paint3_radial_905_6060" cx="0" cy="0" r="1" gradientUnits="userSpaceOnUse" gradientTransform="translate(69.0264 100.699) rotate(-73.4327) scale(7.40148 8.91009)">
<stop stop-color="#232323" stop-opacity="0"/>
<stop offset="1" stop-color="#232323"/>
</radialGradient>
<radialGradient id="paint4_radial_905_6060" cx="0" cy="0" r="1" gradientUnits="userSpaceOnUse" gradientTransform="translate(42.9345 110.298) rotate(-106.567) scale(7.40148 8.91009)">
<stop stop-color="#232323" stop-opacity="0"/>
<stop offset="1" stop-color="#232323"/>
</radialGradient>
<linearGradient id="paint5_linear_905_6060" x1="63.791" y1="103.844" x2="61.8207" y2="108.182" gradientUnits="userSpaceOnUse">
<stop stop-color="#BAE490"/>
<stop offset="1" stop-color="#A7DC94" stop-opacity="0"/>
</linearGradient>
<linearGradient id="paint6_linear_905_6060" x1="58.7474" y1="88.25" x2="57.0856" y2="90.1935" gradientUnits="userSpaceOnUse">
<stop stop-color="#BAE490"/>
<stop offset="1" stop-color="#A7DC94" stop-opacity="0"/>
</linearGradient>
<linearGradient id="paint7_linear_905_6060" x1="47.8119" y1="91.4844" x2="46.1725" y2="93.4507" gradientUnits="userSpaceOnUse">
<stop stop-color="#BAE490"/>
<stop offset="1" stop-color="#A7DC94" stop-opacity="0"/>
</linearGradient>
<linearGradient id="paint8_linear_905_6060" x1="69.0263" y1="96.4258" x2="67.9178" y2="97.9341" gradientUnits="userSpaceOnUse">
<stop stop-color="#BAE490"/>
<stop offset="1" stop-color="#A7DC94" stop-opacity="0"/>
</linearGradient>
<linearGradient id="paint9_linear_905_6060" x1="43.7855" y1="106.043" x2="42.6511" y2="107.306" gradientUnits="userSpaceOnUse">
<stop stop-color="#BAE490"/>
<stop offset="1" stop-color="#A7DC94" stop-opacity="0"/>
</linearGradient>
<linearGradient id="paint10_linear_905_6060" x1="56.3741" y1="117.585" x2="48.7" y2="124.88" gradientUnits="userSpaceOnUse">
<stop stop-color="#2B2B2B" stop-opacity="0"/>
<stop offset="1" stop-color="#6A8E6D"/>
</linearGradient>
<radialGradient id="paint11_radial_905_6060" cx="0" cy="0" r="1" gradientUnits="userSpaceOnUse" gradientTransform="translate(85.3791 80.3223) rotate(-45.642) scale(20.6702 31.3876)">
<stop stop-color="#232323" stop-opacity="0"/>
<stop offset="1" stop-color="#232323"/>
</radialGradient>
<radialGradient id="paint12_radial_905_6060" cx="0" cy="0" r="1" gradientUnits="userSpaceOnUse" gradientTransform="translate(91.35 59.1311) rotate(-54.7278) scale(10.9366 10.3383)">
<stop stop-color="#232323" stop-opacity="0"/>
<stop offset="1" stop-color="#232323"/>
</radialGradient>
<radialGradient id="paint13_radial_905_6060" cx="0" cy="0" r="1" gradientUnits="userSpaceOnUse" gradientTransform="translate(80.1553 57.844) rotate(-91.2445) scale(10.9366 10.3383)">
<stop stop-color="#232323" stop-opacity="0"/>
<stop offset="1" stop-color="#232323"/>
</radialGradient>
<radialGradient id="paint14_radial_905_6060" cx="0" cy="0" r="1" gradientUnits="userSpaceOnUse" gradientTransform="translate(98.7039 68.5557) rotate(-50.8694) scale(7.40148 8.91009)">
<stop stop-color="#232323" stop-opacity="0"/>
<stop offset="1" stop-color="#232323"/>
</radialGradient>
<radialGradient id="paint15_radial_905_6060" cx="0" cy="0" r="1" gradientUnits="userSpaceOnUse" gradientTransform="translate(70.9258 67.4094) rotate(-84.004) scale(7.40148 8.91009)">
<stop stop-color="#232323" stop-opacity="0"/>
<stop offset="1" stop-color="#232323"/>
</radialGradient>
<linearGradient id="paint16_linear_905_6060" x1="92.6629" y1="69.4515" x2="89.179" y2="72.7014" gradientUnits="userSpaceOnUse">
<stop stop-color="#BAE490"/>
<stop offset="1" stop-color="#A7DC94" stop-opacity="0"/>
</linearGradient>
<linearGradient id="paint17_linear_905_6060" x1="93.9885" y1="53.1166" x2="91.7081" y2="54.2736" gradientUnits="userSpaceOnUse">
<stop stop-color="#BAE490"/>
<stop offset="1" stop-color="#A7DC94" stop-opacity="0"/>
</linearGradient>
<linearGradient id="paint18_linear_905_6060" x1="82.6484" y1="51.9095" x2="80.3799" y2="53.0963" gradientUnits="userSpaceOnUse">
<stop stop-color="#BAE490"/>
<stop offset="1" stop-color="#A7DC94" stop-opacity="0"/>
</linearGradient>
<linearGradient id="paint19_linear_905_6060" x1="100.344" y1="64.6102" x2="98.7413" y2="65.5778" gradientUnits="userSpaceOnUse">
<stop stop-color="#BAE490"/>
<stop offset="1" stop-color="#A7DC94" stop-opacity="0"/>
</linearGradient>
<linearGradient id="paint20_linear_905_6060" x1="73.3442" y1="63.8075" x2="71.812" y2="64.5386" gradientUnits="userSpaceOnUse">
<stop stop-color="#BAE490"/>
<stop offset="1" stop-color="#A7DC94" stop-opacity="0"/>
</linearGradient>
<linearGradient id="paint21_linear_905_6060" x1="80.5405" y1="79.2961" x2="70.6547" y2="83.0883" gradientUnits="userSpaceOnUse">
<stop stop-color="#2B2B2B" stop-opacity="0"/>
<stop offset="1" stop-color="#6A8E6D"/>
</linearGradient>
</defs>
</svg>
