<svg width="140" height="185" viewBox="0 0 140 185" fill="none" xmlns="http://www.w3.org/2000/svg">
<g filter="url(#filter0_d_905_6042)">
<rect x="4" y="4" width="132" height="177" rx="8" fill="#646464"/>
</g>
<path d="M69.418 153.42H67.5V148.422H66.058V161.064H67.5V154.624H69.418V153.42ZM58.484 149.696V150.872H62.81C62.754 151.572 62.642 152.23 62.474 152.846L57.84 153.14L58.036 154.386L62.04 153.994C61.298 155.576 59.996 156.85 57.756 157.97L58.54 159.09C63.132 156.78 64.238 153.476 64.238 149.696H58.484ZM80.0849 148.436V161.078H81.4709V148.436H80.0849ZM77.6069 153.154H76.1089V154.428H77.6069V160.448H78.9649V148.716H77.6069V153.154ZM75.5209 151.124H76.4589V149.962H70.7049V151.124H71.6149V156.878H70.4529L70.6209 158.068C72.2309 158.068 74.8069 157.998 76.7949 157.62L76.6969 156.57C76.3189 156.626 75.9269 156.668 75.5209 156.71V151.124ZM72.9309 151.124H74.2049V156.794C73.7709 156.836 73.3649 156.836 72.9309 156.85V151.124Z" fill="white"/>
<g filter="url(#filter1_f_905_6042)">
<circle cx="82.0131" cy="109.447" r="24.121" fill="#CCB7A3"/>
</g>
<g filter="url(#filter2_f_905_6042)">
<circle cx="58.2006" cy="69.4818" r="26.9017" fill="#AF9A86"/>
</g>
<g filter="url(#filter3_d_905_6042)">
<ellipse cx="75.6826" cy="123.173" rx="39" ry="11.5327" fill="white"/>
</g>
<g filter="url(#filter4_d_905_6042)">
<ellipse cx="75.8546" cy="121.947" rx="38.3267" ry="10.3062" fill="url(#paint0_linear_905_6042)" shape-rendering="crispEdges"/>
</g>
<g filter="url(#filter5_d_905_6042)">
<ellipse cx="75.8546" cy="121.547" rx="17.4024" ry="4.67956" fill="url(#paint1_linear_905_6042)" shape-rendering="crispEdges"/>
</g>
<path d="M96.8722 85.8346C96.8722 89.1131 87.3852 91.7708 75.6825 91.7708C63.9797 91.7708 54.4927 89.1131 54.4927 85.8346C54.4927 82.5561 63.9797 79.8984 75.6825 79.8984C87.3852 79.8984 96.8722 82.5561 96.8722 85.8346Z" fill="white"/>
<path d="M94.5514 86.8612C94.5514 89.7671 86.1805 92.1228 75.8546 92.1228C65.5286 92.1228 57.1577 89.7671 57.1577 86.8612C57.1577 83.9553 65.5286 81.5996 75.8546 81.5996C86.1805 81.5996 94.5514 83.9553 94.5514 86.8612Z" fill="#6E614D"/>
<path fill-rule="evenodd" clip-rule="evenodd" d="M96.5453 61.4745C94.3748 61.1648 91.8135 61.5751 89.8328 62.0941L88.1794 55.9593C90.4618 55.3613 93.9572 54.7195 97.3321 55.2011C100.826 55.6997 104.644 57.5202 106.285 62.149C107.872 66.6271 106.34 70.7045 104.22 73.625C102.116 76.5228 99.1503 78.728 96.7434 79.871L94.0136 74.1288C95.5945 73.3781 97.7177 71.8019 99.1513 69.8273C100.568 67.8754 101.022 65.9896 100.391 64.2104C99.8136 62.5818 98.5972 61.7673 96.5453 61.4745Z" fill="white"/>
<path fill-rule="evenodd" clip-rule="evenodd" d="M73.0981 64.0321C84.1365 60.1712 92.0884 54.3239 90.9451 51.0993L98.467 72.2217C101.554 80.9281 96.9292 90.4788 88.1376 93.5539L80.0015 96.3996C71.2099 99.4746 61.5805 94.9095 58.4936 86.2031L51.0413 65.1841C52.1846 68.4087 62.0598 67.8929 73.0981 64.0321Z" fill="white"/>
<path d="M91.0509 51.3033C92.1473 54.3956 84.0877 60.0323 73.0493 63.8931C62.011 67.754 52.1738 68.377 51.0775 65.2847C49.9811 62.1924 58.0406 56.5557 69.079 52.6948C80.1173 48.834 89.9545 48.211 91.0509 51.3033Z" fill="white"/>
<path d="M89.205 53.0384C90.1768 55.7794 83.069 60.7629 73.3293 64.1696C63.5896 67.5762 54.9062 68.1159 53.9344 65.375C52.9626 62.6341 60.0704 57.6505 69.8101 54.2438C79.5498 50.8372 88.2332 50.2975 89.205 53.0384Z" fill="#6E614D"/>
<path d="M87.434 53.566C84.0799 53.6774 79.2012 53.5632 70.7883 56.5057C62.3753 59.4483 59.3805 61.7837 56.9679 64.222C57.5584 61.7951 62.3474 58.337 70.7604 55.3944C79.1733 52.4518 86.0067 52.5299 87.434 53.566Z" fill="#AFA089"/>
<g filter="url(#filter6_dd_905_6042)">
<path fill-rule="evenodd" clip-rule="evenodd" d="M92.5933 89.4571C88.7249 90.9512 82.5896 91.9167 75.6824 91.9167C63.9797 91.9167 54.4927 89.1453 54.4927 85.7266V108.011C54.4927 117.241 62.0487 124.724 71.3695 124.724H79.9954C87.1643 124.724 93.2892 120.297 95.7352 114.054C97.7442 113.488 99.9095 112.558 101.829 111.233C104.806 109.178 107.615 105.837 107.615 101.09C107.615 96.1822 104.622 93.2055 101.494 91.5826C100.006 90.811 98.4003 90.2865 96.8722 89.9302V85.7266C96.8722 87.0616 95.4255 88.2979 92.965 89.309C92.843 89.2978 92.7237 89.2876 92.6072 89.2782L92.5933 89.4571ZM96.8722 96.5073V106.837C97.3709 106.583 97.8582 106.296 98.3184 105.979C100.308 104.605 101.366 102.976 101.366 101.09C101.366 99.3629 100.491 98.1934 98.6537 97.2403C98.1006 96.9534 97.4982 96.711 96.8722 96.5073Z" fill="white"/>
</g>
<defs>
<filter id="filter0_d_905_6042" x="0" y="0" width="140" height="185" filterUnits="userSpaceOnUse" color-interpolation-filters="sRGB">
<feFlood flood-opacity="0" result="BackgroundImageFix"/>
<feColorMatrix in="SourceAlpha" type="matrix" values="0 0 0 0 0 0 0 0 0 0 0 0 0 0 0 0 0 0 127 0" result="hardAlpha"/>
<feOffset/>
<feGaussianBlur stdDeviation="2"/>
<feComposite in2="hardAlpha" operator="out"/>
<feColorMatrix type="matrix" values="0 0 0 0 0 0 0 0 0 0 0 0 0 0 0 0 0 0 0.25 0"/>
<feBlend mode="normal" in2="BackgroundImageFix" result="effect1_dropShadow_905_6042"/>
<feBlend mode="normal" in="SourceGraphic" in2="effect1_dropShadow_905_6042" result="shape"/>
</filter>
<filter id="filter1_f_905_6042" x="27.8921" y="55.3262" width="108.242" height="108.242" filterUnits="userSpaceOnUse" color-interpolation-filters="sRGB">
<feFlood flood-opacity="0" result="BackgroundImageFix"/>
<feBlend mode="normal" in="SourceGraphic" in2="BackgroundImageFix" result="shape"/>
<feGaussianBlur stdDeviation="15" result="effect1_foregroundBlur_905_6042"/>
</filter>
<filter id="filter2_f_905_6042" x="1.29883" y="12.5801" width="113.804" height="113.803" filterUnits="userSpaceOnUse" color-interpolation-filters="sRGB">
<feFlood flood-opacity="0" result="BackgroundImageFix"/>
<feBlend mode="normal" in="SourceGraphic" in2="BackgroundImageFix" result="shape"/>
<feGaussianBlur stdDeviation="15" result="effect1_foregroundBlur_905_6042"/>
</filter>
<filter id="filter3_d_905_6042" x="23.6826" y="103.641" width="104" height="49.0645" filterUnits="userSpaceOnUse" color-interpolation-filters="sRGB">
<feFlood flood-opacity="0" result="BackgroundImageFix"/>
<feColorMatrix in="SourceAlpha" type="matrix" values="0 0 0 0 0 0 0 0 0 0 0 0 0 0 0 0 0 0 127 0" result="hardAlpha"/>
<feOffset dy="5"/>
<feGaussianBlur stdDeviation="6.5"/>
<feComposite in2="hardAlpha" operator="out"/>
<feColorMatrix type="matrix" values="0 0 0 0 0 0 0 0 0 0 0 0 0 0 0 0 0 0 0.05 0"/>
<feBlend mode="normal" in2="BackgroundImageFix" result="effect1_dropShadow_905_6042"/>
<feBlend mode="normal" in="SourceGraphic" in2="effect1_dropShadow_905_6042" result="shape"/>
</filter>
<filter id="filter4_d_905_6042" x="24.5278" y="103.641" width="102.653" height="46.6133" filterUnits="userSpaceOnUse" color-interpolation-filters="sRGB">
<feFlood flood-opacity="0" result="BackgroundImageFix"/>
<feColorMatrix in="SourceAlpha" type="matrix" values="0 0 0 0 0 0 0 0 0 0 0 0 0 0 0 0 0 0 127 0" result="hardAlpha"/>
<feOffset dy="5"/>
<feGaussianBlur stdDeviation="6.5"/>
<feComposite in2="hardAlpha" operator="out"/>
<feColorMatrix type="matrix" values="0 0 0 0 0 0 0 0 0 0 0 0 0 0 0 0 0 0 0.05 0"/>
<feBlend mode="normal" in2="BackgroundImageFix" result="effect1_dropShadow_905_6042"/>
<feBlend mode="normal" in="SourceGraphic" in2="effect1_dropShadow_905_6042" result="shape"/>
</filter>
<filter id="filter5_d_905_6042" x="45.4521" y="108.867" width="60.8047" height="35.3594" filterUnits="userSpaceOnUse" color-interpolation-filters="sRGB">
<feFlood flood-opacity="0" result="BackgroundImageFix"/>
<feColorMatrix in="SourceAlpha" type="matrix" values="0 0 0 0 0 0 0 0 0 0 0 0 0 0 0 0 0 0 127 0" result="hardAlpha"/>
<feOffset dy="5"/>
<feGaussianBlur stdDeviation="6.5"/>
<feComposite in2="hardAlpha" operator="out"/>
<feColorMatrix type="matrix" values="0 0 0 0 0 0 0 0 0 0 0 0 0 0 0 0 0 0 0.05 0"/>
<feBlend mode="normal" in2="BackgroundImageFix" result="effect1_dropShadow_905_6042"/>
<feBlend mode="normal" in="SourceGraphic" in2="effect1_dropShadow_905_6042" result="shape"/>
</filter>
<filter id="filter6_dd_905_6042" x="50.4927" y="78.7266" width="61.1221" height="48.998" filterUnits="userSpaceOnUse" color-interpolation-filters="sRGB">
<feFlood flood-opacity="0" result="BackgroundImageFix"/>
<feColorMatrix in="SourceAlpha" type="matrix" values="0 0 0 0 0 0 0 0 0 0 0 0 0 0 0 0 0 0 127 0" result="hardAlpha"/>
<feOffset dy="-3"/>
<feGaussianBlur stdDeviation="2"/>
<feComposite in2="hardAlpha" operator="out"/>
<feColorMatrix type="matrix" values="0 0 0 0 0 0 0 0 0 0 0 0 0 0 0 0 0 0 0.05 0"/>
<feBlend mode="normal" in2="BackgroundImageFix" result="effect1_dropShadow_905_6042"/>
<feColorMatrix in="SourceAlpha" type="matrix" values="0 0 0 0 0 0 0 0 0 0 0 0 0 0 0 0 0 0 127 0" result="hardAlpha"/>
<feOffset dy="1"/>
<feGaussianBlur stdDeviation="1"/>
<feComposite in2="hardAlpha" operator="out"/>
<feColorMatrix type="matrix" values="0 0 0 0 0 0 0 0 0 0 0 0 0 0 0 0 0 0 0.05 0"/>
<feBlend mode="normal" in2="effect1_dropShadow_905_6042" result="effect2_dropShadow_905_6042"/>
<feBlend mode="normal" in="SourceGraphic" in2="effect2_dropShadow_905_6042" result="shape"/>
</filter>
<linearGradient id="paint0_linear_905_6042" x1="75.8546" y1="111.641" x2="75.8546" y2="132.253" gradientUnits="userSpaceOnUse">
<stop stop-color="#EBEBEB"/>
<stop offset="1" stop-color="white" stop-opacity="0.11"/>
</linearGradient>
<linearGradient id="paint1_linear_905_6042" x1="75.8546" y1="116.867" x2="75.8546" y2="126.226" gradientUnits="userSpaceOnUse">
<stop stop-color="#B7B7B7"/>
<stop offset="1" stop-color="#F3F3F3" stop-opacity="0.11"/>
</linearGradient>
</defs>
</svg>
