<svg width="140" height="186" viewBox="0 0 140 186" fill="none" xmlns="http://www.w3.org/2000/svg">
<g filter="url(#filter0_d_905_6127)">
<rect x="4" y="4.81836" width="132" height="177" rx="8" fill="#646464"/>
</g>
<path d="M66.688 149.24V156.828H68.13V149.24H66.688ZM65.386 154.994C63.426 154.35 62.32 152.768 62.32 151.06V149.828H60.85V151.06C60.85 152.824 59.73 154.546 57.742 155.218L58.456 156.352C59.968 155.834 61.032 154.77 61.606 153.37C62.166 154.658 63.216 155.624 64.672 156.128L65.386 154.994ZM59.604 158.592H66.688V161.896H68.13V157.43H59.604V158.592ZM80.4909 152.404V149.254H79.0209V156.674H80.4909V153.594H82.2549V152.404H80.4909ZM77.8449 154.238C76.3049 154.574 74.9469 154.658 72.5249 154.658V151.34H76.7109V150.164H71.0829V155.834H72.1049C74.8489 155.834 76.3469 155.75 77.9989 155.414L77.8449 154.238ZM76.3889 156.926C73.7989 156.926 72.1749 157.864 72.1749 159.404C72.1749 160.958 73.7989 161.91 76.3889 161.91C78.9789 161.91 80.6029 160.958 80.6029 159.404C80.6029 157.864 78.9789 156.926 76.3889 156.926ZM76.3889 160.734C74.6389 160.734 73.6029 160.258 73.6029 159.404C73.6029 158.55 74.6389 158.088 76.3889 158.088C78.1389 158.088 79.1749 158.55 79.1749 159.404C79.1749 160.258 78.1389 160.734 76.3889 160.734Z" fill="white"/>
<g opacity="0.7" filter="url(#filter1_f_905_6127)">
<circle cx="82.0131" cy="110.266" r="24.121" fill="#E4D9BC"/>
</g>
<g opacity="0.7" filter="url(#filter2_f_905_6127)">
<circle cx="58.2001" cy="70.3002" r="26.9017" fill="#E4D9BC"/>
</g>
<path d="M93.9498 60.0973C93.9498 69.3198 88.7806 76.7961 82.4041 76.7961C76.0276 76.7961 70.8584 69.3198 70.8584 60.0973C70.8584 50.8748 76.0276 43.3984 82.4041 43.3984C88.7806 43.3984 93.9498 50.8748 93.9498 60.0973Z" fill="#D0D0D0"/>
<path d="M79.7725 66.6523C79.7725 65.5478 80.6679 64.6523 81.7725 64.6523H83.0365C84.1411 64.6523 85.0365 65.5478 85.0365 66.6523V116.813C85.0365 118.267 83.8581 119.445 82.4045 119.445C80.9509 119.445 79.7725 118.267 79.7725 116.813V66.6523Z" fill="#D0D0D0"/>
<path d="M60.0179 49.671C60.0246 48.9857 60.5821 48.4336 61.2674 48.4336C61.9505 48.4336 62.5069 48.982 62.5169 49.665L63.6056 124.601C63.6231 125.806 62.6516 126.791 61.4472 126.791C60.2468 126.791 59.277 125.812 59.2887 124.612L60.0179 49.671Z" fill="#D0D0D0"/>
<path d="M53.2875 49.671C53.2941 48.9857 53.8516 48.4336 54.537 48.4336C55.22 48.4336 55.7765 48.982 55.7864 49.665L56.8751 124.601C56.8926 125.806 55.9212 126.791 54.7167 126.791C53.5163 126.791 52.5465 125.812 52.5582 124.612L53.2875 49.671Z" fill="#D0D0D0"/>
<path fill-rule="evenodd" clip-rule="evenodd" d="M61.5768 48.5034C60.9659 48.6964 60.523 49.2678 60.523 49.9426V125.122C60.523 125.797 60.9659 126.368 61.5769 126.561C61.4333 126.607 61.2804 126.631 61.1218 126.631C60.2884 126.631 59.6128 125.955 59.6128 125.122V49.9426C59.6128 49.1092 60.2884 48.4336 61.1218 48.4336C61.2804 48.4336 61.4332 48.4581 61.5768 48.5034Z" fill="#BCBCBC"/>
<path fill-rule="evenodd" clip-rule="evenodd" d="M54.8458 48.5034C54.2348 48.6964 53.7918 49.2677 53.7918 49.9426V125.122C53.7918 125.797 54.2348 126.368 54.8458 126.561C54.7022 126.607 54.5494 126.631 54.3908 126.631C53.5574 126.631 52.8818 125.955 52.8818 125.122V49.9426C52.8818 49.1092 53.5574 48.4336 54.3908 48.4336C54.5494 48.4336 54.7022 48.458 54.8458 48.5034Z" fill="#BCBCBC"/>
<path d="M58.7949 101.693H64.1102V126.434C64.1102 127.902 62.9203 129.092 61.4526 129.092C59.9848 129.092 58.7949 127.902 58.7949 126.434V101.693Z" fill="#FFDBA5"/>
<path d="M52.0645 101.693H57.3798V126.434C57.3798 127.902 56.1899 129.092 54.7221 129.092C53.2543 129.092 52.0645 127.902 52.0645 126.434V101.693Z" fill="#FFDBA5"/>
<path fill-rule="evenodd" clip-rule="evenodd" d="M60.4701 101.787V128.998C59.4886 128.607 58.7949 127.648 58.7949 126.528V101.787H60.4701Z" fill="white" fill-opacity="0.63"/>
<path fill-rule="evenodd" clip-rule="evenodd" d="M53.7395 101.787V128.998C52.7581 128.607 52.0645 127.648 52.0645 126.528V101.787H53.7395Z" fill="white" fill-opacity="0.63"/>
<path fill-rule="evenodd" clip-rule="evenodd" d="M88.7381 74.0606C87.5399 74.6695 86.2513 75.0007 84.9093 75.0007C78.5328 75.0007 73.3636 67.5243 73.3636 58.3018C73.3636 52.4622 75.4361 47.3226 78.5753 44.3379C74.0807 46.6222 70.8584 52.8152 70.8584 60.0966C70.8584 69.3192 76.0276 76.7955 82.4041 76.7955C84.7431 76.7955 86.9195 75.7896 88.7381 74.0606Z" fill="#BCBCBC"/>
<path d="M79.7983 75.6094H81.4607V108.489H79.7983V75.6094Z" fill="#BCBCBC"/>
<path d="M78.7026 103.465H86.1062V127.161C86.1062 129.206 84.4488 130.863 82.4044 130.863C80.36 130.863 78.7026 129.206 78.7026 127.161V103.465Z" fill="#FFDBA5"/>
<path fill-rule="evenodd" clip-rule="evenodd" d="M81.4608 103.465V130.729C79.8448 130.086 78.7026 128.507 78.7026 126.662V103.465H81.4608Z" fill="white" fill-opacity="0.63"/>
<defs>
<filter id="filter0_d_905_6127" x="0" y="0.818359" width="140" height="185" filterUnits="userSpaceOnUse" color-interpolation-filters="sRGB">
<feFlood flood-opacity="0" result="BackgroundImageFix"/>
<feColorMatrix in="SourceAlpha" type="matrix" values="0 0 0 0 0 0 0 0 0 0 0 0 0 0 0 0 0 0 127 0" result="hardAlpha"/>
<feOffset/>
<feGaussianBlur stdDeviation="2"/>
<feComposite in2="hardAlpha" operator="out"/>
<feColorMatrix type="matrix" values="0 0 0 0 0 0 0 0 0 0 0 0 0 0 0 0 0 0 0.25 0"/>
<feBlend mode="normal" in2="BackgroundImageFix" result="effect1_dropShadow_905_6127"/>
<feBlend mode="normal" in="SourceGraphic" in2="effect1_dropShadow_905_6127" result="shape"/>
</filter>
<filter id="filter1_f_905_6127" x="27.8921" y="56.1445" width="108.242" height="108.242" filterUnits="userSpaceOnUse" color-interpolation-filters="sRGB">
<feFlood flood-opacity="0" result="BackgroundImageFix"/>
<feBlend mode="normal" in="SourceGraphic" in2="BackgroundImageFix" result="shape"/>
<feGaussianBlur stdDeviation="15" result="effect1_foregroundBlur_905_6127"/>
</filter>
<filter id="filter2_f_905_6127" x="1.29834" y="13.3984" width="113.804" height="113.803" filterUnits="userSpaceOnUse" color-interpolation-filters="sRGB">
<feFlood flood-opacity="0" result="BackgroundImageFix"/>
<feBlend mode="normal" in="SourceGraphic" in2="BackgroundImageFix" result="shape"/>
<feGaussianBlur stdDeviation="15" result="effect1_foregroundBlur_905_6127"/>
</filter>
</defs>
</svg>
