<svg width="140" height="186" viewBox="0 0 140 186" fill="none" xmlns="http://www.w3.org/2000/svg">
<g filter="url(#filter0_d_905_6100)">
<rect x="4" y="4.81836" width="132" height="177" rx="8" fill="#646464"/>
</g>
<path d="M66.66 149.24V161.924H68.116V149.24H66.66ZM58.386 150.444V158.802H64.322V150.444H58.386ZM62.908 151.592V157.64H59.8V151.592H62.908ZM79.2869 155.4V153.734C80.2529 153.3 80.8129 152.684 80.8129 151.844C80.8129 150.346 79.0629 149.464 76.3049 149.464C73.5469 149.464 71.7969 150.346 71.7969 151.844C71.7969 152.684 72.3429 153.314 73.2949 153.72V155.4H70.5789V156.548H82.0169V155.4H79.2869ZM76.3049 150.584C78.2229 150.584 79.3149 151.004 79.3149 151.844C79.3149 152.684 78.2229 153.118 76.3049 153.118C74.3869 153.118 73.2809 152.684 73.2809 151.844C73.2809 151.004 74.3869 150.584 76.3049 150.584ZM74.7369 154.112C75.1989 154.182 75.7449 154.224 76.3049 154.224C76.8649 154.224 77.3829 154.182 77.8449 154.112V155.4H74.7369V154.112ZM76.2769 157.36C73.4909 157.36 71.9229 158.172 71.9229 159.628C71.9229 161.084 73.5609 161.896 76.2769 161.896C79.0769 161.896 80.6309 161.084 80.6309 159.628C80.6309 158.172 79.0769 157.36 76.2769 157.36ZM76.2769 160.79C74.4149 160.79 73.3929 160.412 73.3929 159.628C73.3929 158.844 74.4149 158.466 76.2769 158.466C78.1389 158.466 79.1749 158.844 79.1749 159.628C79.1749 160.412 78.1389 160.79 76.2769 160.79Z" fill="white"/>
<g opacity="0.7" filter="url(#filter1_f_905_6100)">
<circle cx="82.0131" cy="110.266" r="24.121" fill="#A78A8F"/>
</g>
<g opacity="0.7" filter="url(#filter2_f_905_6100)">
<circle cx="58.2001" cy="70.3002" r="26.9017" fill="#9F787F"/>
</g>
<path fill-rule="evenodd" clip-rule="evenodd" d="M35.4705 85.9856L37.4432 85.4571L34.9324 76.0866C34.7864 75.5419 35.1097 74.9819 35.6545 74.836C36.1992 74.69 36.7592 75.0133 36.9051 75.558L39.4159 84.9285L41.3887 84.3999L38.8779 75.0294C38.7319 74.4847 39.0552 73.9247 39.5999 73.7788C40.1447 73.6328 40.7046 73.9561 40.8506 74.5008L43.3614 83.8713L45.3341 83.3427L42.8233 73.9723C42.6773 73.4275 43.0006 72.8676 43.5454 72.7216C44.0901 72.5756 44.6501 72.8989 44.796 73.4437L47.3068 82.8141L49.2796 82.2855L46.7688 72.9151C46.6228 72.3703 46.9461 71.8104 47.4908 71.6644C48.0356 71.5185 48.5955 71.8417 48.7415 72.3865L51.2523 81.7569L53.2251 81.2283L50.7142 71.8579C50.5683 71.3131 50.8916 70.7532 51.4363 70.6072C51.9811 70.4612 52.541 70.7845 52.687 71.3293L55.1978 80.6997L57.1705 80.1711L54.6597 70.8007C54.5138 70.256 54.837 69.696 55.3818 69.5501C55.9265 69.4041 56.4865 69.7274 56.6324 70.2721L59.1432 79.6425L61.1159 79.114L58.6051 69.7436C58.4592 69.1988 58.7824 68.6389 59.3272 68.4929C59.872 68.347 60.4319 68.6702 60.5779 69.215L63.0886 78.5854L65.0614 78.0568L62.5506 68.6864C62.4046 68.1416 62.7279 67.5817 63.2727 67.4357C63.8174 67.2897 64.3774 67.613 64.5233 68.1578L67.0341 77.5282L69.0068 76.9996L66.496 67.6292C66.3501 67.0844 66.6733 66.5245 67.2181 66.3785C67.7628 66.2326 68.3228 66.5558 68.4687 67.1006L70.9795 76.471L72.9523 75.9424L70.4415 66.572C70.2955 66.0273 70.6188 65.4673 71.1636 65.3214C71.7083 65.1754 72.2683 65.4987 72.4142 66.0434L74.925 75.4138L76.8977 74.8852L74.3869 65.5148C74.241 64.97 74.5643 64.4101 75.109 64.2641C75.6538 64.1182 76.2137 64.4415 76.3597 64.9862L78.8705 74.3566L80.8432 73.8281L78.3324 64.4576C78.1864 63.9129 78.5097 63.3529 79.0545 63.207C79.5992 63.061 80.1591 63.3843 80.3051 63.929L82.8159 73.2995L84.7886 72.7709L82.2778 63.4005C82.1319 62.8557 82.4551 62.2958 82.9999 62.1498C83.5447 62.0039 84.1046 62.3271 84.2506 62.8719L86.7613 72.2423L88.7341 71.7137L86.2233 62.3432C86.0773 61.7985 86.4006 61.2385 86.9454 61.0926C87.4901 60.9466 88.0501 61.2699 88.196 61.8146L90.6649 71.0284C93.1826 69.6863 94.5383 66.7435 93.7682 63.8694L92.1735 57.9178C91.7251 56.2443 90.005 55.2512 88.3315 55.6996L27.5657 71.9817C25.8922 72.4301 24.899 74.1503 25.3475 75.8238L26.9422 81.7754C27.7357 84.7368 30.5203 86.6329 33.4697 86.4093L30.987 77.1438C30.841 76.599 31.1643 76.0391 31.7091 75.8931C32.2538 75.7472 32.8137 76.0704 32.9597 76.6152L35.4705 85.9856Z" fill="#FF879D"/>
<path fill-rule="evenodd" clip-rule="evenodd" d="M92.1794 90.749C92.1794 90.749 93.9181 89.277 97.2683 85.5413C100.378 82.074 110.792 70.0606 114.041 66.3102C114.685 65.5668 115.121 64.5939 114.53 63.8074C114.399 63.633 114.235 63.446 114.028 63.2489C113.736 62.969 113.462 62.7776 113.216 62.6481C112.46 62.2503 111.651 62.7385 111.032 63.3274L85.1142 88.0078C80.8713 91.8425 74.6472 96.1548 72.0341 97.9653C71.7905 98.1341 71.5783 98.2811 71.402 98.404C68.8174 100.205 67.6072 100.562 66.6081 100.601C65.9064 100.628 65.5324 100.44 65.138 100.181C61.3778 97.4771 56.3241 97.838 53.5318 101.131C50.5803 104.611 51.2733 110.049 55.0798 113.277C58.8862 116.505 61.7138 114.053 64.6654 110.572C66.5048 108.403 67.9583 106.347 67.8711 104.324C67.8733 104.298 67.8754 104.273 67.8774 104.246C68.0049 102.586 69.3308 101.851 70.6619 101.113C70.9143 100.973 71.1668 100.833 71.4114 100.686C72.0811 100.285 73.1418 99.6376 74.3124 98.9228C75.9211 97.9406 77.7372 96.8316 79.0314 96.0621C81.2673 94.7327 84.3448 94.5737 85.6591 94.8761C86.6725 95.1092 87.302 94.6584 87.9079 94.2244L87.9131 94.2207C88.5206 93.7856 92.1792 90.7489 92.1792 90.7489L92.1794 90.749ZM63.1949 109.325C61.0304 111.878 58.9558 113.675 56.1548 111.3C53.3538 108.925 52.8378 104.93 55.0023 102.378C57.1668 99.8253 61.1921 99.6817 63.993 102.057C66.794 104.432 65.3594 106.773 63.1949 109.325Z" fill="white"/>
<path fill-rule="evenodd" clip-rule="evenodd" d="M71.0704 110.353C68.246 109.332 65.9306 111.481 63.5335 114.307C60.5819 117.788 58.6241 120.978 62.4306 124.206C66.237 127.434 71.7155 127.229 74.667 123.749C77.2591 120.692 77.0403 116.126 74.3705 112.872C74.3323 112.499 74.3548 112.13 74.4656 111.794C74.4885 111.725 74.5113 111.654 74.5346 111.581C74.8302 110.661 75.217 109.456 77.1057 107.229C78.7358 105.307 83.6972 100.017 87.6915 95.7911L86.4388 87.6866L82.5172 91.4956C81.8037 92.3369 81.4937 93.985 81.4579 95.0633C81.407 96.6011 79.9966 100.154 78.4617 102.255C77.7554 103.221 77.1492 103.978 76.6002 104.663L76.6002 104.663C75.9563 105.467 75.3909 106.173 74.8345 107.004C73.9124 108.382 72.4937 110.255 71.0704 110.353ZM72.0441 113.579C69.2431 111.204 67.1684 113.002 65.004 115.554C62.8395 118.107 61.4049 120.447 64.2058 122.822C67.0068 125.198 71.0321 125.054 73.1966 122.502C75.361 119.949 74.845 115.955 72.0441 113.579ZM112.175 64.1888C111.942 63.992 111.914 63.6444 112.111 63.4124C112.307 63.1803 112.655 63.1517 112.887 63.3485L114.249 64.5031C114.588 63.8608 114.698 63.1555 114.229 62.5869C114.083 62.4091 113.897 62.2187 113.662 62.0193C113.34 61.7459 113.044 61.5674 112.783 61.4532C112.021 61.1205 111.263 61.6386 110.69 62.24L86.4389 87.6866L87.6916 95.7911C87.6916 95.7911 92.473 90.9687 96.2863 86.8287L94.3603 85.1954C94.1283 84.9987 94.0997 84.651 94.2965 84.419C94.4932 84.187 94.8409 84.1584 95.0729 84.3552L97.0307 86.0155C97.2194 85.808 97.4045 85.6032 97.5852 85.402C97.7665 85.2002 97.9499 84.9944 98.1351 84.7852L96.1417 83.0948C95.9097 82.898 95.8811 82.5504 96.0779 82.3184C96.2747 82.0863 96.6223 82.0577 96.8543 82.2545L98.8617 83.9569C99.2162 83.5494 99.5761 83.1312 99.9398 82.7042L97.9232 80.9941C97.6911 80.7973 97.6626 80.4497 97.8593 80.2177C98.0561 79.9856 98.4037 79.9571 98.6357 80.1538L100.652 81.8635C101.003 81.4467 101.356 81.0233 101.711 80.5952L99.7046 78.8934C99.4725 78.6967 99.444 78.3491 99.6407 78.117C99.8375 77.885 100.185 77.8564 100.417 78.0532L102.413 79.7454C102.761 79.3214 103.11 78.8941 103.458 78.4653L101.486 76.7928C101.254 76.596 101.225 76.2484 101.422 76.0164C101.619 75.7843 101.967 75.7558 102.199 75.9525L104.151 77.6086C104.498 77.1785 104.843 76.7481 105.186 76.3191L103.267 74.6921C103.035 74.4953 103.007 74.1477 103.204 73.9157C103.4 73.6836 103.748 73.6551 103.98 73.8518L105.872 75.4567C106.218 75.021 106.561 74.5879 106.898 74.1595L105.049 72.5914C104.817 72.3947 104.788 72.0471 104.985 71.815C105.182 71.583 105.529 71.5544 105.761 71.7512L107.579 73.2923C107.925 72.8505 108.264 72.4152 108.596 71.9884L106.83 70.4908C106.598 70.294 106.57 69.9464 106.766 69.7143C106.963 69.4823 107.311 69.4537 107.543 69.6505L109.272 71.1171C109.62 70.6676 109.958 70.2301 110.283 69.8072L108.612 68.3901C108.38 68.1933 108.351 67.8457 108.548 67.6137C108.745 67.3817 109.092 67.3531 109.324 67.5498L110.954 68.932C111.308 68.47 111.643 68.0301 111.958 67.6166L110.393 66.2895C110.161 66.0927 110.132 65.7451 110.329 65.513C110.526 65.281 110.874 65.2524 111.106 65.4492L112.625 66.7377C113.001 66.2414 113.336 65.7977 113.622 65.4166L112.175 64.1888Z" fill="#FF879D"/>
<path fill-rule="evenodd" clip-rule="evenodd" d="M91.6869 56.9025L25.241 75.1237C25.1933 73.6984 26.1285 72.3763 27.5651 71.9914L88.3309 55.7092C89.6248 55.3625 90.9466 55.8776 91.6869 56.9025Z" fill="#D87A8B"/>
<path fill-rule="evenodd" clip-rule="evenodd" d="M86.788 90.0475L112.822 61.4571C112.802 61.4479 112.783 61.4391 112.763 61.4306C112.002 61.0979 111.244 61.616 110.671 62.2174L86.4196 87.664L86.788 90.0475ZM86.7879 90.0476L86.4195 87.664L82.4979 91.473C81.7844 92.3143 81.4744 93.9624 81.4387 95.0407C81.429 95.3312 81.3709 95.6936 81.2726 96.1045L86.7879 90.0476Z" fill="#D87A8B"/>
<path d="M87.2212 91.0602C88.1494 91.8472 88.2637 93.2377 87.4766 94.1658C86.6896 95.094 85.2991 95.2083 84.371 94.4212C83.4428 93.6341 83.3285 92.2437 84.1156 91.3156C84.9026 90.3874 86.2931 90.2731 87.2212 91.0602Z" fill="white"/>
<path fill-rule="evenodd" clip-rule="evenodd" d="M37.0238 85.574L37.4468 85.4607L34.936 76.0902C34.79 75.5455 35.1133 74.9856 35.658 74.8396C35.777 74.8077 35.8968 74.7982 36.0128 74.8085C35.7956 74.7415 35.5573 74.7337 35.322 74.7988C34.6661 74.9802 34.2815 75.659 34.4629 76.3149L37.0238 85.574Z" fill="white"/>
<path fill-rule="evenodd" clip-rule="evenodd" d="M31.8593 75.8784C31.9311 75.8697 32.0024 75.8687 32.0724 75.8749C31.8552 75.8079 31.6169 75.8001 31.3816 75.8652C30.7257 76.0466 30.341 76.7254 30.5224 77.3813L33.0282 86.4406C33.1758 86.44 33.324 86.4341 33.4727 86.4229L30.99 77.1573C30.844 76.6126 31.1673 76.0526 31.712 75.9067C31.7611 75.8935 31.8103 75.8842 31.8593 75.8784Z" fill="white"/>
<path fill-rule="evenodd" clip-rule="evenodd" d="M40.9706 84.5134L41.3935 84.4001L38.8827 75.0297C38.7368 74.4849 39.0601 73.925 39.6048 73.779C39.7238 73.7471 39.8436 73.7377 39.9596 73.748C39.7424 73.681 39.5041 73.6732 39.2688 73.7383C38.6129 73.9197 38.2282 74.5985 38.4096 75.2544L40.9706 84.5134Z" fill="white"/>
<path fill-rule="evenodd" clip-rule="evenodd" d="M44.9179 83.4568L45.3408 83.3435L42.83 73.9731C42.684 73.4283 43.0073 72.8684 43.5521 72.7224C43.6711 72.6905 43.7908 72.681 43.9068 72.6913C43.6897 72.6243 43.4514 72.6165 43.216 72.6816C42.5601 72.863 42.1755 73.5418 42.3569 74.1977L44.9179 83.4568Z" fill="white"/>
<path fill-rule="evenodd" clip-rule="evenodd" d="M48.8647 82.4021L49.2876 82.2888L46.7768 72.9184C46.6308 72.3736 46.9541 71.8137 47.4988 71.6677C47.6179 71.6358 47.7376 71.6263 47.8536 71.6367C47.6364 71.5696 47.3982 71.5618 47.1628 71.6269C46.5069 71.8084 46.1223 72.4871 46.3037 73.143L48.8647 82.4021Z" fill="white"/>
<path fill-rule="evenodd" clip-rule="evenodd" d="M52.811 81.3415L53.2339 81.2282L50.7231 71.8578C50.5771 71.3131 50.9004 70.7531 51.4451 70.6072C51.5642 70.5753 51.6839 70.5658 51.7999 70.5761C51.5827 70.5091 51.3444 70.5013 51.1091 70.5664C50.4532 70.7478 50.0686 71.4266 50.25 72.0825L52.811 81.3415Z" fill="white"/>
<path fill-rule="evenodd" clip-rule="evenodd" d="M56.7577 80.2908L57.1806 80.1775L54.6698 70.807C54.5239 70.2623 54.8472 69.7023 55.3919 69.5564C55.5109 69.5245 55.6307 69.515 55.7467 69.5253C55.5295 69.4583 55.2912 69.4505 55.0559 69.5156C54.4 69.697 54.0153 70.3758 54.1968 71.0317L56.7577 80.2908Z" fill="white"/>
<path fill-rule="evenodd" clip-rule="evenodd" d="M60.704 79.2458L61.1269 79.1325L58.6161 69.7621C58.4702 69.2174 58.7935 68.6574 59.3382 68.5115C59.4572 68.4796 59.577 68.4701 59.693 68.4804C59.4758 68.4134 59.2375 68.4056 59.0022 68.4707C58.3463 68.6521 57.9616 69.3309 58.143 69.9868L60.704 79.2458Z" fill="white"/>
<path fill-rule="evenodd" clip-rule="evenodd" d="M64.6513 78.1736L65.0742 78.0603L62.5634 68.6899C62.4174 68.1451 62.7407 67.5852 63.2855 67.4392C63.4045 67.4073 63.5242 67.3978 63.6402 67.4081C63.423 67.3411 63.1848 67.3333 62.9494 67.3984C62.2935 67.5798 61.9089 68.2586 62.0903 68.9145L64.6513 78.1736Z" fill="white"/>
<path fill-rule="evenodd" clip-rule="evenodd" d="M68.5986 77.113L69.0215 76.9997L66.5107 67.6293C66.3647 67.0846 66.688 66.5246 67.2327 66.3786C67.3518 66.3468 67.4715 66.3373 67.5875 66.3476C67.3703 66.2806 67.132 66.2728 66.8967 66.3379C66.2408 66.5193 65.8562 67.1981 66.0376 67.854L68.5986 77.113Z" fill="white"/>
<path fill-rule="evenodd" clip-rule="evenodd" d="M72.5556 76.0681L72.9785 75.9548L70.4677 66.5844C70.3217 66.0396 70.645 65.4797 71.1898 65.3337C71.3088 65.3018 71.4285 65.2923 71.5445 65.3027C71.3273 65.2356 71.0891 65.2279 70.8537 65.2929C70.1978 65.4744 69.8132 66.1531 69.9946 66.8091L72.5556 76.0681Z" fill="white"/>
<path fill-rule="evenodd" clip-rule="evenodd" d="M76.4926 75.0095L76.9155 74.8962L74.4047 65.5258C74.2587 64.981 74.582 64.4211 75.1268 64.2751C75.2458 64.2432 75.3656 64.2337 75.4816 64.2441C75.2644 64.177 75.0261 64.1693 74.7908 64.2344C74.1349 64.4158 73.7502 65.0946 73.9316 65.7505L76.4926 75.0095Z" fill="white"/>
<path fill-rule="evenodd" clip-rule="evenodd" d="M80.4389 73.9353L80.8618 73.822L78.351 64.4516C78.205 63.9068 78.5283 63.3469 79.0731 63.2009C79.1921 63.169 79.3118 63.1595 79.4278 63.1699C79.2106 63.1028 78.9724 63.095 78.737 63.1601C78.0811 63.3416 77.6965 64.0203 77.8779 64.6762L80.4389 73.9353Z" fill="white"/>
<path fill-rule="evenodd" clip-rule="evenodd" d="M84.3857 72.8904L84.8086 72.7771L82.2978 63.4066C82.1518 62.8619 82.4751 62.302 83.0198 62.156C83.1389 62.1241 83.2586 62.1146 83.3746 62.1249C83.1574 62.0579 82.9192 62.0501 82.6838 62.1152C82.0279 62.2966 81.6433 62.9754 81.8247 63.6313L84.3857 72.8904Z" fill="white"/>
<path fill-rule="evenodd" clip-rule="evenodd" d="M88.3324 71.8318L88.7553 71.7185L86.2446 62.3481C86.0986 61.8033 86.4219 61.2434 86.9666 61.0974C87.0856 61.0655 87.2054 61.056 87.3214 61.0663C87.1042 60.9993 86.8659 60.9915 86.6306 61.0566C85.9747 61.238 85.59 61.9168 85.7715 62.5727L88.3324 71.8318Z" fill="white"/>
<defs>
<filter id="filter0_d_905_6100" x="0" y="0.818359" width="140" height="185" filterUnits="userSpaceOnUse" color-interpolation-filters="sRGB">
<feFlood flood-opacity="0" result="BackgroundImageFix"/>
<feColorMatrix in="SourceAlpha" type="matrix" values="0 0 0 0 0 0 0 0 0 0 0 0 0 0 0 0 0 0 127 0" result="hardAlpha"/>
<feOffset/>
<feGaussianBlur stdDeviation="2"/>
<feComposite in2="hardAlpha" operator="out"/>
<feColorMatrix type="matrix" values="0 0 0 0 0 0 0 0 0 0 0 0 0 0 0 0 0 0 0.25 0"/>
<feBlend mode="normal" in2="BackgroundImageFix" result="effect1_dropShadow_905_6100"/>
<feBlend mode="normal" in="SourceGraphic" in2="effect1_dropShadow_905_6100" result="shape"/>
</filter>
<filter id="filter1_f_905_6100" x="27.8921" y="56.1445" width="108.242" height="108.242" filterUnits="userSpaceOnUse" color-interpolation-filters="sRGB">
<feFlood flood-opacity="0" result="BackgroundImageFix"/>
<feBlend mode="normal" in="SourceGraphic" in2="BackgroundImageFix" result="shape"/>
<feGaussianBlur stdDeviation="15" result="effect1_foregroundBlur_905_6100"/>
</filter>
<filter id="filter2_f_905_6100" x="1.29834" y="13.3984" width="113.804" height="113.803" filterUnits="userSpaceOnUse" color-interpolation-filters="sRGB">
<feFlood flood-opacity="0" result="BackgroundImageFix"/>
<feBlend mode="normal" in="SourceGraphic" in2="BackgroundImageFix" result="shape"/>
<feGaussianBlur stdDeviation="15" result="effect1_foregroundBlur_905_6100"/>
</filter>
</defs>
</svg>
