<svg width="140" height="185" viewBox="0 0 140 185" fill="none" xmlns="http://www.w3.org/2000/svg">
<g filter="url(#filter0_d_905_6048)">
<rect x="4" y="4" width="132" height="177" rx="8" fill="#646464"/>
</g>
<path d="M64.112 154.162H66.744V156.052H68.186V148.436H66.744V150.396H64.112V149.206H62.698V151.082H59.716V149.206H58.288V155.212H64.112V154.162ZM66.744 151.572V152.986H64.112V151.572H66.744ZM62.698 154.064H59.716V152.216H62.698V154.064ZM63.972 156.29C61.34 156.29 59.716 157.172 59.716 158.684C59.716 160.196 61.34 161.078 63.972 161.078C66.618 161.078 68.242 160.196 68.242 158.684C68.242 157.172 66.618 156.29 63.972 156.29ZM63.972 159.958C62.166 159.958 61.158 159.524 61.158 158.684C61.158 157.844 62.166 157.41 63.972 157.41C65.778 157.41 66.8 157.844 66.8 158.684C66.8 159.524 65.778 159.958 63.972 159.958ZM77.1449 155.856V156.864H79.6229V158.04H81.0649V148.422H79.6229V155.856H77.1449ZM74.6249 153.364C76.4729 153.364 77.7469 152.482 77.7469 151.138C77.7469 149.794 76.4729 148.912 74.6249 148.912C72.7769 148.912 71.4889 149.794 71.4889 151.138C71.4889 152.482 72.7769 153.364 74.6249 153.364ZM74.6249 149.976C75.6889 149.976 76.3749 150.424 76.3749 151.138C76.3749 151.852 75.6889 152.3 74.6249 152.3C73.5609 152.3 72.8609 151.852 72.8609 151.138C72.8609 150.424 73.5609 149.976 74.6249 149.976ZM74.0509 157.634H75.4929V155.198C76.5709 155.142 77.6769 155.016 78.7409 154.834L78.6289 153.798C75.9409 154.134 72.8469 154.176 70.5229 154.176L70.7049 155.352C71.7129 155.352 72.8189 155.338 74.0509 155.282V157.634ZM73.6729 159.664V157.102H72.2309V160.84H81.3589V159.664H73.6729Z" fill="white"/>
<g filter="url(#filter1_f_905_6048)">
<circle cx="82.0131" cy="109.447" r="24.121" fill="#AB89D7"/>
</g>
<g filter="url(#filter2_f_905_6048)">
<circle cx="58.2001" cy="69.4818" r="26.9017" fill="#DACDFF"/>
</g>
<path d="M72.3345 72.9277L58.991 80.6316C53.6619 83.7084 46.8475 81.8825 43.7708 76.5534L43.5618 76.1914C40.485 70.8622 42.3109 64.0479 47.64 60.9711L60.9835 53.2673L72.3345 72.9277Z" fill="#DACDFF"/>
<path d="M69.0742 96.3184L76.7781 82.9749C79.8549 77.6457 86.6692 75.8198 91.9983 78.8966L92.3603 79.1056C97.6894 82.1824 99.5153 88.9967 96.4385 94.3258L88.7347 107.669L69.0742 96.3184Z" fill="#E9CDFF"/>
<path fill-rule="evenodd" clip-rule="evenodd" d="M72.3442 72.9219C72.3408 72.9239 72.3374 72.9259 72.334 72.9278C69.535 74.5438 64.725 71.4527 61.5905 66.0236C58.456 60.5945 58.1841 54.8833 60.983 53.2674C60.9832 53.2673 60.9833 53.2672 60.9835 53.2671L74.1459 45.6677C79.575 42.5333 86.5172 44.3934 89.6517 49.8225C92.7861 55.2516 90.926 62.1937 85.4969 65.3282L72.3442 72.9219Z" fill="#8269CB"/>
<path fill-rule="evenodd" clip-rule="evenodd" d="M69.0678 96.3288C69.0697 96.3254 69.0717 96.322 69.0737 96.3186C70.6897 93.5196 76.4008 93.7916 81.8299 96.9261C87.259 100.061 90.3501 104.871 88.7342 107.67C88.7341 107.67 88.734 107.67 88.7339 107.67L81.1345 120.832C78.0001 126.262 71.0579 128.122 65.6288 124.987C60.1997 121.853 58.3396 114.911 61.4741 109.482L69.0678 96.3288Z" fill="#9041B5"/>
<path fill-rule="evenodd" clip-rule="evenodd" d="M72.3344 72.9269L59.1719 80.5262C53.7428 83.6607 46.8006 81.8006 43.6662 76.3715C43.4507 75.9983 43.2588 75.618 43.0901 75.2322C46.4732 79.8249 52.8413 81.2374 57.8972 78.3184L71.0597 70.719L84.2222 63.1197C89.2781 60.2006 91.2388 53.9794 88.953 48.7533C89.2027 49.0923 89.4362 49.4486 89.6516 49.8218C92.7861 55.2509 90.9259 62.193 85.4969 65.3275L72.3344 72.9269Z" fill="#B2ABC8" fill-opacity="0.3" style="mix-blend-mode:color-burn"/>
<path fill-rule="evenodd" clip-rule="evenodd" d="M69.0737 96.3186L76.6731 83.1561C79.8076 77.727 86.7497 75.8668 92.1788 79.0013C92.552 79.2168 92.9083 79.4502 93.2473 79.7C88.0211 77.4141 81.7999 79.3749 78.8809 84.4308L71.2815 97.5933L63.6822 110.756C60.7631 115.812 62.1757 122.18 66.7684 125.563C66.3826 125.394 66.0023 125.202 65.6291 124.987C60.2 121.852 58.3399 114.91 61.4743 109.481L69.0737 96.3186Z" fill="#B2ABC8" fill-opacity="0.3" style="mix-blend-mode:color-burn"/>
<path fill-rule="evenodd" clip-rule="evenodd" d="M62.147 55.3075L50.6071 61.9701C45.0445 65.1817 43.1386 72.2945 46.3502 77.8571C46.5709 78.2395 46.8101 78.6045 47.066 78.9519C44.7239 73.5972 46.7329 67.223 51.9131 64.2322L63.453 57.5696L62.147 55.3075ZM62.1693 55.2947L73.7092 48.6321C79.2718 45.4205 86.3847 47.3264 89.5962 52.889C89.817 53.2714 90.0135 53.661 90.1864 54.0563C86.7201 49.3506 80.1954 47.9033 75.0152 50.8941L63.4753 57.5567L62.1693 55.2947Z" fill="url(#paint0_linear_905_6048)"/>
<path fill-rule="evenodd" clip-rule="evenodd" d="M86.706 106.483L93.3686 94.943C96.5801 89.3805 94.6742 82.2676 89.1117 79.0561C88.7293 78.8353 88.3396 78.6387 87.9444 78.4659C92.65 81.9321 94.0973 88.4568 91.1065 93.637L84.4439 105.177L86.706 106.483ZM86.6931 106.505L80.0305 118.045C76.819 123.608 69.7061 125.514 64.1435 122.302C63.7612 122.081 63.3961 121.842 63.0488 121.586C68.4035 123.928 74.7777 121.919 77.7685 116.739L84.4311 105.199L86.6931 106.505Z" fill="url(#paint1_linear_905_6048)"/>
<path d="M43.6662 76.3713C40.5317 70.9422 42.3919 64 47.821 60.8655L74.1461 45.6667C79.5751 42.5322 86.5173 44.3924 89.6518 49.8215C92.7863 55.2506 90.9261 62.1927 85.497 65.3272L59.1719 80.526C53.7429 83.6605 46.8007 81.8003 43.6662 76.3713Z" fill="url(#paint2_linear_905_6048)"/>
<path d="M92.179 79.0003C97.6081 82.1348 99.4683 89.0769 96.3338 94.506L81.135 120.831C78.0005 126.26 71.0583 128.12 65.6293 124.986C60.2002 121.851 58.34 114.909 61.4745 109.48L76.6733 83.155C79.8078 77.726 86.75 75.8658 92.179 79.0003Z" fill="url(#paint3_linear_905_6048)"/>
<defs>
<filter id="filter0_d_905_6048" x="0" y="0" width="140" height="185" filterUnits="userSpaceOnUse" color-interpolation-filters="sRGB">
<feFlood flood-opacity="0" result="BackgroundImageFix"/>
<feColorMatrix in="SourceAlpha" type="matrix" values="0 0 0 0 0 0 0 0 0 0 0 0 0 0 0 0 0 0 127 0" result="hardAlpha"/>
<feOffset/>
<feGaussianBlur stdDeviation="2"/>
<feComposite in2="hardAlpha" operator="out"/>
<feColorMatrix type="matrix" values="0 0 0 0 0 0 0 0 0 0 0 0 0 0 0 0 0 0 0.25 0"/>
<feBlend mode="normal" in2="BackgroundImageFix" result="effect1_dropShadow_905_6048"/>
<feBlend mode="normal" in="SourceGraphic" in2="effect1_dropShadow_905_6048" result="shape"/>
</filter>
<filter id="filter1_f_905_6048" x="27.8921" y="55.3262" width="108.242" height="108.242" filterUnits="userSpaceOnUse" color-interpolation-filters="sRGB">
<feFlood flood-opacity="0" result="BackgroundImageFix"/>
<feBlend mode="normal" in="SourceGraphic" in2="BackgroundImageFix" result="shape"/>
<feGaussianBlur stdDeviation="15" result="effect1_foregroundBlur_905_6048"/>
</filter>
<filter id="filter2_f_905_6048" x="1.29834" y="12.5801" width="113.804" height="113.803" filterUnits="userSpaceOnUse" color-interpolation-filters="sRGB">
<feFlood flood-opacity="0" result="BackgroundImageFix"/>
<feBlend mode="normal" in="SourceGraphic" in2="BackgroundImageFix" result="shape"/>
<feGaussianBlur stdDeviation="15" result="effect1_foregroundBlur_905_6048"/>
</filter>
<linearGradient id="paint0_linear_905_6048" x1="78.0477" y1="40.7374" x2="81.9377" y2="47.7584" gradientUnits="userSpaceOnUse">
<stop stop-color="#C9B6FF"/>
<stop offset="1" stop-color="#C9B6FF" stop-opacity="0"/>
</linearGradient>
<linearGradient id="paint1_linear_905_6048" x1="80.2206" y1="127.051" x2="73.3413" y2="122.916" gradientUnits="userSpaceOnUse">
<stop stop-color="#C9B6FF"/>
<stop offset="1" stop-color="#C9B6FF" stop-opacity="0"/>
</linearGradient>
<linearGradient id="paint2_linear_905_6048" x1="84.8727" y1="94.6434" x2="66.6589" y2="63.0962" gradientUnits="userSpaceOnUse">
<stop stop-color="#8042A6"/>
<stop offset="1" stop-color="#473772" stop-opacity="0"/>
</linearGradient>
<linearGradient id="paint3_linear_905_6048" x1="47.3571" y1="83.7794" x2="78.9043" y2="101.993" gradientUnits="userSpaceOnUse">
<stop stop-color="#8042A6"/>
<stop offset="1" stop-color="#473772" stop-opacity="0"/>
</linearGradient>
</defs>
</svg>
