<svg width="21" height="21" viewBox="0 0 21 21" fill="none" xmlns="http://www.w3.org/2000/svg">
<circle cx="10.5" cy="10.5" r="9.65" fill="#9FD7FF" stroke="white" stroke-width="0.3"/>
<ellipse rx="3.96574" ry="3.96712" transform="matrix(-0.865875 -0.50026 0.49974 -0.866176 9.26634 8.32017)" fill="white"/>
<ellipse cx="9.26634" cy="6.83132" rx="3.01658" ry="2.26143" fill="white"/>
<ellipse rx="1.53432" ry="0.690687" transform="matrix(0.928393 -0.371599 0.371155 0.928571 8.14406 5.46915)" fill="white"/>
<ellipse rx="3.7191" ry="3.76351" transform="matrix(-0.965881 0.258987 -0.258652 -0.965971 9.26638 8.32013)" fill="white"/>
<path fill-rule="evenodd" clip-rule="evenodd" d="M10.4544 7.14029C9.66675 6.35205 8.38965 6.35205 7.60195 7.14029C6.81426 7.92853 6.81426 9.20652 7.60195 9.99476C8.38965 10.783 9.66675 10.783 10.4544 9.99476C11.2421 9.20652 11.2421 7.92853 10.4544 7.14029ZM11.6173 5.9766C10.1874 4.54567 7.869 4.54567 6.43906 5.9766C5.00913 7.40753 5.00913 9.72753 6.43906 11.1585C7.869 12.5894 10.1874 12.5894 11.6173 11.1585C13.0473 9.72753 13.0473 7.40753 11.6173 5.9766Z" fill="white"/>
<ellipse cx="9.26632" cy="8.32016" rx="3.96505" ry="3.96781" fill="white"/>
<g filter="url(#filter0_f_1477_23386)">
<path fill-rule="evenodd" clip-rule="evenodd" d="M9.63082 8.72764C9.20138 9.15737 9.20138 9.8541 9.63082 10.2838C10.0602 10.7136 10.7565 10.7136 11.1859 10.2838C11.6154 9.8541 11.6154 9.15737 11.1859 8.72764C10.7565 8.29791 10.0602 8.29791 9.63082 8.72764ZM8.99684 8.09322C8.21727 8.87333 8.21727 10.1381 8.99684 10.9183C9.77641 11.6984 11.0403 11.6984 11.8199 10.9183C12.5995 10.1381 12.5995 8.87333 11.8199 8.09322C11.0403 7.31311 9.77641 7.31311 8.99684 8.09322Z" fill="white"/>
</g>
<g filter="url(#filter1_f_1477_23386)">
<path fill-rule="evenodd" clip-rule="evenodd" d="M9.23013 7.49829C9.72042 7.25564 9.92131 6.6612 9.67883 6.17056C9.43635 5.67992 8.84231 5.47889 8.35202 5.72154C7.86172 5.9642 7.66083 6.55864 7.90331 7.04928C8.1458 7.53991 8.73983 7.74095 9.23013 7.49829ZM9.58811 8.22263C10.4782 7.78213 10.8429 6.703 10.4027 5.81233C9.96247 4.92165 8.88409 4.55671 7.99404 4.99721C7.10398 5.43771 6.73929 6.51683 7.17948 7.40751C7.61967 8.29818 8.69805 8.66312 9.58811 8.22263Z" fill="white"/>
</g>
<ellipse rx="1.9376" ry="1.93827" transform="matrix(-0.865875 -0.50026 0.49974 -0.866176 13.9641 10.1549)" fill="white"/>
<ellipse cx="13.9641" cy="9.42747" rx="1.47386" ry="1.1049" fill="white"/>
<ellipse rx="0.749645" ry="0.337459" transform="matrix(0.928393 -0.371599 0.371155 0.928571 13.4158 8.76196)" fill="white"/>
<ellipse rx="1.8171" ry="1.83879" transform="matrix(-0.965881 0.258987 -0.258652 -0.965971 13.9641 10.1549)" fill="white"/>
<path fill-rule="evenodd" clip-rule="evenodd" d="M14.5446 9.57845C14.1598 9.19333 13.5358 9.19333 13.1509 9.57845C12.7661 9.96358 12.7661 10.588 13.1509 10.9731C13.5358 11.3582 14.1598 11.3582 14.5446 10.9731C14.9295 10.588 14.9295 9.96358 14.5446 9.57845ZM15.1128 9.00989C14.4141 8.31076 13.2814 8.31076 12.5828 9.00989C11.8841 9.70902 11.8841 10.8425 12.5828 11.5417C13.2814 12.2408 14.4141 12.2408 15.1128 11.5417C15.8114 10.8425 15.8114 9.70902 15.1128 9.00989Z" fill="white"/>
<ellipse cx="13.9641" cy="10.1549" rx="1.93726" ry="1.93861" fill="white"/>
<g filter="url(#filter2_f_1477_23386)">
<path fill-rule="evenodd" clip-rule="evenodd" d="M14.1422 10.354C13.9323 10.5639 13.9323 10.9043 14.1422 11.1143C14.352 11.3243 14.6921 11.3243 14.902 11.1143C15.1118 10.9043 15.1118 10.5639 14.902 10.354C14.6921 10.144 14.352 10.144 14.1422 10.354ZM13.8324 10.044C13.4515 10.4251 13.4515 11.0431 13.8324 11.4243C14.2133 11.8054 14.8308 11.8054 15.2117 11.4243C15.5926 11.0431 15.5926 10.4251 15.2117 10.044C14.8308 9.66285 14.2133 9.66285 13.8324 10.044Z" fill="white"/>
</g>
<path fill-rule="evenodd" clip-rule="evenodd" d="M13.9464 9.75338C14.1859 9.63483 14.2841 9.34439 14.1656 9.10467C14.0471 8.86495 13.7569 8.76673 13.5174 8.88529C13.2778 9.00385 13.1797 9.29428 13.2981 9.534C13.4166 9.77372 13.7068 9.87194 13.9464 9.75338ZM14.1213 10.1073C14.5562 9.89206 14.7343 9.36482 14.5193 8.92965C14.3042 8.49448 13.7773 8.31617 13.3425 8.53139C12.9076 8.74661 12.7294 9.27386 12.9445 9.70903C13.1595 10.1442 13.6864 10.3225 14.1213 10.1073Z" fill="white"/>
<ellipse rx="2.5034" ry="2.50427" transform="matrix(-0.865875 -0.50026 0.49974 -0.866176 12.5189 15.6228)" fill="white"/>
<ellipse cx="12.519" cy="14.683" rx="1.90424" ry="1.42755" fill="white"/>
<ellipse rx="0.968551" ry="0.436002" transform="matrix(0.928393 -0.371599 0.371155 0.928571 11.8105 13.8231)" fill="white"/>
<ellipse rx="2.34771" ry="2.37574" transform="matrix(-0.965881 0.258987 -0.258652 -0.965971 12.5189 15.6228)" fill="white"/>
<path fill-rule="evenodd" clip-rule="evenodd" d="M13.269 14.878C12.7717 14.3804 11.9656 14.3804 11.4683 14.878C10.9711 15.3756 10.9711 16.1823 11.4683 16.6799C11.9656 17.1775 12.7717 17.1775 13.269 16.6799C13.7662 16.1823 13.7662 15.3756 13.269 14.878ZM14.0031 14.1434C13.1004 13.2401 11.6369 13.2401 10.7342 14.1434C9.83158 15.0467 9.83158 16.5112 10.7342 17.4145C11.6369 18.3178 13.1004 18.3178 14.0031 17.4145C14.9057 16.5112 14.9057 15.0467 14.0031 14.1434Z" fill="white"/>
<ellipse cx="12.519" cy="15.6228" rx="2.50297" ry="2.50471" fill="white"/>
<g filter="url(#filter3_f_1477_23386)">
<path fill-rule="evenodd" clip-rule="evenodd" d="M12.749 15.88C12.478 16.1513 12.478 16.5911 12.749 16.8624C13.0201 17.1337 13.4596 17.1337 13.7307 16.8624C14.0018 16.5911 14.0018 16.1513 13.7307 15.88C13.4596 15.6088 13.0201 15.6088 12.749 15.88ZM12.3488 15.4796C11.8567 15.972 11.8567 16.7704 12.3488 17.2629C12.841 17.7553 13.6388 17.7553 14.1309 17.2629C14.623 16.7704 14.623 15.972 14.1309 15.4796C13.6388 14.9871 12.841 14.9871 12.3488 15.4796Z" fill="white"/>
</g>
<g filter="url(#filter4_f_1477_23386)">
<path fill-rule="evenodd" clip-rule="evenodd" d="M12.4961 15.104C12.8056 14.9508 12.9324 14.5755 12.7794 14.2658C12.6263 13.9561 12.2513 13.8292 11.9418 13.9824C11.6323 14.1356 11.5055 14.5108 11.6585 14.8205C11.8116 15.1302 12.1866 15.2571 12.4961 15.104ZM12.7221 15.5612C13.2839 15.2831 13.5142 14.6019 13.2363 14.0397C12.9584 13.4774 12.2777 13.2471 11.7158 13.5251C11.154 13.8032 10.9237 14.4844 11.2016 15.0467C11.4795 15.6089 12.1602 15.8393 12.7221 15.5612Z" fill="white"/>
</g>
<defs>
<filter id="filter0_f_1477_23386" x="7.99236" y="7.08836" width="4.83194" height="4.83475" filterUnits="userSpaceOnUse" color-interpolation-filters="sRGB">
<feFlood flood-opacity="0" result="BackgroundImageFix"/>
<feBlend mode="normal" in="SourceGraphic" in2="BackgroundImageFix" result="shape"/>
<feGaussianBlur stdDeviation="0.209877" result="effect1_foregroundBlur_1477_23386"/>
</filter>
<filter id="filter1_f_1477_23386" x="6.57304" y="4.39061" width="4.43606" height="4.43863" filterUnits="userSpaceOnUse" color-interpolation-filters="sRGB">
<feFlood flood-opacity="0" result="BackgroundImageFix"/>
<feBlend mode="normal" in="SourceGraphic" in2="BackgroundImageFix" result="shape"/>
<feGaussianBlur stdDeviation="0.209877" result="effect1_foregroundBlur_1477_23386"/>
</filter>
<filter id="filter2_f_1477_23386" x="13.127" y="9.33836" width="2.79019" height="2.79153" filterUnits="userSpaceOnUse" color-interpolation-filters="sRGB">
<feFlood flood-opacity="0" result="BackgroundImageFix"/>
<feBlend mode="normal" in="SourceGraphic" in2="BackgroundImageFix" result="shape"/>
<feGaussianBlur stdDeviation="0.209877" result="effect1_foregroundBlur_1477_23386"/>
</filter>
<filter id="filter3_f_1477_23386" x="11.56" y="14.6905" width="3.35977" height="3.36148" filterUnits="userSpaceOnUse" color-interpolation-filters="sRGB">
<feFlood flood-opacity="0" result="BackgroundImageFix"/>
<feBlend mode="normal" in="SourceGraphic" in2="BackgroundImageFix" result="shape"/>
<feGaussianBlur stdDeviation="0.209877" result="effect1_foregroundBlur_1477_23386"/>
</filter>
<filter id="filter4_f_1477_23386" x="10.664" y="12.9874" width="3.10989" height="3.11148" filterUnits="userSpaceOnUse" color-interpolation-filters="sRGB">
<feFlood flood-opacity="0" result="BackgroundImageFix"/>
<feBlend mode="normal" in="SourceGraphic" in2="BackgroundImageFix" result="shape"/>
<feGaussianBlur stdDeviation="0.209877" result="effect1_foregroundBlur_1477_23386"/>
</filter>
</defs>
</svg>
