<svg width="63" height="63" viewBox="0 0 63 63" fill="none" xmlns="http://www.w3.org/2000/svg">
<circle cx="31.5" cy="31.5" r="31.5" fill="#9FD7FF"/>
<g filter="url(#filter0_d_1328_21317)">
<ellipse rx="10.5647" ry="10.5645" transform="matrix(-0.866032 -0.499988 0.500012 -0.866018 28.4319 24.432)" fill="url(#paint0_linear_1328_21317)" fill-opacity="0.8" shape-rendering="crispEdges"/>
</g>
<ellipse cx="28.4321" cy="20.4665" rx="8.0376" ry="6.02115" fill="url(#paint1_linear_1328_21317)"/>
<ellipse rx="4.08774" ry="1.83917" transform="matrix(0.928486 -0.371366 0.371387 0.928478 25.4413 16.84)" fill="url(#paint2_linear_1328_21317)"/>
<ellipse rx="9.90897" ry="10.021" transform="matrix(-0.965928 0.258811 -0.258827 -0.965924 28.4326 24.4319)" fill="url(#paint3_linear_1328_21317)"/>
<g filter="url(#filter1_f_1328_21317)">
<path fill-rule="evenodd" clip-rule="evenodd" d="M31.5971 21.2897C29.4983 19.191 26.0955 19.191 23.9967 21.2897C21.8979 23.3885 21.8979 26.7912 23.9967 28.8899C26.0955 30.9886 29.4983 30.9886 31.5971 28.8899C33.6959 26.7912 33.6959 23.3885 31.5971 21.2897ZM34.6956 18.1914C30.8855 14.3814 24.7082 14.3814 20.8982 18.1914C17.0882 22.0013 17.0882 28.1784 20.8982 31.9883C24.7082 35.7982 30.8855 35.7982 34.6956 31.9883C38.5056 28.1784 38.5056 22.0013 34.6956 18.1914Z" fill="url(#paint4_linear_1328_21317)"/>
</g>
<ellipse cx="28.432" cy="24.4316" rx="10.5648" ry="10.5644" fill="url(#paint5_radial_1328_21317)" fill-opacity="0.2"/>
<g filter="url(#filter2_f_1328_21317)">
<path fill-rule="evenodd" clip-rule="evenodd" d="M29.4023 25.5162C28.2581 26.6604 28.2581 28.5154 29.4023 29.6596C30.5465 30.8038 32.4017 30.8038 33.5459 29.6596C34.6901 28.5154 34.6901 26.6604 33.5459 25.5162C32.4017 24.372 30.5465 24.372 29.4023 25.5162ZM27.7131 23.827C25.6359 25.9041 25.6359 29.2717 27.7131 31.3488C29.7902 33.4258 33.158 33.4258 35.2351 31.3488C37.3122 29.2717 37.3122 25.9041 35.2351 23.827C33.158 21.7499 29.7902 21.7499 27.7131 23.827Z" fill="url(#paint6_linear_1328_21317)"/>
</g>
<g filter="url(#filter3_f_1328_21317)">
<path fill-rule="evenodd" clip-rule="evenodd" d="M28.3356 22.2427C29.642 21.5966 30.1773 20.0138 29.5312 18.7075C28.8851 17.4012 27.3023 16.8659 25.9959 17.512C24.6895 18.1581 24.1543 19.7408 24.8004 21.0471C25.4465 22.3535 27.0292 22.8887 28.3356 22.2427ZM29.2895 24.1712C31.661 22.9984 32.6327 20.1252 31.4598 17.7537C30.2869 15.3822 27.4136 14.4106 25.0421 15.5834C22.6706 16.7563 21.6989 19.6295 22.8717 22.0009C24.0446 24.3724 26.9179 25.3441 29.2895 24.1712Z" fill="url(#paint7_linear_1328_21317)"/>
</g>
<g filter="url(#filter4_d_1328_21317)">
<ellipse rx="5.16174" ry="5.16166" transform="matrix(-0.866032 -0.499988 0.500012 -0.866018 40.9505 29.3163)" fill="url(#paint8_linear_1328_21317)" fill-opacity="0.8" shape-rendering="crispEdges"/>
</g>
<ellipse cx="40.9505" cy="27.3793" rx="3.92705" ry="2.94184" fill="url(#paint9_linear_1328_21317)"/>
<ellipse rx="1.99721" ry="0.898588" transform="matrix(0.928486 -0.371366 0.371387 0.928478 39.4889 25.6082)" fill="url(#paint10_linear_1328_21317)"/>
<ellipse rx="4.84137" ry="4.89609" transform="matrix(-0.965928 0.258811 -0.258827 -0.965924 40.9489 29.3167)" fill="url(#paint11_linear_1328_21317)"/>
<g filter="url(#filter5_f_1328_21317)">
<path fill-rule="evenodd" clip-rule="evenodd" d="M42.4954 27.7813C41.47 26.7559 39.8074 26.7559 38.782 27.7813C37.7565 28.8067 37.7565 30.4692 38.782 31.4946C39.8074 32.52 41.47 32.52 42.4954 31.4946C43.5208 30.4692 43.5208 28.8067 42.4954 27.7813ZM44.0093 26.2675C42.1477 24.406 39.1296 24.406 37.2681 26.2675C35.4066 28.1289 35.4066 31.147 37.2681 33.0084C39.1296 34.8699 42.1477 34.8699 44.0093 33.0084C45.8708 31.147 45.8708 28.1289 44.0093 26.2675Z" fill="url(#paint12_linear_1328_21317)"/>
</g>
<ellipse cx="40.9489" cy="29.3159" rx="5.16179" ry="5.16162" fill="url(#paint13_radial_1328_21317)" fill-opacity="0.2"/>
<g filter="url(#filter6_f_1328_21317)">
<path fill-rule="evenodd" clip-rule="evenodd" d="M41.424 29.8472C40.8649 30.4062 40.8649 31.3126 41.424 31.8716C41.983 32.4306 42.8894 32.4306 43.4484 31.8716C44.0075 31.3126 44.0075 30.4062 43.4484 29.8472C42.8894 29.2881 41.983 29.2881 41.424 29.8472ZM40.5986 29.0219C39.5838 30.0367 39.5838 31.6821 40.5986 32.6969C41.6135 33.7117 43.2589 33.7117 44.2738 32.6969C45.2886 31.6821 45.2886 30.0367 44.2738 29.0219C43.2589 28.007 41.6135 28.007 40.5986 29.0219Z" fill="url(#paint14_linear_1328_21317)"/>
</g>
<g filter="url(#filter7_f_1328_21317)">
<path fill-rule="evenodd" clip-rule="evenodd" d="M40.9025 28.2473C41.5408 27.9316 41.8023 27.1583 41.4866 26.5201C41.1709 25.8818 40.3976 25.6203 39.7593 25.936C39.1211 26.2516 38.8595 27.0249 39.1752 27.6632C39.4909 28.3014 40.2642 28.5629 40.9025 28.2473ZM41.3685 29.1896C42.5272 28.6165 43.002 27.2127 42.4289 26.0541C41.8559 24.8954 40.452 24.4207 39.2933 24.9937C38.1346 25.5667 37.6599 26.9705 38.2329 28.1292C38.806 29.2878 40.2098 29.7626 41.3685 29.1896Z" fill="url(#paint15_linear_1328_21317)"/>
</g>
<g filter="url(#filter8_d_1328_21317)">
<ellipse rx="6.66904" ry="6.66894" transform="matrix(-0.866032 -0.499988 0.500012 -0.866018 37.098 43.8745)" fill="url(#paint16_linear_1328_21317)" fill-opacity="0.8" shape-rendering="crispEdges"/>
</g>
<ellipse cx="37.0992" cy="41.3732" rx="5.0738" ry="3.8009" fill="url(#paint17_linear_1328_21317)"/>
<ellipse rx="2.58042" ry="1.16099" transform="matrix(0.928486 -0.371366 0.371387 0.928478 35.2118 39.0845)" fill="url(#paint18_linear_1328_21317)"/>
<ellipse rx="6.25511" ry="6.32582" transform="matrix(-0.965928 0.258811 -0.258827 -0.965924 37.0981 43.8758)" fill="url(#paint19_linear_1328_21317)"/>
<g filter="url(#filter9_f_1328_21317)">
<path fill-rule="evenodd" clip-rule="evenodd" d="M39.0962 41.8918C37.7713 40.5669 35.6232 40.5669 34.2984 41.8918C32.9735 43.2166 32.9735 45.3646 34.2984 46.6894C35.6232 48.0143 37.7713 48.0143 39.0962 46.6894C40.421 45.3646 40.421 43.2166 39.0962 41.8918ZM41.0521 39.9359C38.647 37.5309 34.7475 37.5309 32.3424 39.9359C29.9373 42.3409 29.9373 46.2403 32.3424 48.6453C34.7475 51.0503 38.647 51.0503 41.0521 48.6453C43.4572 46.2403 43.4572 42.3409 41.0521 39.9359Z" fill="url(#paint20_linear_1328_21317)"/>
</g>
<ellipse cx="37.0988" cy="43.8759" rx="6.6691" ry="6.66888" fill="url(#paint21_radial_1328_21317)" fill-opacity="0.2"/>
<g filter="url(#filter10_f_1328_21317)">
<path fill-rule="evenodd" clip-rule="evenodd" d="M37.7114 44.5594C36.9891 45.2817 36.9891 46.4527 37.7114 47.175C38.4337 47.8972 39.6048 47.8972 40.3271 47.175C41.0494 46.4527 41.0494 45.2817 40.3271 44.5594C39.6048 43.8371 38.4337 43.8371 37.7114 44.5594ZM36.6451 43.4931C35.3339 44.8043 35.3339 46.9301 36.6451 48.2413C37.9563 49.5524 40.0822 49.5524 41.3934 48.2413C42.7046 46.9301 42.7046 44.8043 41.3934 43.4931C40.0822 42.1819 37.9563 42.1819 36.6451 43.4931Z" fill="url(#paint22_linear_1328_21317)"/>
</g>
<g filter="url(#filter11_f_1328_21317)">
<path fill-rule="evenodd" clip-rule="evenodd" d="M37.0378 42.494C37.8624 42.0862 38.2003 41.0871 37.7925 40.2624C37.3846 39.4378 36.3855 39.0999 35.5608 39.5077C34.7361 39.9156 34.3983 40.9147 34.8061 41.7393C35.214 42.564 36.2131 42.9018 37.0378 42.494ZM37.6399 43.7114C39.1369 42.9711 39.7503 41.1573 39.0099 39.6603C38.2695 38.1633 36.4557 37.5499 34.9587 38.2903C33.4616 39.0307 32.8483 40.8444 33.5886 42.3414C34.329 43.8384 36.1428 44.4518 37.6399 43.7114Z" fill="url(#paint23_linear_1328_21317)"/>
</g>
<defs>
<filter id="filter0_d_1328_21317" x="14.8652" y="13.8652" width="27.1328" height="27.1328" filterUnits="userSpaceOnUse" color-interpolation-filters="sRGB">
<feFlood flood-opacity="0" result="BackgroundImageFix"/>
<feColorMatrix in="SourceAlpha" type="matrix" values="0 0 0 0 0 0 0 0 0 0 0 0 0 0 0 0 0 0 127 0" result="hardAlpha"/>
<feOffset dy="3"/>
<feGaussianBlur stdDeviation="1.5"/>
<feComposite in2="hardAlpha" operator="out"/>
<feColorMatrix type="matrix" values="0 0 0 0 0 0 0 0 0 0 0 0 0 0 0 0 0 0 0.25 0"/>
<feBlend mode="normal" in2="BackgroundImageFix" result="effect1_dropShadow_1328_21317"/>
<feBlend mode="normal" in="SourceGraphic" in2="effect1_dropShadow_1328_21317" result="shape"/>
</filter>
<filter id="filter1_f_1328_21317" x="14.041" y="11.334" width="27.5117" height="27.5117" filterUnits="userSpaceOnUse" color-interpolation-filters="sRGB">
<feFlood flood-opacity="0" result="BackgroundImageFix"/>
<feBlend mode="normal" in="SourceGraphic" in2="BackgroundImageFix" result="shape"/>
<feGaussianBlur stdDeviation="2" result="effect1_foregroundBlur_1328_21317"/>
</filter>
<filter id="filter2_f_1328_21317" x="24.1543" y="20.2695" width="14.6387" height="14.6367" filterUnits="userSpaceOnUse" color-interpolation-filters="sRGB">
<feFlood flood-opacity="0" result="BackgroundImageFix"/>
<feBlend mode="normal" in="SourceGraphic" in2="BackgroundImageFix" result="shape"/>
<feGaussianBlur stdDeviation="1" result="effect1_foregroundBlur_1328_21317"/>
</filter>
<filter id="filter3_f_1328_21317" x="20.375" y="13.0859" width="13.582" height="13.582" filterUnits="userSpaceOnUse" color-interpolation-filters="sRGB">
<feFlood flood-opacity="0" result="BackgroundImageFix"/>
<feBlend mode="normal" in="SourceGraphic" in2="BackgroundImageFix" result="shape"/>
<feGaussianBlur stdDeviation="1" result="effect1_foregroundBlur_1328_21317"/>
</filter>
<filter id="filter4_d_1328_21317" x="32.7871" y="24.1543" width="16.3262" height="16.3242" filterUnits="userSpaceOnUse" color-interpolation-filters="sRGB">
<feFlood flood-opacity="0" result="BackgroundImageFix"/>
<feColorMatrix in="SourceAlpha" type="matrix" values="0 0 0 0 0 0 0 0 0 0 0 0 0 0 0 0 0 0 127 0" result="hardAlpha"/>
<feOffset dy="3"/>
<feGaussianBlur stdDeviation="1.5"/>
<feComposite in2="hardAlpha" operator="out"/>
<feColorMatrix type="matrix" values="0 0 0 0 0 0 0 0 0 0 0 0 0 0 0 0 0 0 0.25 0"/>
<feBlend mode="normal" in2="BackgroundImageFix" result="effect1_dropShadow_1328_21317"/>
<feBlend mode="normal" in="SourceGraphic" in2="effect1_dropShadow_1328_21317" result="shape"/>
</filter>
<filter id="filter5_f_1328_21317" x="31.8711" y="20.8711" width="17.5352" height="17.5332" filterUnits="userSpaceOnUse" color-interpolation-filters="sRGB">
<feFlood flood-opacity="0" result="BackgroundImageFix"/>
<feBlend mode="normal" in="SourceGraphic" in2="BackgroundImageFix" result="shape"/>
<feGaussianBlur stdDeviation="2" result="effect1_foregroundBlur_1328_21317"/>
</filter>
<filter id="filter6_f_1328_21317" x="37.8379" y="26.2617" width="9.19727" height="9.19531" filterUnits="userSpaceOnUse" color-interpolation-filters="sRGB">
<feFlood flood-opacity="0" result="BackgroundImageFix"/>
<feBlend mode="normal" in="SourceGraphic" in2="BackgroundImageFix" result="shape"/>
<feGaussianBlur stdDeviation="1" result="effect1_foregroundBlur_1328_21317"/>
</filter>
<filter id="filter7_f_1328_21317" x="35.9902" y="22.75" width="8.68164" height="8.68359" filterUnits="userSpaceOnUse" color-interpolation-filters="sRGB">
<feFlood flood-opacity="0" result="BackgroundImageFix"/>
<feBlend mode="normal" in="SourceGraphic" in2="BackgroundImageFix" result="shape"/>
<feGaussianBlur stdDeviation="1" result="effect1_foregroundBlur_1328_21317"/>
</filter>
<filter id="filter8_d_1328_21317" x="27.4277" y="37.2051" width="19.3398" height="19.3398" filterUnits="userSpaceOnUse" color-interpolation-filters="sRGB">
<feFlood flood-opacity="0" result="BackgroundImageFix"/>
<feColorMatrix in="SourceAlpha" type="matrix" values="0 0 0 0 0 0 0 0 0 0 0 0 0 0 0 0 0 0 127 0" result="hardAlpha"/>
<feOffset dy="3"/>
<feGaussianBlur stdDeviation="1.5"/>
<feComposite in2="hardAlpha" operator="out"/>
<feColorMatrix type="matrix" values="0 0 0 0 0 0 0 0 0 0 0 0 0 0 0 0 0 0 0.25 0"/>
<feBlend mode="normal" in2="BackgroundImageFix" result="effect1_dropShadow_1328_21317"/>
<feBlend mode="normal" in="SourceGraphic" in2="effect1_dropShadow_1328_21317" result="shape"/>
</filter>
<filter id="filter9_f_1328_21317" x="26.5391" y="34.1328" width="20.3164" height="20.3164" filterUnits="userSpaceOnUse" color-interpolation-filters="sRGB">
<feFlood flood-opacity="0" result="BackgroundImageFix"/>
<feBlend mode="normal" in="SourceGraphic" in2="BackgroundImageFix" result="shape"/>
<feGaussianBlur stdDeviation="2" result="effect1_foregroundBlur_1328_21317"/>
</filter>
<filter id="filter10_f_1328_21317" x="33.6621" y="40.5098" width="10.7148" height="10.7148" filterUnits="userSpaceOnUse" color-interpolation-filters="sRGB">
<feFlood flood-opacity="0" result="BackgroundImageFix"/>
<feBlend mode="normal" in="SourceGraphic" in2="BackgroundImageFix" result="shape"/>
<feGaussianBlur stdDeviation="1" result="effect1_foregroundBlur_1328_21317"/>
</filter>
<filter id="filter11_f_1328_21317" x="31.2754" y="35.9766" width="10.0488" height="10.0488" filterUnits="userSpaceOnUse" color-interpolation-filters="sRGB">
<feFlood flood-opacity="0" result="BackgroundImageFix"/>
<feBlend mode="normal" in="SourceGraphic" in2="BackgroundImageFix" result="shape"/>
<feGaussianBlur stdDeviation="1" result="effect1_foregroundBlur_1328_21317"/>
</filter>
<linearGradient id="paint0_linear_1328_21317" x1="4.84653" y1="1.55933" x2="16.2301" y2="19.4422" gradientUnits="userSpaceOnUse">
<stop offset="0.10546" stop-color="white"/>
<stop offset="1" stop-color="white" stop-opacity="0"/>
</linearGradient>
<linearGradient id="paint1_linear_1328_21317" x1="28.4321" y1="14.4453" x2="28.4321" y2="26.4876" gradientUnits="userSpaceOnUse">
<stop stop-color="white" stop-opacity="0.36"/>
<stop offset="0.65625" stop-color="white" stop-opacity="0"/>
</linearGradient>
<linearGradient id="paint2_linear_1328_21317" x1="4.08774" y1="0" x2="4.08774" y2="3.67833" gradientUnits="userSpaceOnUse">
<stop stop-color="white" stop-opacity="0.36"/>
<stop offset="0.65625" stop-color="white" stop-opacity="0"/>
</linearGradient>
<linearGradient id="paint3_linear_1328_21317" x1="9.90897" y1="0" x2="9.90897" y2="20.042" gradientUnits="userSpaceOnUse">
<stop stop-color="white" stop-opacity="0.74"/>
<stop offset="0.317708" stop-color="white" stop-opacity="0"/>
</linearGradient>
<linearGradient id="paint4_linear_1328_21317" x1="20.8982" y1="31.9883" x2="34.6951" y2="18.1909" gradientUnits="userSpaceOnUse">
<stop stop-color="#5599FF" stop-opacity="0.64"/>
<stop offset="0.620979" stop-color="#9069FF" stop-opacity="0"/>
</linearGradient>
<radialGradient id="paint5_radial_1328_21317" cx="0" cy="0" r="1" gradientUnits="userSpaceOnUse" gradientTransform="translate(28.432 24.4316) rotate(90) scale(10.5644 10.5648)">
<stop offset="0.489583" stop-color="#9585F8" stop-opacity="0"/>
<stop offset="1" stop-color="#89E3FF"/>
</radialGradient>
<linearGradient id="paint6_linear_1328_21317" x1="35.2351" y1="31.3488" x2="27.7133" y2="23.8268" gradientUnits="userSpaceOnUse">
<stop stop-color="white"/>
<stop offset="0.208333" stop-color="white" stop-opacity="0"/>
</linearGradient>
<linearGradient id="paint7_linear_1328_21317" x1="25.0421" y1="15.5834" x2="29.2892" y2="24.1713" gradientUnits="userSpaceOnUse">
<stop stop-color="white"/>
<stop offset="0.208333" stop-color="white" stop-opacity="0"/>
</linearGradient>
<linearGradient id="paint8_linear_1328_21317" x1="2.36794" y1="0.761865" x2="7.92977" y2="9.49914" gradientUnits="userSpaceOnUse">
<stop offset="0.10546" stop-color="white"/>
<stop offset="1" stop-color="white" stop-opacity="0"/>
</linearGradient>
<linearGradient id="paint9_linear_1328_21317" x1="40.9505" y1="24.4375" x2="40.9505" y2="30.3212" gradientUnits="userSpaceOnUse">
<stop stop-color="white" stop-opacity="0.36"/>
<stop offset="0.65625" stop-color="white" stop-opacity="0"/>
</linearGradient>
<linearGradient id="paint10_linear_1328_21317" x1="1.99721" y1="0" x2="1.99721" y2="1.79718" gradientUnits="userSpaceOnUse">
<stop stop-color="white" stop-opacity="0.36"/>
<stop offset="0.65625" stop-color="white" stop-opacity="0"/>
</linearGradient>
<linearGradient id="paint11_linear_1328_21317" x1="4.84137" y1="0" x2="4.84137" y2="9.79219" gradientUnits="userSpaceOnUse">
<stop stop-color="white" stop-opacity="0.74"/>
<stop offset="0.317708" stop-color="white" stop-opacity="0"/>
</linearGradient>
<linearGradient id="paint12_linear_1328_21317" x1="37.2681" y1="33.0084" x2="44.009" y2="26.2673" gradientUnits="userSpaceOnUse">
<stop stop-color="#5599FF" stop-opacity="0.64"/>
<stop offset="0.620979" stop-color="#9069FF" stop-opacity="0"/>
</linearGradient>
<radialGradient id="paint13_radial_1328_21317" cx="0" cy="0" r="1" gradientUnits="userSpaceOnUse" gradientTransform="translate(40.9489 29.3159) rotate(90) scale(5.16162 5.16179)">
<stop offset="0.489583" stop-color="#9585F8" stop-opacity="0"/>
<stop offset="1" stop-color="#89E3FF"/>
</radialGradient>
<linearGradient id="paint14_linear_1328_21317" x1="44.2738" y1="32.6969" x2="40.5987" y2="29.0217" gradientUnits="userSpaceOnUse">
<stop stop-color="white"/>
<stop offset="0.208333" stop-color="white" stop-opacity="0"/>
</linearGradient>
<linearGradient id="paint15_linear_1328_21317" x1="39.2933" y1="24.9937" x2="41.3684" y2="29.1896" gradientUnits="userSpaceOnUse">
<stop stop-color="white"/>
<stop offset="0.208333" stop-color="white" stop-opacity="0"/>
</linearGradient>
<linearGradient id="paint16_linear_1328_21317" x1="3.05941" y1="0.98434" x2="10.2454" y2="12.273" gradientUnits="userSpaceOnUse">
<stop offset="0.10546" stop-color="white"/>
<stop offset="1" stop-color="white" stop-opacity="0"/>
</linearGradient>
<linearGradient id="paint17_linear_1328_21317" x1="37.0992" y1="37.5723" x2="37.0992" y2="45.1741" gradientUnits="userSpaceOnUse">
<stop stop-color="white" stop-opacity="0.36"/>
<stop offset="0.65625" stop-color="white" stop-opacity="0"/>
</linearGradient>
<linearGradient id="paint18_linear_1328_21317" x1="2.58042" y1="0" x2="2.58042" y2="2.32198" gradientUnits="userSpaceOnUse">
<stop stop-color="white" stop-opacity="0.36"/>
<stop offset="0.65625" stop-color="white" stop-opacity="0"/>
</linearGradient>
<linearGradient id="paint19_linear_1328_21317" x1="6.25511" y1="0" x2="6.25511" y2="12.6516" gradientUnits="userSpaceOnUse">
<stop stop-color="white" stop-opacity="0.74"/>
<stop offset="0.317708" stop-color="white" stop-opacity="0"/>
</linearGradient>
<linearGradient id="paint20_linear_1328_21317" x1="32.3424" y1="48.6453" x2="41.0518" y2="39.9356" gradientUnits="userSpaceOnUse">
<stop stop-color="#5599FF" stop-opacity="0.64"/>
<stop offset="0.620979" stop-color="#9069FF" stop-opacity="0"/>
</linearGradient>
<radialGradient id="paint21_radial_1328_21317" cx="0" cy="0" r="1" gradientUnits="userSpaceOnUse" gradientTransform="translate(37.0988 43.8759) rotate(90) scale(6.66888 6.6691)">
<stop offset="0.489583" stop-color="#9585F8" stop-opacity="0"/>
<stop offset="1" stop-color="#89E3FF"/>
</radialGradient>
<linearGradient id="paint22_linear_1328_21317" x1="41.3934" y1="48.2413" x2="36.6452" y2="43.493" gradientUnits="userSpaceOnUse">
<stop stop-color="white"/>
<stop offset="0.208333" stop-color="white" stop-opacity="0"/>
</linearGradient>
<linearGradient id="paint23_linear_1328_21317" x1="34.9587" y1="38.2903" x2="37.6397" y2="43.7115" gradientUnits="userSpaceOnUse">
<stop stop-color="white"/>
<stop offset="0.208333" stop-color="white" stop-opacity="0"/>
</linearGradient>
</defs>
</svg>
