<svg width="63" height="63" viewBox="0 0 63 63" fill="none" xmlns="http://www.w3.org/2000/svg">
<circle cx="31.5" cy="31.5" r="31.5" fill="#5BA1E2"/>
<g filter="url(#filter0_d_1031_21814)">
<ellipse rx="11.804" ry="11.7966" transform="matrix(-0.866297 -0.499529 0.500472 -0.865753 26.1297 23.1094)" fill="url(#paint0_linear_1031_21814)" fill-opacity="0.8" shape-rendering="crispEdges"/>
</g>
<ellipse cx="26.1297" cy="18.6842" rx="8.98321" ry="6.72129" fill="url(#paint1_linear_1031_21814)"/>
<ellipse rx="4.56788" ry="2.05337" transform="matrix(0.928643 -0.370974 0.371779 0.928321 22.7876 14.6354)" fill="url(#paint2_linear_1031_21814)"/>
<ellipse rx="11.0738" ry="11.1871" transform="matrix(-0.966007 0.258516 -0.259123 -0.965844 26.1298 23.1085)" fill="url(#paint3_linear_1031_21814)"/>
<g filter="url(#filter1_f_1031_21814)">
<path fill-rule="evenodd" clip-rule="evenodd" d="M29.6677 19.603C27.322 17.2602 23.5188 17.2602 21.1731 19.603C18.8274 21.9457 18.8274 25.7441 21.1731 28.0868C23.5188 30.4296 27.322 30.4296 29.6677 28.0868C32.0134 25.7441 32.0134 21.9457 29.6677 19.603ZM33.1307 16.1443C28.8724 11.8914 21.9684 11.8914 17.7101 16.1443C13.4518 20.3972 13.4518 27.2926 17.7101 31.5455C21.9684 35.7984 28.8724 35.7984 33.1307 31.5455C37.389 27.2926 37.389 20.3972 33.1307 16.1443Z" fill="url(#paint4_linear_1031_21814)"/>
</g>
<ellipse cx="26.1295" cy="23.1093" rx="11.8077" ry="11.7929" fill="url(#paint5_radial_1031_21814)" fill-opacity="0.2"/>
<g filter="url(#filter2_f_1031_21814)">
<path fill-rule="evenodd" clip-rule="evenodd" d="M27.215 24.3202C25.9362 25.5974 25.9362 27.6682 27.215 28.9454C28.4939 30.2226 30.5673 30.2226 31.8461 28.9454C33.1249 27.6682 33.1249 25.5974 31.8461 24.3202C30.5673 23.043 28.4939 23.043 27.215 24.3202ZM25.3271 22.4346C23.0056 24.7532 23.0056 28.5124 25.3271 30.831C27.6486 33.1496 31.4125 33.1496 33.734 30.831C36.0555 28.5124 36.0555 24.7532 33.734 22.4346C31.4125 20.116 27.6486 20.116 25.3271 22.4346Z" fill="url(#paint6_linear_1031_21814)"/>
</g>
<g filter="url(#filter3_f_1031_21814)">
<path fill-rule="evenodd" clip-rule="evenodd" d="M26.0217 20.6665C27.4818 19.9453 28.08 18.1786 27.3579 16.7203C26.6358 15.2621 24.8668 14.6646 23.4068 15.3858C21.9467 16.107 21.3485 17.8738 22.0706 19.332C22.7927 20.7902 24.5617 21.3877 26.0217 20.6665ZM27.0878 22.8194C29.7383 21.5101 30.8243 18.3028 29.5135 15.6556C28.2026 13.0084 24.9913 11.9238 22.3407 13.233C19.6902 14.5422 18.6042 17.7495 19.915 20.3967C21.2259 23.0439 24.4372 24.1286 27.0878 22.8194Z" fill="url(#paint7_linear_1031_21814)"/>
</g>
<g filter="url(#filter4_d_1031_21814)">
<ellipse rx="5.76724" ry="5.76362" transform="matrix(-0.866297 -0.499529 0.500472 -0.865753 40.1193 28.5628)" fill="url(#paint8_linear_1031_21814)" fill-opacity="0.8" shape-rendering="crispEdges"/>
</g>
<ellipse cx="40.1195" cy="26.4011" rx="4.38906" ry="3.28392" fill="url(#paint9_linear_1031_21814)"/>
<ellipse rx="2.2318" ry="1.00324" transform="matrix(0.928643 -0.370974 0.371779 0.928321 38.4865 24.4218)" fill="url(#paint10_linear_1031_21814)"/>
<ellipse rx="5.4105" ry="5.46586" transform="matrix(-0.966007 0.258516 -0.259123 -0.965844 40.1193 28.5629)" fill="url(#paint11_linear_1031_21814)"/>
<g filter="url(#filter5_f_1031_21814)">
<path fill-rule="evenodd" clip-rule="evenodd" d="M41.8481 26.848C40.702 25.7033 38.8439 25.7033 37.6978 26.848C36.5517 27.9926 36.5517 29.8484 37.6978 30.9931C38.8439 32.1377 40.702 32.1377 41.8481 30.9931C42.9942 29.8484 42.9942 27.9926 41.8481 26.848ZM43.5401 25.1581C41.4595 23.0802 38.0863 23.0802 36.0058 25.1581C33.9253 27.236 33.9253 30.605 36.0058 32.6829C38.0863 34.7608 41.4595 34.7608 43.5401 32.6829C45.6206 30.605 45.6206 27.236 43.5401 25.1581Z" fill="url(#paint12_linear_1031_21814)"/>
</g>
<ellipse cx="40.1196" cy="28.5626" rx="5.76906" ry="5.76181" fill="url(#paint13_radial_1031_21814)" fill-opacity="0.2"/>
<g filter="url(#filter6_f_1031_21814)">
<path fill-rule="evenodd" clip-rule="evenodd" d="M40.6498 29.1533C40.025 29.7773 40.025 30.7891 40.6498 31.4131C41.2747 32.0371 42.2877 32.0371 42.9125 31.4131C43.5373 30.7891 43.5373 29.7773 42.9125 29.1533C42.2877 28.5293 41.2747 28.5293 40.6498 29.1533ZM39.7274 28.232C38.5932 29.3649 38.5932 31.2015 39.7274 32.3344C40.8617 33.4672 42.7007 33.4672 43.8349 32.3344C44.9692 31.2015 44.9692 29.3649 43.8349 28.232C42.7007 27.0992 40.8617 27.0992 39.7274 28.232Z" fill="url(#paint14_linear_1031_21814)"/>
</g>
<g filter="url(#filter7_f_1031_21814)">
<path fill-rule="evenodd" clip-rule="evenodd" d="M40.0666 27.3682C40.78 27.0159 41.0723 26.1527 40.7195 25.4402C40.3667 24.7277 39.5024 24.4358 38.789 24.7882C38.0757 25.1405 37.7834 26.0037 38.1362 26.7162C38.489 27.4287 39.3533 27.7206 40.0666 27.3682ZM40.5875 28.4201C41.8825 27.7804 42.4131 26.2134 41.7727 24.92C41.1322 23.6266 39.5632 23.0967 38.2682 23.7363C36.9732 24.376 36.4425 25.943 37.083 27.2364C37.7235 28.5298 39.2925 29.0597 40.5875 28.4201Z" fill="url(#paint15_linear_1031_21814)"/>
</g>
<g filter="url(#filter8_d_1031_21814)">
<ellipse rx="7.45136" ry="7.44667" transform="matrix(-0.866297 -0.499529 0.500472 -0.865753 35.8157 44.8133)" fill="url(#paint16_linear_1031_21814)" fill-opacity="0.8" shape-rendering="crispEdges"/>
</g>
<ellipse cx="35.8157" cy="42.0202" rx="5.67072" ry="4.24287" fill="url(#paint17_linear_1031_21814)"/>
<ellipse rx="2.88351" ry="1.29621" transform="matrix(0.928643 -0.370974 0.371779 0.928321 33.706 39.4656)" fill="url(#paint18_linear_1031_21814)"/>
<ellipse rx="6.99044" ry="7.06196" transform="matrix(-0.966007 0.258516 -0.259123 -0.965844 35.8157 44.8145)" fill="url(#paint19_linear_1031_21814)"/>
<g filter="url(#filter9_f_1031_21814)">
<path fill-rule="evenodd" clip-rule="evenodd" d="M38.0493 42.6001C36.5685 41.1212 34.1678 41.1212 32.687 42.6001C31.2063 44.079 31.2063 46.4767 32.687 47.9556C34.1678 49.4345 36.5685 49.4345 38.0493 47.9556C39.53 46.4767 39.53 44.079 38.0493 42.6001ZM40.2353 40.4168C37.5473 37.7321 33.1891 37.7321 30.501 40.4168C27.8129 43.1015 27.8129 47.4542 30.501 50.1389C33.1891 52.8236 37.5473 52.8236 40.2353 50.1389C42.9234 47.4542 42.9234 43.1015 40.2353 40.4168Z" fill="url(#paint20_linear_1031_21814)"/>
</g>
<ellipse cx="35.8155" cy="44.8135" rx="7.4537" ry="7.44433" fill="url(#paint21_radial_1031_21814)" fill-opacity="0.2"/>
<g filter="url(#filter10_f_1031_21814)">
<path fill-rule="evenodd" clip-rule="evenodd" d="M36.5009 45.5773C35.6936 46.3835 35.6936 47.6907 36.5009 48.497C37.3082 49.3032 38.617 49.3032 39.4243 48.497C40.2315 47.6907 40.2315 46.3835 39.4243 45.5773C38.617 44.771 37.3082 44.771 36.5009 45.5773ZM35.3091 44.387C33.8436 45.8506 33.8436 48.2236 35.3091 49.6872C36.7746 51.1509 39.1506 51.1509 40.6161 49.6872C42.0815 48.2236 42.0815 45.8506 40.6161 44.387C39.1506 42.9233 36.7746 42.9233 35.3091 44.387Z" fill="url(#paint22_linear_1031_21814)"/>
</g>
<g filter="url(#filter11_f_1031_21814)">
<path fill-rule="evenodd" clip-rule="evenodd" d="M35.7477 43.2722C36.6694 42.817 37.0471 41.7017 36.5912 40.7812C36.1354 39.8606 35.0187 39.4835 34.097 39.9387C33.1753 40.394 32.7977 41.5093 33.2535 42.4298C33.7094 43.3503 34.8261 43.7275 35.7477 43.2722ZM36.4207 44.6312C38.0939 43.8048 38.7794 41.7801 37.9519 40.1091C37.1244 38.438 35.0972 37.7533 33.4241 38.5797C31.7509 39.4062 31.0653 41.4308 31.8928 43.1019C32.7203 44.773 34.7475 45.4577 36.4207 44.6312Z" fill="url(#paint23_linear_1031_21814)"/>
</g>
<defs>
<filter id="filter0_d_1031_21814" x="11.3203" y="11.3145" width="29.6191" height="29.5898" filterUnits="userSpaceOnUse" color-interpolation-filters="sRGB">
<feFlood flood-opacity="0" result="BackgroundImageFix"/>
<feColorMatrix in="SourceAlpha" type="matrix" values="0 0 0 0 0 0 0 0 0 0 0 0 0 0 0 0 0 0 127 0" result="hardAlpha"/>
<feOffset dy="3"/>
<feGaussianBlur stdDeviation="1.5"/>
<feComposite in2="hardAlpha" operator="out"/>
<feColorMatrix type="matrix" values="0 0 0 0 0 0 0 0 0 0 0 0 0 0 0 0 0 0 0.25 0"/>
<feBlend mode="normal" in2="BackgroundImageFix" result="effect1_dropShadow_1031_21814"/>
<feBlend mode="normal" in="SourceGraphic" in2="effect1_dropShadow_1031_21814" result="shape"/>
</filter>
<filter id="filter1_f_1031_21814" x="10.5166" y="8.95508" width="29.8076" height="29.7793" filterUnits="userSpaceOnUse" color-interpolation-filters="sRGB">
<feFlood flood-opacity="0" result="BackgroundImageFix"/>
<feBlend mode="normal" in="SourceGraphic" in2="BackgroundImageFix" result="shape"/>
<feGaussianBlur stdDeviation="2" result="effect1_foregroundBlur_1031_21814"/>
</filter>
<filter id="filter2_f_1031_21814" x="21.5859" y="18.6953" width="15.8892" height="15.875" filterUnits="userSpaceOnUse" color-interpolation-filters="sRGB">
<feFlood flood-opacity="0" result="BackgroundImageFix"/>
<feBlend mode="normal" in="SourceGraphic" in2="BackgroundImageFix" result="shape"/>
<feGaussianBlur stdDeviation="1" result="effect1_foregroundBlur_1031_21814"/>
</filter>
<filter id="filter3_f_1031_21814" x="17.3589" y="10.6777" width="14.7104" height="14.6973" filterUnits="userSpaceOnUse" color-interpolation-filters="sRGB">
<feFlood flood-opacity="0" result="BackgroundImageFix"/>
<feBlend mode="normal" in="SourceGraphic" in2="BackgroundImageFix" result="shape"/>
<feGaussianBlur stdDeviation="1" result="effect1_foregroundBlur_1031_21814"/>
</filter>
<filter id="filter4_d_1031_21814" x="31.3491" y="22.8008" width="17.54" height="17.5254" filterUnits="userSpaceOnUse" color-interpolation-filters="sRGB">
<feFlood flood-opacity="0" result="BackgroundImageFix"/>
<feColorMatrix in="SourceAlpha" type="matrix" values="0 0 0 0 0 0 0 0 0 0 0 0 0 0 0 0 0 0 127 0" result="hardAlpha"/>
<feOffset dy="3"/>
<feGaussianBlur stdDeviation="1.5"/>
<feComposite in2="hardAlpha" operator="out"/>
<feColorMatrix type="matrix" values="0 0 0 0 0 0 0 0 0 0 0 0 0 0 0 0 0 0 0.25 0"/>
<feBlend mode="normal" in2="BackgroundImageFix" result="effect1_dropShadow_1031_21814"/>
<feBlend mode="normal" in="SourceGraphic" in2="effect1_dropShadow_1031_21814" result="shape"/>
</filter>
<filter id="filter5_f_1031_21814" x="30.4453" y="19.5996" width="18.6553" height="18.6426" filterUnits="userSpaceOnUse" color-interpolation-filters="sRGB">
<feFlood flood-opacity="0" result="BackgroundImageFix"/>
<feBlend mode="normal" in="SourceGraphic" in2="BackgroundImageFix" result="shape"/>
<feGaussianBlur stdDeviation="2" result="effect1_foregroundBlur_1031_21814"/>
</filter>
<filter id="filter6_f_1031_21814" x="36.877" y="25.3828" width="9.80859" height="9.80078" filterUnits="userSpaceOnUse" color-interpolation-filters="sRGB">
<feFlood flood-opacity="0" result="BackgroundImageFix"/>
<feBlend mode="normal" in="SourceGraphic" in2="BackgroundImageFix" result="shape"/>
<feGaussianBlur stdDeviation="1" result="effect1_foregroundBlur_1031_21814"/>
</filter>
<filter id="filter7_f_1031_21814" x="34.8115" y="21.4648" width="9.23291" height="9.22656" filterUnits="userSpaceOnUse" color-interpolation-filters="sRGB">
<feFlood flood-opacity="0" result="BackgroundImageFix"/>
<feBlend mode="normal" in="SourceGraphic" in2="BackgroundImageFix" result="shape"/>
<feGaussianBlur stdDeviation="1" result="effect1_foregroundBlur_1031_21814"/>
</filter>
<filter id="filter8_d_1031_21814" x="25.3608" y="37.3672" width="20.9097" height="20.8926" filterUnits="userSpaceOnUse" color-interpolation-filters="sRGB">
<feFlood flood-opacity="0" result="BackgroundImageFix"/>
<feColorMatrix in="SourceAlpha" type="matrix" values="0 0 0 0 0 0 0 0 0 0 0 0 0 0 0 0 0 0 127 0" result="hardAlpha"/>
<feOffset dy="3"/>
<feGaussianBlur stdDeviation="1.5"/>
<feComposite in2="hardAlpha" operator="out"/>
<feColorMatrix type="matrix" values="0 0 0 0 0 0 0 0 0 0 0 0 0 0 0 0 0 0 0.25 0"/>
<feBlend mode="normal" in2="BackgroundImageFix" result="effect1_dropShadow_1031_21814"/>
<feBlend mode="normal" in="SourceGraphic" in2="effect1_dropShadow_1031_21814" result="shape"/>
</filter>
<filter id="filter9_f_1031_21814" x="24.4849" y="34.4023" width="21.7666" height="21.75" filterUnits="userSpaceOnUse" color-interpolation-filters="sRGB">
<feFlood flood-opacity="0" result="BackgroundImageFix"/>
<feBlend mode="normal" in="SourceGraphic" in2="BackgroundImageFix" result="shape"/>
<feGaussianBlur stdDeviation="2" result="effect1_foregroundBlur_1031_21814"/>
</filter>
<filter id="filter10_f_1031_21814" x="32.21" y="41.2891" width="11.5054" height="11.4961" filterUnits="userSpaceOnUse" color-interpolation-filters="sRGB">
<feFlood flood-opacity="0" result="BackgroundImageFix"/>
<feBlend mode="normal" in="SourceGraphic" in2="BackgroundImageFix" result="shape"/>
<feGaussianBlur stdDeviation="1" result="effect1_foregroundBlur_1031_21814"/>
</filter>
<filter id="filter11_f_1031_21814" x="29.542" y="36.2285" width="10.7607" height="10.7539" filterUnits="userSpaceOnUse" color-interpolation-filters="sRGB">
<feFlood flood-opacity="0" result="BackgroundImageFix"/>
<feBlend mode="normal" in="SourceGraphic" in2="BackgroundImageFix" result="shape"/>
<feGaussianBlur stdDeviation="1" result="effect1_foregroundBlur_1031_21814"/>
</filter>
<linearGradient id="paint0_linear_1031_21814" x1="5.41506" y1="1.74118" x2="18.1229" y2="21.7166" gradientUnits="userSpaceOnUse">
<stop offset="0.10546" stop-color="white"/>
<stop offset="1" stop-color="white" stop-opacity="0"/>
</linearGradient>
<linearGradient id="paint1_linear_1031_21814" x1="26.1297" y1="11.9629" x2="26.1297" y2="25.4055" gradientUnits="userSpaceOnUse">
<stop stop-color="white" stop-opacity="0.36"/>
<stop offset="0.65625" stop-color="white" stop-opacity="0"/>
</linearGradient>
<linearGradient id="paint2_linear_1031_21814" x1="4.56788" y1="0" x2="4.56788" y2="4.10674" gradientUnits="userSpaceOnUse">
<stop stop-color="white" stop-opacity="0.36"/>
<stop offset="0.65625" stop-color="white" stop-opacity="0"/>
</linearGradient>
<linearGradient id="paint3_linear_1031_21814" x1="11.0738" y1="0" x2="11.0738" y2="22.3742" gradientUnits="userSpaceOnUse">
<stop stop-color="white" stop-opacity="0.74"/>
<stop offset="0.317708" stop-color="white" stop-opacity="0"/>
</linearGradient>
<linearGradient id="paint4_linear_1031_21814" x1="17.7101" y1="31.5455" x2="33.1113" y2="16.1249" gradientUnits="userSpaceOnUse">
<stop stop-color="#5599FF" stop-opacity="0.64"/>
<stop offset="0.620979" stop-color="#9069FF" stop-opacity="0"/>
</linearGradient>
<radialGradient id="paint5_radial_1031_21814" cx="0" cy="0" r="1" gradientUnits="userSpaceOnUse" gradientTransform="translate(26.1295 23.1093) rotate(90) scale(11.7929 11.8077)">
<stop offset="0.489583" stop-color="#9585F8" stop-opacity="0"/>
<stop offset="1" stop-color="#89E3FF"/>
</radialGradient>
<linearGradient id="paint6_linear_1031_21814" x1="33.734" y1="30.831" x2="25.3377" y2="22.4241" gradientUnits="userSpaceOnUse">
<stop stop-color="white"/>
<stop offset="0.208333" stop-color="white" stop-opacity="0"/>
</linearGradient>
<linearGradient id="paint7_linear_1031_21814" x1="22.3407" y1="13.233" x2="27.0782" y2="22.8241" gradientUnits="userSpaceOnUse">
<stop stop-color="white"/>
<stop offset="0.208333" stop-color="white" stop-opacity="0"/>
</linearGradient>
<linearGradient id="paint8_linear_1031_21814" x1="2.64571" y1="0.850714" x2="8.85456" y2="10.6104" gradientUnits="userSpaceOnUse">
<stop offset="0.10546" stop-color="white"/>
<stop offset="1" stop-color="white" stop-opacity="0"/>
</linearGradient>
<linearGradient id="paint9_linear_1031_21814" x1="40.1195" y1="23.1172" x2="40.1195" y2="29.685" gradientUnits="userSpaceOnUse">
<stop stop-color="white" stop-opacity="0.36"/>
<stop offset="0.65625" stop-color="white" stop-opacity="0"/>
</linearGradient>
<linearGradient id="paint10_linear_1031_21814" x1="2.2318" y1="0" x2="2.2318" y2="2.00649" gradientUnits="userSpaceOnUse">
<stop stop-color="white" stop-opacity="0.36"/>
<stop offset="0.65625" stop-color="white" stop-opacity="0"/>
</linearGradient>
<linearGradient id="paint11_linear_1031_21814" x1="5.4105" y1="0" x2="5.4105" y2="10.9317" gradientUnits="userSpaceOnUse">
<stop stop-color="white" stop-opacity="0.74"/>
<stop offset="0.317708" stop-color="white" stop-opacity="0"/>
</linearGradient>
<linearGradient id="paint12_linear_1031_21814" x1="36.0058" y1="32.6829" x2="43.5306" y2="25.1487" gradientUnits="userSpaceOnUse">
<stop stop-color="#5599FF" stop-opacity="0.64"/>
<stop offset="0.620979" stop-color="#9069FF" stop-opacity="0"/>
</linearGradient>
<radialGradient id="paint13_radial_1031_21814" cx="0" cy="0" r="1" gradientUnits="userSpaceOnUse" gradientTransform="translate(40.1196 28.5626) rotate(90) scale(5.76181 5.76906)">
<stop offset="0.489583" stop-color="#9585F8" stop-opacity="0"/>
<stop offset="1" stop-color="#89E3FF"/>
</radialGradient>
<linearGradient id="paint14_linear_1031_21814" x1="43.8349" y1="32.3344" x2="39.7326" y2="28.2269" gradientUnits="userSpaceOnUse">
<stop stop-color="white"/>
<stop offset="0.208333" stop-color="white" stop-opacity="0"/>
</linearGradient>
<linearGradient id="paint15_linear_1031_21814" x1="38.2682" y1="23.7363" x2="40.5828" y2="28.4224" gradientUnits="userSpaceOnUse">
<stop stop-color="white"/>
<stop offset="0.208333" stop-color="white" stop-opacity="0"/>
</linearGradient>
<linearGradient id="paint16_linear_1031_21814" x1="3.4183" y1="1.09913" x2="11.4402" y2="13.7088" gradientUnits="userSpaceOnUse">
<stop offset="0.10546" stop-color="white"/>
<stop offset="1" stop-color="white" stop-opacity="0"/>
</linearGradient>
<linearGradient id="paint17_linear_1031_21814" x1="35.8157" y1="37.7773" x2="35.8157" y2="46.2631" gradientUnits="userSpaceOnUse">
<stop stop-color="white" stop-opacity="0.36"/>
<stop offset="0.65625" stop-color="white" stop-opacity="0"/>
</linearGradient>
<linearGradient id="paint18_linear_1031_21814" x1="2.88351" y1="0" x2="2.88351" y2="2.59241" gradientUnits="userSpaceOnUse">
<stop stop-color="white" stop-opacity="0.36"/>
<stop offset="0.65625" stop-color="white" stop-opacity="0"/>
</linearGradient>
<linearGradient id="paint19_linear_1031_21814" x1="6.99044" y1="0" x2="6.99044" y2="14.1239" gradientUnits="userSpaceOnUse">
<stop stop-color="white" stop-opacity="0.74"/>
<stop offset="0.317708" stop-color="white" stop-opacity="0"/>
</linearGradient>
<linearGradient id="paint20_linear_1031_21814" x1="30.501" y1="50.1389" x2="40.2231" y2="40.4046" gradientUnits="userSpaceOnUse">
<stop stop-color="#5599FF" stop-opacity="0.64"/>
<stop offset="0.620979" stop-color="#9069FF" stop-opacity="0"/>
</linearGradient>
<radialGradient id="paint21_radial_1031_21814" cx="0" cy="0" r="1" gradientUnits="userSpaceOnUse" gradientTransform="translate(35.8155 44.8135) rotate(90) scale(7.44433 7.4537)">
<stop offset="0.489583" stop-color="#9585F8" stop-opacity="0"/>
<stop offset="1" stop-color="#89E3FF"/>
</radialGradient>
<linearGradient id="paint22_linear_1031_21814" x1="40.6161" y1="49.6872" x2="35.3158" y2="44.3803" gradientUnits="userSpaceOnUse">
<stop stop-color="white"/>
<stop offset="0.208333" stop-color="white" stop-opacity="0"/>
</linearGradient>
<linearGradient id="paint23_linear_1031_21814" x1="33.4241" y1="38.5797" x2="36.4146" y2="44.6342" gradientUnits="userSpaceOnUse">
<stop stop-color="white"/>
<stop offset="0.208333" stop-color="white" stop-opacity="0"/>
</linearGradient>
</defs>
</svg>
