<svg width="50" height="59" viewBox="0 0 50 59" fill="none" xmlns="http://www.w3.org/2000/svg">
<path fill-rule="evenodd" clip-rule="evenodd" d="M30.4174 48.6499C41.2623 46.0576 49.3249 36.3016 49.3249 24.6625C49.3249 11.0418 38.2832 0 24.6625 0C11.0418 0 0 11.0418 0 24.6625C0 36.3016 8.06275 46.0577 18.9077 48.6499L24.6625 58.6176L30.4174 48.6499Z" fill="#9FD7FF"/>
<g filter="url(#filter0_d_2_3)">
<ellipse rx="8.27147" ry="8.27134" transform="matrix(-0.866032 -0.499988 0.500012 -0.866018 22.2603 19.1281)" fill="url(#paint0_linear_2_3)" fill-opacity="0.8" shape-rendering="crispEdges"/>
</g>
<ellipse cx="22.2603" cy="16.0245" rx="6.29293" ry="4.71417" fill="url(#paint1_linear_2_3)"/>
<ellipse rx="3.20044" ry="1.43995" transform="matrix(0.928486 -0.371366 0.371387 0.928478 19.9192 13.185)" fill="url(#paint2_linear_2_3)"/>
<ellipse rx="7.75808" ry="7.84578" transform="matrix(-0.965928 0.258811 -0.258827 -0.965924 22.2603 19.1281)" fill="url(#paint3_linear_2_3)"/>
<g filter="url(#filter1_f_2_3)">
<path fill-rule="evenodd" clip-rule="evenodd" d="M24.7389 16.6686C23.0957 15.0254 20.4315 15.0254 18.7883 16.6686C17.1451 18.3118 17.1451 20.9759 18.7883 22.619C20.4315 24.2622 23.0957 24.2622 24.7389 22.619C26.3821 20.9759 26.3821 18.3118 24.7389 16.6686ZM27.1648 14.2428C24.1818 11.2599 19.3454 11.2599 16.3624 14.2428C13.3793 17.2257 13.3793 22.062 16.3624 25.0449C19.3454 28.0278 24.1818 28.0278 27.1648 25.0449C30.1478 22.062 30.1478 17.2257 27.1648 14.2428Z" fill="url(#paint4_linear_2_3)"/>
</g>
<ellipse cx="22.2603" cy="19.1281" rx="8.27154" ry="8.27127" fill="url(#paint5_radial_2_3)" fill-opacity="0.2"/>
<g filter="url(#filter2_f_2_3)">
<path fill-rule="evenodd" clip-rule="evenodd" d="M23.0205 19.9776C22.1247 20.8734 22.1247 22.3258 23.0205 23.2216C23.9164 24.1174 25.3688 24.1174 26.2647 23.2216C27.1605 22.3258 27.1605 20.8734 26.2647 19.9776C25.3688 19.0818 23.9164 19.0818 23.0205 19.9776ZM21.698 18.6551C20.0717 20.2813 20.0717 22.9179 21.698 24.5441C23.3243 26.1703 25.961 26.1703 27.5872 24.5441C29.2135 22.9179 29.2135 20.2813 27.5872 18.6551C25.961 17.0288 23.3243 17.0288 21.698 18.6551Z" fill="url(#paint6_linear_2_3)"/>
</g>
<g filter="url(#filter3_f_2_3)">
<path fill-rule="evenodd" clip-rule="evenodd" d="M22.1847 17.4149C23.2075 16.909 23.6266 15.6699 23.1207 14.6471C22.6149 13.6243 21.3756 13.2052 20.3528 13.7111C19.33 14.2169 18.9109 15.4561 19.4168 16.4789C19.9226 17.5016 21.1618 17.9207 22.1847 17.4149ZM22.9314 18.9248C24.7882 18.0066 25.549 15.757 24.6307 13.9003C23.7124 12.0436 21.4628 11.2829 19.606 12.2011C17.7493 13.1194 16.9885 15.3689 17.9068 17.2256C18.8251 19.0823 21.0747 19.8431 22.9314 18.9248Z" fill="url(#paint7_linear_2_3)"/>
</g>
<g filter="url(#filter4_d_2_3)">
<ellipse rx="4.04131" ry="4.04125" transform="matrix(-0.866032 -0.499988 0.500012 -0.866018 32.0604 22.9528)" fill="url(#paint8_linear_2_3)" fill-opacity="0.8" shape-rendering="crispEdges"/>
</g>
<ellipse cx="32.0604" cy="21.4364" rx="3.07463" ry="2.30327" fill="url(#paint9_linear_2_3)"/>
<ellipse rx="1.56369" ry="0.703536" transform="matrix(0.928486 -0.371366 0.371387 0.928478 30.9165 20.0491)" fill="url(#paint10_linear_2_3)"/>
<ellipse rx="3.79048" ry="3.83332" transform="matrix(-0.965928 0.258811 -0.258827 -0.965924 32.0604 22.9528)" fill="url(#paint11_linear_2_3)"/>
<g filter="url(#filter5_f_2_3)">
<path fill-rule="evenodd" clip-rule="evenodd" d="M33.2714 21.7511C32.4685 20.9483 31.1668 20.9483 30.364 21.7511C29.5611 22.5539 29.5611 23.8556 30.364 24.6584C31.1668 25.4612 32.4685 25.4612 33.2714 24.6584C34.0742 23.8556 34.0742 22.5539 33.2714 21.7511ZM34.4566 20.5659C32.9992 19.1085 30.6362 19.1085 29.1787 20.5659C27.7213 22.0233 27.7213 24.3862 29.1787 25.8436C30.6362 27.301 32.9992 27.301 34.4566 25.8436C35.9141 24.3862 35.9141 22.0233 34.4566 20.5659Z" fill="url(#paint12_linear_2_3)"/>
</g>
<ellipse cx="32.0604" cy="22.9527" rx="4.04135" ry="4.04121" fill="url(#paint13_radial_2_3)" fill-opacity="0.2"/>
<g filter="url(#filter6_f_2_3)">
<path fill-rule="evenodd" clip-rule="evenodd" d="M32.4318 23.3678C31.9941 23.8054 31.9941 24.5151 32.4318 24.9527C32.8695 25.3904 33.5791 25.3904 34.0168 24.9527C34.4545 24.5151 34.4545 23.8054 34.0168 23.3678C33.5791 22.9301 32.8695 22.9301 32.4318 23.3678ZM31.7856 22.7216C30.9911 23.5162 30.9911 24.8044 31.7856 25.5989C32.5802 26.3934 33.8684 26.3934 34.663 25.5989C35.4576 24.8044 35.4576 23.5162 34.663 22.7216C33.8684 21.9271 32.5802 21.9271 31.7856 22.7216Z" fill="url(#paint14_linear_2_3)"/>
</g>
<g filter="url(#filter7_f_2_3)">
<path fill-rule="evenodd" clip-rule="evenodd" d="M32.0234 22.1157C32.5231 21.8686 32.7279 21.2631 32.4808 20.7634C32.2336 20.2637 31.6281 20.059 31.1284 20.3061C30.6287 20.5533 30.4239 21.1587 30.6711 21.6584C30.9182 22.1581 31.5237 22.3629 32.0234 22.1157ZM32.3883 22.8535C33.2955 22.4048 33.6672 21.3057 33.2185 20.3986C32.7699 19.4914 31.6707 19.1197 30.7635 19.5684C29.8564 20.017 29.4847 21.1161 29.9333 22.0233C30.382 22.9304 31.4811 23.3021 32.3883 22.8535Z" fill="url(#paint15_linear_2_3)"/>
</g>
<g filter="url(#filter8_d_2_3)">
<ellipse rx="5.22143" ry="5.22135" transform="matrix(-0.866032 -0.499988 0.500012 -0.866018 29.0457 34.3511)" fill="url(#paint16_linear_2_3)" fill-opacity="0.8" shape-rendering="crispEdges"/>
</g>
<ellipse cx="29.0457" cy="32.392" rx="3.97246" ry="2.97586" fill="url(#paint17_linear_2_3)"/>
<ellipse rx="2.0203" ry="0.908978" transform="matrix(0.928486 -0.371366 0.371387 0.928478 27.5679 30.5995)" fill="url(#paint18_linear_2_3)"/>
<ellipse rx="4.89735" ry="4.95271" transform="matrix(-0.965928 0.258811 -0.258827 -0.965924 29.0457 34.3511)" fill="url(#paint19_linear_2_3)"/>
<g filter="url(#filter9_f_2_3)">
<path fill-rule="evenodd" clip-rule="evenodd" d="M30.6104 32.7985C29.5731 31.7613 27.8913 31.7613 26.854 32.7985C25.8167 33.8358 25.8167 35.5175 26.854 36.5548C27.8913 37.592 29.5731 37.592 30.6104 36.5548C31.6477 35.5175 31.6477 33.8358 30.6104 32.7985ZM32.1417 31.2672C30.2587 29.3842 27.2057 29.3842 25.3226 31.2672C23.4396 33.1502 23.4396 36.2031 25.3226 38.0861C27.2057 39.9691 30.2587 39.9691 32.1417 38.0861C34.0248 36.2031 34.0248 33.1502 32.1417 31.2672Z" fill="url(#paint20_linear_2_3)"/>
</g>
<ellipse cx="29.0457" cy="34.3511" rx="5.22147" ry="5.2213" fill="url(#paint21_radial_2_3)" fill-opacity="0.2"/>
<g filter="url(#filter10_f_2_3)">
<path fill-rule="evenodd" clip-rule="evenodd" d="M29.5256 34.8873C28.9601 35.4528 28.9601 36.3697 29.5256 36.9351C30.0911 37.5006 31.008 37.5006 31.5735 36.9351C32.139 36.3697 32.139 35.4528 31.5735 34.8873C31.008 34.3218 30.0911 34.3218 29.5256 34.8873ZM28.6908 34.0525C27.6642 35.079 27.6642 36.7434 28.6908 37.77C29.7174 38.7965 31.3818 38.7965 32.4084 37.77C33.435 36.7434 33.435 35.079 32.4084 34.0525C31.3818 33.0259 29.7174 33.0259 28.6908 34.0525Z" fill="url(#paint22_linear_2_3)"/>
</g>
<g filter="url(#filter11_f_2_3)">
<path fill-rule="evenodd" clip-rule="evenodd" d="M28.998 33.2696C29.6437 32.9503 29.9082 32.1681 29.5889 31.5224C29.2696 30.8768 28.4873 30.6123 27.8416 30.9316C27.196 31.2509 26.9314 32.0331 27.2507 32.6788C27.5701 33.3244 28.3523 33.5889 28.998 33.2696ZM29.4694 34.2228C30.6415 33.6431 31.1218 32.2231 30.5421 31.051C29.9624 29.879 28.5423 29.3987 27.3702 29.9784C26.1981 30.5581 25.7179 31.9781 26.2976 33.1502C26.8772 34.3222 28.2973 34.8024 29.4694 34.2228Z" fill="url(#paint23_linear_2_3)"/>
</g>
<defs>
<filter id="filter0_d_2_3" x="11.6386" y="10.8554" width="21.2435" height="21.2429" filterUnits="userSpaceOnUse" color-interpolation-filters="sRGB">
<feFlood flood-opacity="0" result="BackgroundImageFix"/>
<feColorMatrix in="SourceAlpha" type="matrix" values="0 0 0 0 0 0 0 0 0 0 0 0 0 0 0 0 0 0 127 0" result="hardAlpha"/>
<feOffset dy="2.34881"/>
<feGaussianBlur stdDeviation="1.1744"/>
<feComposite in2="hardAlpha" operator="out"/>
<feColorMatrix type="matrix" values="0 0 0 0 0 0 0 0 0 0 0 0 0 0 0 0 0 0 0.25 0"/>
<feBlend mode="normal" in2="BackgroundImageFix" result="effect1_dropShadow_2_3"/>
<feBlend mode="normal" in="SourceGraphic" in2="effect1_dropShadow_2_3" result="shape"/>
</filter>
<filter id="filter1_f_2_3" x="10.9933" y="8.87385" width="21.5405" height="21.5399" filterUnits="userSpaceOnUse" color-interpolation-filters="sRGB">
<feFlood flood-opacity="0" result="BackgroundImageFix"/>
<feBlend mode="normal" in="SourceGraphic" in2="BackgroundImageFix" result="shape"/>
<feGaussianBlur stdDeviation="1.56587" result="effect1_foregroundBlur_2_3"/>
</filter>
<filter id="filter2_f_2_3" x="18.9124" y="15.8695" width="11.4604" height="11.4601" filterUnits="userSpaceOnUse" color-interpolation-filters="sRGB">
<feFlood flood-opacity="0" result="BackgroundImageFix"/>
<feBlend mode="normal" in="SourceGraphic" in2="BackgroundImageFix" result="shape"/>
<feGaussianBlur stdDeviation="0.782935" result="effect1_foregroundBlur_2_3"/>
</filter>
<filter id="filter3_f_2_3" x="15.9514" y="10.2457" width="10.6347" height="10.6345" filterUnits="userSpaceOnUse" color-interpolation-filters="sRGB">
<feFlood flood-opacity="0" result="BackgroundImageFix"/>
<feBlend mode="normal" in="SourceGraphic" in2="BackgroundImageFix" result="shape"/>
<feGaussianBlur stdDeviation="0.782935" result="effect1_foregroundBlur_2_3"/>
</filter>
<filter id="filter4_d_2_3" x="25.6696" y="18.9109" width="12.7816" height="12.7814" filterUnits="userSpaceOnUse" color-interpolation-filters="sRGB">
<feFlood flood-opacity="0" result="BackgroundImageFix"/>
<feColorMatrix in="SourceAlpha" type="matrix" values="0 0 0 0 0 0 0 0 0 0 0 0 0 0 0 0 0 0 127 0" result="hardAlpha"/>
<feOffset dy="2.34881"/>
<feGaussianBlur stdDeviation="1.1744"/>
<feComposite in2="hardAlpha" operator="out"/>
<feColorMatrix type="matrix" values="0 0 0 0 0 0 0 0 0 0 0 0 0 0 0 0 0 0 0.25 0"/>
<feBlend mode="normal" in2="BackgroundImageFix" result="effect1_dropShadow_2_3"/>
<feBlend mode="normal" in="SourceGraphic" in2="effect1_dropShadow_2_3" result="shape"/>
</filter>
<filter id="filter5_f_2_3" x="24.9539" y="16.3411" width="13.7276" height="13.7273" filterUnits="userSpaceOnUse" color-interpolation-filters="sRGB">
<feFlood flood-opacity="0" result="BackgroundImageFix"/>
<feBlend mode="normal" in="SourceGraphic" in2="BackgroundImageFix" result="shape"/>
<feGaussianBlur stdDeviation="1.56587" result="effect1_foregroundBlur_2_3"/>
</filter>
<filter id="filter6_f_2_3" x="29.6238" y="20.5598" width="7.20099" height="7.20085" filterUnits="userSpaceOnUse" color-interpolation-filters="sRGB">
<feFlood flood-opacity="0" result="BackgroundImageFix"/>
<feBlend mode="normal" in="SourceGraphic" in2="BackgroundImageFix" result="shape"/>
<feGaussianBlur stdDeviation="0.782935" result="effect1_foregroundBlur_2_3"/>
</filter>
<filter id="filter7_f_2_3" x="28.1771" y="17.8122" width="6.79754" height="6.79745" filterUnits="userSpaceOnUse" color-interpolation-filters="sRGB">
<feFlood flood-opacity="0" result="BackgroundImageFix"/>
<feBlend mode="normal" in="SourceGraphic" in2="BackgroundImageFix" result="shape"/>
<feGaussianBlur stdDeviation="0.782935" result="effect1_foregroundBlur_2_3"/>
</filter>
<filter id="filter8_d_2_3" x="21.4746" y="29.1289" width="15.1423" height="15.142" filterUnits="userSpaceOnUse" color-interpolation-filters="sRGB">
<feFlood flood-opacity="0" result="BackgroundImageFix"/>
<feColorMatrix in="SourceAlpha" type="matrix" values="0 0 0 0 0 0 0 0 0 0 0 0 0 0 0 0 0 0 127 0" result="hardAlpha"/>
<feOffset dy="2.34881"/>
<feGaussianBlur stdDeviation="1.1744"/>
<feComposite in2="hardAlpha" operator="out"/>
<feColorMatrix type="matrix" values="0 0 0 0 0 0 0 0 0 0 0 0 0 0 0 0 0 0 0.25 0"/>
<feBlend mode="normal" in2="BackgroundImageFix" result="effect1_dropShadow_2_3"/>
<feBlend mode="normal" in="SourceGraphic" in2="effect1_dropShadow_2_3" result="shape"/>
</filter>
<filter id="filter9_f_2_3" x="20.7786" y="26.7232" width="15.9072" height="15.9069" filterUnits="userSpaceOnUse" color-interpolation-filters="sRGB">
<feFlood flood-opacity="0" result="BackgroundImageFix"/>
<feBlend mode="normal" in="SourceGraphic" in2="BackgroundImageFix" result="shape"/>
<feGaussianBlur stdDeviation="1.56587" result="effect1_foregroundBlur_2_3"/>
</filter>
<filter id="filter10_f_2_3" x="26.355" y="31.7167" width="8.38925" height="8.3891" filterUnits="userSpaceOnUse" color-interpolation-filters="sRGB">
<feFlood flood-opacity="0" result="BackgroundImageFix"/>
<feBlend mode="normal" in="SourceGraphic" in2="BackgroundImageFix" result="shape"/>
<feGaussianBlur stdDeviation="0.782935" result="effect1_foregroundBlur_2_3"/>
</filter>
<filter id="filter11_f_2_3" x="24.4858" y="28.1667" width="7.86804" height="7.86789" filterUnits="userSpaceOnUse" color-interpolation-filters="sRGB">
<feFlood flood-opacity="0" result="BackgroundImageFix"/>
<feBlend mode="normal" in="SourceGraphic" in2="BackgroundImageFix" result="shape"/>
<feGaussianBlur stdDeviation="0.782935" result="effect1_foregroundBlur_2_3"/>
</filter>
<linearGradient id="paint0_linear_2_3" x1="3.79452" y1="1.22086" x2="12.7071" y2="15.222" gradientUnits="userSpaceOnUse">
<stop offset="0.10546" stop-color="white"/>
<stop offset="1" stop-color="white" stop-opacity="0"/>
</linearGradient>
<linearGradient id="paint1_linear_2_3" x1="22.2603" y1="11.3103" x2="22.2603" y2="20.7387" gradientUnits="userSpaceOnUse">
<stop stop-color="white" stop-opacity="0.36"/>
<stop offset="0.65625" stop-color="white" stop-opacity="0"/>
</linearGradient>
<linearGradient id="paint2_linear_2_3" x1="3.20044" y1="0" x2="3.20044" y2="2.8799" gradientUnits="userSpaceOnUse">
<stop stop-color="white" stop-opacity="0.36"/>
<stop offset="0.65625" stop-color="white" stop-opacity="0"/>
</linearGradient>
<linearGradient id="paint3_linear_2_3" x1="7.75808" y1="0" x2="7.75808" y2="15.6916" gradientUnits="userSpaceOnUse">
<stop stop-color="white" stop-opacity="0.74"/>
<stop offset="0.317708" stop-color="white" stop-opacity="0"/>
</linearGradient>
<linearGradient id="paint4_linear_2_3" x1="16.3624" y1="25.0449" x2="27.1644" y2="14.2424" gradientUnits="userSpaceOnUse">
<stop stop-color="#5599FF" stop-opacity="0.64"/>
<stop offset="0.620979" stop-color="#9069FF" stop-opacity="0"/>
</linearGradient>
<radialGradient id="paint5_radial_2_3" cx="0" cy="0" r="1" gradientUnits="userSpaceOnUse" gradientTransform="translate(22.2603 19.1281) rotate(90) scale(8.27127 8.27154)">
<stop offset="0.489583" stop-color="#9585F8" stop-opacity="0"/>
<stop offset="1" stop-color="#89E3FF"/>
</radialGradient>
<linearGradient id="paint6_linear_2_3" x1="27.5872" y1="24.5441" x2="21.6982" y2="18.6549" gradientUnits="userSpaceOnUse">
<stop stop-color="white"/>
<stop offset="0.208333" stop-color="white" stop-opacity="0"/>
</linearGradient>
<linearGradient id="paint7_linear_2_3" x1="19.606" y1="12.2011" x2="22.9313" y2="18.9249" gradientUnits="userSpaceOnUse">
<stop stop-color="white"/>
<stop offset="0.208333" stop-color="white" stop-opacity="0"/>
</linearGradient>
<linearGradient id="paint8_linear_2_3" x1="1.85394" y1="0.596491" x2="6.2085" y2="7.43721" gradientUnits="userSpaceOnUse">
<stop offset="0.10546" stop-color="white"/>
<stop offset="1" stop-color="white" stop-opacity="0"/>
</linearGradient>
<linearGradient id="paint9_linear_2_3" x1="32.0604" y1="19.1331" x2="32.0604" y2="23.7397" gradientUnits="userSpaceOnUse">
<stop stop-color="white" stop-opacity="0.36"/>
<stop offset="0.65625" stop-color="white" stop-opacity="0"/>
</linearGradient>
<linearGradient id="paint10_linear_2_3" x1="1.56369" y1="0" x2="1.56369" y2="1.40707" gradientUnits="userSpaceOnUse">
<stop stop-color="white" stop-opacity="0.36"/>
<stop offset="0.65625" stop-color="white" stop-opacity="0"/>
</linearGradient>
<linearGradient id="paint11_linear_2_3" x1="3.79048" y1="0" x2="3.79048" y2="7.66665" gradientUnits="userSpaceOnUse">
<stop stop-color="white" stop-opacity="0.74"/>
<stop offset="0.317708" stop-color="white" stop-opacity="0"/>
</linearGradient>
<linearGradient id="paint12_linear_2_3" x1="29.1787" y1="25.8436" x2="34.4565" y2="20.5657" gradientUnits="userSpaceOnUse">
<stop stop-color="#5599FF" stop-opacity="0.64"/>
<stop offset="0.620979" stop-color="#9069FF" stop-opacity="0"/>
</linearGradient>
<radialGradient id="paint13_radial_2_3" cx="0" cy="0" r="1" gradientUnits="userSpaceOnUse" gradientTransform="translate(32.0604 22.9527) rotate(90) scale(4.04121 4.04135)">
<stop offset="0.489583" stop-color="#9585F8" stop-opacity="0"/>
<stop offset="1" stop-color="#89E3FF"/>
</radialGradient>
<linearGradient id="paint14_linear_2_3" x1="34.663" y1="25.5989" x2="31.7857" y2="22.7215" gradientUnits="userSpaceOnUse">
<stop stop-color="white"/>
<stop offset="0.208333" stop-color="white" stop-opacity="0"/>
</linearGradient>
<linearGradient id="paint15_linear_2_3" x1="30.7635" y1="19.5684" x2="32.3882" y2="22.8535" gradientUnits="userSpaceOnUse">
<stop stop-color="white"/>
<stop offset="0.208333" stop-color="white" stop-opacity="0"/>
</linearGradient>
<linearGradient id="paint16_linear_2_3" x1="2.39532" y1="0.770674" x2="8.02147" y2="9.60898" gradientUnits="userSpaceOnUse">
<stop offset="0.10546" stop-color="white"/>
<stop offset="1" stop-color="white" stop-opacity="0"/>
</linearGradient>
<linearGradient id="paint17_linear_2_3" x1="29.0457" y1="29.4161" x2="29.0457" y2="35.3678" gradientUnits="userSpaceOnUse">
<stop stop-color="white" stop-opacity="0.36"/>
<stop offset="0.65625" stop-color="white" stop-opacity="0"/>
</linearGradient>
<linearGradient id="paint18_linear_2_3" x1="2.0203" y1="0" x2="2.0203" y2="1.81796" gradientUnits="userSpaceOnUse">
<stop stop-color="white" stop-opacity="0.36"/>
<stop offset="0.65625" stop-color="white" stop-opacity="0"/>
</linearGradient>
<linearGradient id="paint19_linear_2_3" x1="4.89735" y1="0" x2="4.89735" y2="9.90542" gradientUnits="userSpaceOnUse">
<stop stop-color="white" stop-opacity="0.74"/>
<stop offset="0.317708" stop-color="white" stop-opacity="0"/>
</linearGradient>
<linearGradient id="paint20_linear_2_3" x1="25.3226" y1="38.0861" x2="32.1415" y2="31.267" gradientUnits="userSpaceOnUse">
<stop stop-color="#5599FF" stop-opacity="0.64"/>
<stop offset="0.620979" stop-color="#9069FF" stop-opacity="0"/>
</linearGradient>
<radialGradient id="paint21_radial_2_3" cx="0" cy="0" r="1" gradientUnits="userSpaceOnUse" gradientTransform="translate(29.0457 34.3511) rotate(90) scale(5.2213 5.22147)">
<stop offset="0.489583" stop-color="#9585F8" stop-opacity="0"/>
<stop offset="1" stop-color="#89E3FF"/>
</radialGradient>
<linearGradient id="paint22_linear_2_3" x1="32.4084" y1="37.77" x2="28.6909" y2="34.0524" gradientUnits="userSpaceOnUse">
<stop stop-color="white"/>
<stop offset="0.208333" stop-color="white" stop-opacity="0"/>
</linearGradient>
<linearGradient id="paint23_linear_2_3" x1="27.3702" y1="29.9784" x2="29.4693" y2="34.2228" gradientUnits="userSpaceOnUse">
<stop stop-color="white"/>
<stop offset="0.208333" stop-color="white" stop-opacity="0"/>
</linearGradient>
</defs>
</svg>
