<svg width="21" height="20" viewBox="0 0 21 20" fill="none" xmlns="http://www.w3.org/2000/svg">
<path d="M10.5 19.2409C15.8477 19.2409 20.1955 15.1105 20.1955 10C20.1955 4.8896 15.8477 0.759119 10.5 0.759119C5.15237 0.759119 0.80459 4.8896 0.80459 10C0.80459 15.1105 5.15237 19.2409 10.5 19.2409Z" fill="#FFCCE8" stroke="white" stroke-width="0.3"/>
<path fill-rule="evenodd" clip-rule="evenodd" d="M8.51602 15.5371L8.75624 15.1618L6.7799 14.1324C6.66501 14.0726 6.62564 13.94 6.69198 13.8364C6.75831 13.7328 6.90523 13.6972 7.02012 13.7571L8.99646 14.7864L9.23668 14.4111L7.26034 13.3817C7.14545 13.3219 7.10608 13.1894 7.17241 13.0857C7.23875 12.9821 7.38566 12.9466 7.50056 13.0064L9.4769 14.0357L9.71711 13.6604L7.74077 12.6311C7.62588 12.5712 7.58651 12.4387 7.65285 12.335C7.71918 12.2314 7.8661 12.1959 7.98099 12.2557L9.95733 13.2851L10.1976 12.9097L8.22122 11.8804C8.10632 11.8205 8.06695 11.688 8.13329 11.5843C8.19962 11.4807 8.34654 11.4452 8.46143 11.505L10.4378 12.5344L10.678 12.159L8.70165 11.1297C8.58676 11.0698 8.54739 10.9373 8.61373 10.8337C8.68006 10.73 8.82698 10.6945 8.94187 10.7543L10.9182 11.7837L11.1584 11.4083L9.1821 10.379C9.06721 10.3192 9.02784 10.1866 9.09418 10.083C9.16051 9.97933 9.30743 9.94382 9.42232 10.0037L11.3987 11.033L11.6389 10.6577L9.66254 9.62833C9.54764 9.56849 9.50828 9.43595 9.57461 9.33231C9.64095 9.22866 9.78786 9.19315 9.90276 9.25299L11.8791 10.2823L12.1193 9.90697L10.143 8.87764C10.0281 8.8178 9.98872 8.68526 10.0551 8.58162C10.1214 8.47797 10.2683 8.44246 10.3832 8.5023L12.3595 9.53163L12.5997 9.1563L10.6234 8.12696C10.5085 8.06712 10.4691 7.93459 10.5355 7.83094C10.6018 7.72729 10.7487 7.69178 10.8636 7.75162L12.84 8.78096L13.0802 8.40561L11.1039 7.37628C10.989 7.31644 10.9496 7.1839 11.0159 7.08025C11.0823 6.97661 11.2292 6.94109 11.3441 7.00094L13.3204 8.03027L13.5606 7.65493L11.5843 6.62559C11.4694 6.56575 11.43 6.43322 11.4964 6.32957C11.5627 6.22592 11.7096 6.19041 11.8245 6.25025L13.8008 7.27959L14.0411 6.90425L12.0647 5.87491C11.9498 5.81507 11.9105 5.68254 11.9768 5.57889C12.0431 5.47524 12.19 5.43973 12.3049 5.49957L14.2813 6.52891L14.5215 6.15357L12.5452 5.12423C12.4303 5.06439 12.3909 4.93186 12.4572 4.82821C12.5236 4.72456 12.6705 4.68905 12.7854 4.74889L14.7617 5.77823L15.0019 5.40288L13.0256 4.37354C12.9107 4.3137 12.8713 4.18116 12.9377 4.07752C13.004 3.97387 13.1509 3.93836 13.2658 3.9982L15.2091 5.01033C15.4047 4.43113 15.1407 3.78609 14.5345 3.47038L13.2792 2.8166C12.9263 2.63276 12.4749 2.74186 12.2712 3.06026L4.8717 14.6219C4.66791 14.9403 4.78885 15.3474 5.14181 15.5313L6.39708 16.1851C7.02166 16.5104 7.80026 16.377 8.25368 15.9009L6.29947 14.8831C6.18457 14.8233 6.1452 14.6907 6.21154 14.5871C6.27787 14.4834 6.42479 14.4479 6.53968 14.5078L8.51602 15.5371Z" fill="white"/>
<path fill-rule="evenodd" clip-rule="evenodd" d="M13.0294 2.73726L5.00765 15.4422C4.76263 15.2355 4.69828 14.8967 4.87321 14.6234L12.2727 3.06179C12.4302 2.8156 12.7358 2.69455 13.0294 2.73726Z" fill="white"/>
<path fill-rule="evenodd" clip-rule="evenodd" d="M8.70573 15.242L8.75723 15.1615L6.78089 14.1322C6.666 14.0724 6.62663 13.9398 6.69297 13.8362C6.70746 13.8135 6.7258 13.7941 6.74681 13.7783C6.69954 13.8008 6.65861 13.8354 6.63029 13.8805C6.55136 14.0061 6.60029 14.1657 6.73957 14.2369L8.70573 15.242Z" fill="white"/>
<path fill-rule="evenodd" clip-rule="evenodd" d="M6.23407 14.5623C6.24454 14.5502 6.25625 14.5394 6.26892 14.5298C6.22164 14.5523 6.18071 14.5869 6.1524 14.632C6.07347 14.7577 6.1224 14.9172 6.26168 14.9884L8.18542 15.9719C8.20987 15.9496 8.23355 15.9265 8.2564 15.9025L6.30219 14.8847C6.18729 14.8248 6.14793 14.6923 6.21426 14.5886C6.22024 14.5793 6.22687 14.5705 6.23407 14.5623Z" fill="white"/>
<path fill-rule="evenodd" clip-rule="evenodd" d="M9.18598 14.4907L9.23747 14.4103L7.26114 13.3809C7.14625 13.3211 7.10688 13.1886 7.17321 13.0849C7.18771 13.0623 7.20605 13.0429 7.22706 13.027C7.17978 13.0496 7.13885 13.0841 7.11054 13.1292C7.03161 13.2549 7.08054 13.4145 7.21982 13.4857L9.18598 14.4907Z" fill="white"/>
<path fill-rule="evenodd" clip-rule="evenodd" d="M9.66686 13.74L9.71835 13.6596L7.74202 12.6302C7.62712 12.5704 7.58776 12.4379 7.65409 12.3342C7.66859 12.3116 7.68693 12.2922 7.70794 12.2763C7.66066 12.2988 7.61973 12.3334 7.59142 12.3785C7.51249 12.5042 7.56142 12.6637 7.7007 12.7349L9.66686 13.74Z" fill="white"/>
<path fill-rule="evenodd" clip-rule="evenodd" d="M10.1478 12.9895L10.1993 12.909L8.22301 11.8797C8.10812 11.8198 8.06875 11.6873 8.13509 11.5836C8.14958 11.561 8.16792 11.5416 8.18893 11.5257C8.14166 11.5483 8.10073 11.5829 8.07241 11.6279C7.99348 11.7536 8.04241 11.9132 8.18169 11.9844L10.1478 12.9895Z" fill="white"/>
<path fill-rule="evenodd" clip-rule="evenodd" d="M10.628 12.2381L10.6795 12.1576L8.70315 11.1283C8.58825 11.0685 8.54888 10.9359 8.61522 10.8323C8.62971 10.8096 8.64805 10.7902 8.66907 10.7744C8.62179 10.7969 8.58086 10.8315 8.55254 10.8766C8.47362 11.0022 8.52254 11.1618 8.66182 11.233L10.628 12.2381Z" fill="white"/>
<path fill-rule="evenodd" clip-rule="evenodd" d="M11.1095 11.4882L11.161 11.4078L9.18471 10.3784C9.06982 10.3186 9.03045 10.186 9.09679 10.0824C9.11128 10.0598 9.12962 10.0404 9.15063 10.0245C9.10336 10.047 9.06243 10.0816 9.03411 10.1267C8.95518 10.2523 9.00411 10.4119 9.14339 10.4831L11.1095 11.4882Z" fill="white"/>
<path fill-rule="evenodd" clip-rule="evenodd" d="M11.5921 10.7391L11.6436 10.6587L9.66726 9.62932C9.55236 9.56947 9.513 9.43694 9.57933 9.33329C9.59383 9.31065 9.61217 9.29125 9.63318 9.2754C9.5859 9.29793 9.54497 9.33252 9.51665 9.3776C9.43773 9.50324 9.48666 9.66282 9.62594 9.73402L11.5921 10.7391Z" fill="white"/>
<path fill-rule="evenodd" clip-rule="evenodd" d="M12.0703 9.98585L12.1218 9.90539L10.1454 8.87605C10.0305 8.81621 9.99118 8.68368 10.0575 8.58003C10.072 8.55738 10.0903 8.53799 10.1114 8.52213C10.0641 8.54467 10.0232 8.57925 9.99483 8.62433C9.91591 8.74998 9.96484 8.90955 10.1041 8.98076L12.0703 9.98585Z" fill="white"/>
<path fill-rule="evenodd" clip-rule="evenodd" d="M12.5507 9.23458L12.6022 9.15412L10.6259 8.12478C10.511 8.06494 10.4716 7.93241 10.5379 7.82876C10.5524 7.80611 10.5708 7.78672 10.5918 7.77086C10.5445 7.7934 10.5036 7.82798 10.4753 7.87306C10.3963 7.99871 10.4453 8.15829 10.5845 8.22949L12.5507 9.23458Z" fill="white"/>
<path fill-rule="evenodd" clip-rule="evenodd" d="M13.035 8.48395L13.0865 8.40348L11.1101 7.37415C10.9952 7.31431 10.9559 7.18177 11.0222 7.07813C11.0367 7.05548 11.055 7.03609 11.076 7.02023C11.0288 7.04276 10.9878 7.07735 10.9595 7.12243C10.8806 7.24808 10.9295 7.40765 11.0688 7.47885L13.035 8.48395Z" fill="white"/>
<path fill-rule="evenodd" clip-rule="evenodd" d="M13.5137 7.73422L13.5652 7.65376L11.5889 6.62442C11.474 6.56458 11.4346 6.43205 11.501 6.3284C11.5154 6.30575 11.5338 6.28636 11.5548 6.2705C11.5075 6.29303 11.4666 6.32762 11.4383 6.3727C11.3593 6.49835 11.4083 6.65792 11.5476 6.72912L13.5137 7.73422Z" fill="white"/>
<path fill-rule="evenodd" clip-rule="evenodd" d="M13.9917 6.98106L14.0432 6.9006L12.0668 5.87126C11.9519 5.81142 11.9126 5.67889 11.9789 5.57524C11.9934 5.55259 12.0117 5.5332 12.0328 5.51734C11.9855 5.53987 11.9445 5.57446 11.9162 5.61954C11.8373 5.74519 11.8862 5.90476 12.0255 5.97596L13.9917 6.98106Z" fill="white"/>
<path fill-rule="evenodd" clip-rule="evenodd" d="M14.4743 6.23197L14.5258 6.1515L12.5494 5.12217C12.4345 5.06233 12.3952 4.92979 12.4615 4.82614C12.476 4.8035 12.4943 4.7841 12.5154 4.76825C12.4681 4.79078 12.4271 4.82537 12.3988 4.87045C12.3199 4.99609 12.3688 5.15567 12.5081 5.22687L14.4743 6.23197Z" fill="white"/>
<path fill-rule="evenodd" clip-rule="evenodd" d="M14.9546 5.4808L15.0061 5.40034L13.0297 4.371C12.9148 4.31116 12.8755 4.17863 12.9418 4.07498C12.9563 4.05233 12.9746 4.03294 12.9957 4.01708C12.9484 4.03961 12.9075 4.0742 12.8791 4.11928C12.8002 4.24493 12.8491 4.4045 12.9884 4.4757L14.9546 5.4808Z" fill="white"/>
</svg>
