<svg width="63" height="63" viewBox="0 0 63 63" fill="none" xmlns="http://www.w3.org/2000/svg">
<circle cx="31.5" cy="31.5" r="31.5" fill="#FFCCE8"/>
<path fill-rule="evenodd" clip-rule="evenodd" d="M12.4171 32.641L13.3944 32.3728L12.1506 27.6182C12.0783 27.3418 12.2384 27.0577 12.5083 26.9836C12.7781 26.9095 13.0555 27.0736 13.1278 27.35L14.3716 32.1046L15.3489 31.8363L14.1051 27.0818C14.0328 26.8054 14.1929 26.5212 14.4628 26.4472C14.7327 26.3731 15.0101 26.5371 15.0824 26.8136L16.3262 31.5681L17.3034 31.2999L16.0596 26.5453C15.9873 26.2689 16.1475 25.9848 16.4173 25.9108C16.6872 25.8367 16.9646 26.0007 17.0369 26.2771L18.2807 31.0317L19.258 30.7635L18.0142 26.0089C17.9418 25.7325 18.102 25.4484 18.3719 25.3743C18.6417 25.3003 18.9191 25.4643 18.9914 25.7407L20.2352 30.4953L21.2125 30.2271L19.9687 25.4725C19.8964 25.1961 20.0565 24.912 20.3264 24.8379C20.5963 24.7639 20.8737 24.9279 20.946 25.2043L22.1898 29.9589L23.1671 29.6907L21.9232 24.9361C21.8509 24.6597 22.0111 24.3756 22.2809 24.3015C22.5508 24.2275 22.8282 24.3915 22.9005 24.6679L24.1443 29.4225L25.1216 29.1543L23.8777 24.3997C23.8054 24.1233 23.9656 23.8392 24.2355 23.7651C24.5053 23.6911 24.7827 23.8551 24.855 24.1315L26.0988 28.8861L27.0761 28.6178L25.8323 23.8633C25.76 23.5869 25.9201 23.3028 26.19 23.2287C26.4599 23.1546 26.7372 23.3187 26.8096 23.5951L28.0534 28.3496L29.0306 28.0814L27.7868 23.3269C27.7145 23.0505 27.8746 22.7663 28.1445 22.6923C28.4144 22.6182 28.6918 22.7822 28.7641 23.0587L30.0079 27.8132L30.9852 27.545L29.7413 22.7904C29.669 22.514 29.8292 22.2299 30.099 22.1559C30.3689 22.0818 30.6463 22.2458 30.7186 22.5222L31.9624 27.2768L32.9397 27.0086L31.6959 22.254C31.6236 21.9776 31.7837 21.6935 32.0536 21.6194C32.3234 21.5454 32.6008 21.7094 32.6731 21.9858L33.917 26.7404L34.8942 26.4722L33.6504 21.7176C33.5781 21.4412 33.7382 21.1571 34.0081 21.083C34.278 21.009 34.5553 21.173 34.6277 21.4494L35.8715 26.204L36.8487 25.9358L35.6049 21.1812C35.5326 20.9048 35.6928 20.6207 35.9626 20.5466C36.2325 20.4726 36.5099 20.6366 36.5822 20.913L37.826 25.6676L38.8033 25.3993L37.5595 20.6448C37.4871 20.3683 37.6473 20.0842 37.9172 20.0102C38.187 19.9361 38.4644 20.1001 38.5367 20.3765L39.7598 25.0516C41.007 24.3706 41.6786 22.8774 41.2971 21.4191L40.5071 18.3993C40.285 17.5501 39.4328 17.0462 38.6038 17.2737L8.50117 25.5354C7.67214 25.7629 7.18016 26.6357 7.40229 27.4848L8.19231 30.5047C8.58539 32.0073 9.96485 32.9694 11.426 32.856L10.1961 28.1546C10.1237 27.8782 10.2839 27.5941 10.5538 27.52C10.8236 27.4459 11.101 27.61 11.1733 27.8864L12.4171 32.641Z" fill="#FF879D"/>
<path fill-rule="evenodd" clip-rule="evenodd" d="M40.5097 35.0578C40.5097 35.0578 41.371 34.3109 43.0307 32.4154C44.5711 30.6561 49.7302 24.5605 51.3395 22.6575C51.6586 22.2803 51.8745 21.7866 51.582 21.3875C51.5171 21.2991 51.4356 21.2042 51.3334 21.1042C51.1883 20.9621 51.0528 20.865 50.931 20.7993C50.5567 20.5975 50.1555 20.8452 49.8492 21.144L37.0097 33.6669C34.9078 35.6126 31.8245 37.8007 30.53 38.7194C30.4093 38.805 30.3042 38.8796 30.2169 38.9419C28.9365 39.856 28.3369 40.037 27.842 40.0566C27.4944 40.0703 27.3091 39.975 27.1137 39.8435C25.251 38.4716 22.7474 38.6548 21.3642 40.3255C19.902 42.0915 20.2453 44.8509 22.131 46.4888C24.0167 48.1266 25.4174 46.8821 26.8796 45.1161C27.7908 44.0155 28.5109 42.9721 28.4677 41.9456C28.4688 41.9328 28.4698 41.9197 28.4708 41.9063C28.534 41.0637 29.1908 40.6907 29.8502 40.3163C29.9752 40.2453 30.1003 40.1743 30.2215 40.1C30.5533 39.8965 31.0787 39.5679 31.6586 39.2052C32.4555 38.7068 33.3552 38.1441 33.9963 37.7537C35.104 37.0791 36.6286 36.9985 37.2797 37.1519C37.7817 37.2702 38.0935 37.0414 38.3937 36.8212L38.3962 36.8194C38.6972 36.5986 40.5096 35.0577 40.5096 35.0577L40.5097 35.0578ZM26.1511 44.4834C25.0789 45.7785 24.0511 46.6906 22.6636 45.4854C21.276 44.2802 21.0204 42.2533 22.0926 40.9582C23.1649 39.6631 25.159 39.5903 26.5465 40.7955C27.9341 42.0007 27.2234 43.1883 26.1511 44.4834Z" fill="white"/>
<path fill-rule="evenodd" clip-rule="evenodd" d="M30.0528 45.0055C28.6536 44.4871 27.5066 45.5774 26.3191 47.0117C24.8569 48.7777 23.887 50.3965 25.7727 52.0344C27.6584 53.6722 30.3723 53.5684 31.8345 51.8023C33.1186 50.2514 33.0102 47.9344 31.6876 46.2836C31.6687 46.0943 31.6798 45.9072 31.7347 45.7365C31.7461 45.7013 31.7573 45.6653 31.7689 45.6285C31.9153 45.1615 32.107 44.5504 33.0426 43.4203C33.8501 42.445 36.3079 39.761 38.2867 37.6165L37.6661 33.5043L35.7234 35.437C35.3699 35.8639 35.2163 36.7001 35.1986 37.2473C35.1734 38.0275 34.4747 39.8305 33.7143 40.8961C33.3644 41.3865 33.0642 41.7705 32.7922 42.1182L32.7922 42.1183C32.4732 42.5262 32.1931 42.8843 31.9175 43.3061C31.4607 44.0052 30.7579 44.9556 30.0528 45.0055ZM30.5351 46.6424C29.1475 45.4372 28.1198 46.3493 27.0475 47.6444C25.9753 48.9395 25.2646 50.1271 26.6521 51.3323C28.0397 52.5375 30.0338 52.4647 31.106 51.1696C32.1783 49.8745 31.9227 47.8476 30.5351 46.6424ZM50.4153 21.5814C50.3003 21.4816 50.2862 21.3052 50.3836 21.1875C50.4811 21.0698 50.6533 21.0552 50.7683 21.1551L51.4428 21.7409C51.6107 21.415 51.6653 21.0572 51.4332 20.7687C51.3607 20.6784 51.2687 20.5818 51.1522 20.4806C50.9925 20.3419 50.846 20.2514 50.7165 20.1934C50.3394 20.0246 49.9639 20.2875 49.68 20.5926L37.6661 33.5043L38.2867 37.6165C38.2867 37.6165 40.6554 35.1696 42.5444 33.069L41.5903 32.2403C41.4754 32.1404 41.4612 31.9641 41.5587 31.8463C41.6562 31.7286 41.8284 31.7141 41.9433 31.8139L42.9132 32.6564C43.0067 32.5511 43.0984 32.4472 43.1879 32.3451C43.2777 32.2427 43.3685 32.1383 43.4603 32.0321L42.4728 31.1744C42.3579 31.0746 42.3437 30.8982 42.4412 30.7805C42.5387 30.6627 42.7109 30.6482 42.8258 30.7481L43.8203 31.6118C43.9959 31.4051 44.1741 31.1929 44.3543 30.9762L43.3553 30.1085C43.2404 30.0087 43.2262 29.8323 43.3237 29.7146C43.4212 29.5968 43.5934 29.5823 43.7083 29.6822L44.707 30.5496C44.8809 30.3381 45.056 30.1233 45.2319 29.9061L44.2378 29.0426C44.1229 28.9428 44.1087 28.7664 44.2062 28.6487C44.3036 28.5309 44.4758 28.5164 44.5908 28.6163L45.5793 29.4749C45.7519 29.2598 45.9248 29.043 46.0973 28.8254L45.1203 27.9768C45.0053 27.8769 44.9912 27.7005 45.0887 27.5828C45.1861 27.4651 45.3583 27.4506 45.4733 27.5504L46.4407 28.3907C46.6125 28.1725 46.7835 27.9541 46.9532 27.7364L46.0028 26.9109C45.8878 26.811 45.8737 26.6346 45.9712 26.5169C46.0686 26.3992 46.2408 26.3847 46.3558 26.4845L47.2933 27.2988C47.4646 27.0777 47.6342 26.858 47.8013 26.6406L46.8853 25.845C46.7703 25.7451 46.7562 25.5688 46.8537 25.451C46.9511 25.3333 47.1233 25.3188 47.2383 25.4186L48.1386 26.2006C48.31 25.9765 48.4782 25.7555 48.6426 25.539L47.7678 24.7791C47.6528 24.6792 47.6387 24.5029 47.7361 24.3851C47.8336 24.2674 48.0058 24.2529 48.1208 24.3527L48.9775 25.0969C49.1498 24.8688 49.317 24.6468 49.4781 24.4322L48.6503 23.7132C48.5353 23.6134 48.5212 23.437 48.6186 23.3193C48.7161 23.2015 48.8883 23.187 49.0033 23.2869L49.8107 23.9882C49.9859 23.7538 50.1522 23.5306 50.308 23.3207L49.5328 22.6473C49.4178 22.5475 49.4037 22.3711 49.5011 22.2534C49.5986 22.1356 49.7708 22.1211 49.8858 22.221L50.6385 22.8748C50.8247 22.623 50.9905 22.3978 51.1325 22.2044L50.4153 21.5814Z" fill="#FF879D"/>
<path fill-rule="evenodd" clip-rule="evenodd" d="M40.266 17.8847L7.3495 27.1302C7.32587 26.407 7.78917 25.7362 8.50085 25.5408L38.6035 17.2792C39.2445 17.1033 39.8993 17.3647 40.266 17.8847Z" fill="#D87A8B"/>
<path fill-rule="evenodd" clip-rule="evenodd" d="M37.839 34.7012L50.7359 20.1944C50.7261 20.1897 50.7164 20.1852 50.7068 20.1809C50.3297 20.0121 49.9543 20.275 49.6703 20.5802L37.6565 33.4918L37.839 34.7012ZM37.839 34.7013L37.6564 33.4918L35.7137 35.4245C35.3603 35.8514 35.2067 36.6877 35.189 37.2348C35.1842 37.3822 35.1554 37.5661 35.1067 37.7746L37.839 34.7013Z" fill="#D87A8B"/>
<path d="M38.0536 35.215C38.5134 35.6143 38.57 36.3199 38.1801 36.7908C37.7902 37.2617 37.1014 37.3197 36.6416 36.9204C36.1818 36.521 36.1252 35.8155 36.5151 35.3446C36.905 34.8736 37.5938 34.8156 38.0536 35.215Z" fill="white"/>
<path fill-rule="evenodd" clip-rule="evenodd" d="M13.1864 32.4315L13.3959 32.374L12.1521 27.6195C12.0798 27.3431 12.24 27.0589 12.5098 26.9849C12.5688 26.9687 12.6281 26.9639 12.6856 26.9691C12.578 26.9351 12.4599 26.9312 12.3434 26.9642C12.0184 27.0562 11.8279 27.4007 11.9178 27.7335L13.1864 32.4315Z" fill="white"/>
<path fill-rule="evenodd" clip-rule="evenodd" d="M10.6279 27.5119C10.6634 27.5075 10.6988 27.507 10.7334 27.5101C10.6258 27.4761 10.5078 27.4722 10.3912 27.5052C10.0663 27.5973 9.87573 27.9417 9.9656 28.2745L11.2069 32.8712C11.28 32.8709 11.3535 32.8679 11.4271 32.8622L10.1972 28.1608C10.1249 27.8844 10.2851 27.6003 10.5549 27.5262C10.5792 27.5196 10.6036 27.5148 10.6279 27.5119Z" fill="white"/>
<path fill-rule="evenodd" clip-rule="evenodd" d="M15.142 31.8944L15.3515 31.8369L14.1077 27.0824C14.0354 26.8059 14.1955 26.5218 14.4654 26.4478C14.5243 26.4316 14.5837 26.4268 14.6411 26.432C14.5335 26.398 14.4155 26.3941 14.2989 26.4271C13.974 26.5191 13.7834 26.8635 13.8733 27.1964L15.142 31.8944Z" fill="white"/>
<path fill-rule="evenodd" clip-rule="evenodd" d="M17.0971 31.3573L17.3066 31.2998L16.0628 26.5452C15.9904 26.2688 16.1506 25.9847 16.4205 25.9107C16.4794 25.8945 16.5387 25.8897 16.5962 25.8949C16.4886 25.8609 16.3706 25.8569 16.254 25.89C15.9291 25.982 15.7385 26.3264 15.8284 26.6592L17.0971 31.3573Z" fill="white"/>
<path fill-rule="evenodd" clip-rule="evenodd" d="M19.0522 30.8222L19.2617 30.7647L18.0178 26.0101C17.9455 25.7337 18.1057 25.4496 18.3755 25.3755C18.4345 25.3593 18.4938 25.3545 18.5513 25.3597C18.4437 25.3257 18.3257 25.3218 18.2091 25.3548C17.8842 25.4469 17.6936 25.7913 17.7835 26.1241L19.0522 30.8222Z" fill="white"/>
<path fill-rule="evenodd" clip-rule="evenodd" d="M21.0072 30.2851L21.2167 30.2276L19.9729 25.473C19.9006 25.1966 20.0608 24.9125 20.3306 24.8384C20.3896 24.8222 20.4489 24.8174 20.5064 24.8226C20.3988 24.7886 20.2807 24.7847 20.1642 24.8177C19.8392 24.9098 19.6487 25.2542 19.7386 25.587L21.0072 30.2851Z" fill="white"/>
<path fill-rule="evenodd" clip-rule="evenodd" d="M22.9623 29.7518L23.1718 29.6943L21.928 24.9398C21.8557 24.6634 22.0158 24.3793 22.2857 24.3052C22.3447 24.289 22.404 24.2842 22.4614 24.2894C22.3539 24.2554 22.2358 24.2515 22.1192 24.2845C21.7943 24.3766 21.6038 24.721 21.6936 25.0538L22.9623 29.7518Z" fill="white"/>
<path fill-rule="evenodd" clip-rule="evenodd" d="M24.9174 29.2206L25.1269 29.1631L23.8831 24.4085C23.8108 24.1321 23.9709 23.848 24.2408 23.7739C24.2997 23.7578 24.3591 23.7529 24.4165 23.7582C24.3089 23.7242 24.1909 23.7202 24.0743 23.7533C23.7494 23.8453 23.5588 24.1897 23.6487 24.5225L24.9174 29.2206Z" fill="white"/>
<path fill-rule="evenodd" clip-rule="evenodd" d="M26.873 28.6757L27.0825 28.6182L25.8386 23.8636C25.7663 23.5872 25.9265 23.3031 26.1963 23.229C26.2553 23.2128 26.3146 23.208 26.3721 23.2133C26.2645 23.1793 26.1465 23.1753 26.0299 23.2083C25.705 23.3004 25.5144 23.6448 25.6043 23.9776L26.873 28.6757Z" fill="white"/>
<path fill-rule="evenodd" clip-rule="evenodd" d="M28.828 28.1386L29.0375 28.0811L27.7937 23.3265C27.7214 23.0501 27.8816 22.766 28.1514 22.6919C28.2104 22.6757 28.2697 22.6709 28.3272 22.6762C28.2196 22.6421 28.1015 22.6382 27.985 22.6712C27.66 22.7633 27.4695 23.1077 27.5594 23.4405L28.828 28.1386Z" fill="white"/>
<path fill-rule="evenodd" clip-rule="evenodd" d="M30.7885 27.6093L30.998 27.5518L29.7542 22.7972C29.6819 22.5208 29.842 22.2367 30.1119 22.1626C30.1708 22.1464 30.2302 22.1416 30.2876 22.1469C30.18 22.1128 30.062 22.1089 29.9454 22.1419C29.6205 22.234 29.4299 22.5784 29.5198 22.9112L30.7885 27.6093Z" fill="white"/>
<path fill-rule="evenodd" clip-rule="evenodd" d="M32.7387 27.0702L32.9482 27.0127L31.7044 22.2581C31.6321 21.9817 31.7922 21.6976 32.0621 21.6236C32.121 21.6074 32.1803 21.6026 32.2378 21.6078C32.1302 21.5738 32.0122 21.5698 31.8956 21.6029C31.5707 21.6949 31.3801 22.0393 31.47 22.3721L32.7387 27.0702Z" fill="white"/>
<path fill-rule="evenodd" clip-rule="evenodd" d="M34.6938 26.5272L34.9033 26.4697L33.6594 21.7152C33.5871 21.4388 33.7473 21.1546 34.0171 21.0806C34.0761 21.0644 34.1354 21.0596 34.1929 21.0648C34.0853 21.0308 33.9673 21.0269 33.8507 21.0599C33.5258 21.1519 33.3352 21.4964 33.4251 21.8292L34.6938 26.5272Z" fill="white"/>
<path fill-rule="evenodd" clip-rule="evenodd" d="M36.6488 25.996L36.8583 25.9385L35.6145 21.1839C35.5422 20.9075 35.7024 20.6234 35.9722 20.5493C36.0312 20.5332 36.0905 20.5283 36.148 20.5336C36.0404 20.4996 35.9223 20.4956 35.8058 20.5286C35.4808 20.6207 35.2903 20.9651 35.3802 21.2979L36.6488 25.996Z" fill="white"/>
<path fill-rule="evenodd" clip-rule="evenodd" d="M38.6039 25.4589L38.8134 25.4014L37.5696 20.6468C37.4973 20.3704 37.6574 20.0863 37.9273 20.0122C37.9863 19.996 38.0456 19.9912 38.103 19.9965C37.9955 19.9625 37.8774 19.9585 37.7608 19.9915C37.4359 20.0836 37.2454 20.428 37.3352 20.7608L38.6039 25.4589Z" fill="white"/>
</svg>
