<svg width="26" height="26" viewBox="0 0 26 26" fill="none" xmlns="http://www.w3.org/2000/svg">
<path d="M12.6774 21.6684C15.3163 21.6684 17.6833 20.5132 19.3369 18.7011L17.6041 16.9683C17.5258 16.8884 17.4729 16.7872 17.4521 16.6773C17.4313 16.5675 17.4434 16.4539 17.487 16.351C17.5306 16.248 17.6037 16.1603 17.6971 16.0988C17.7905 16.0374 17.9 16.0049 18.0118 16.0056L22.8705 16.0056C23.1877 16.0056 23.4368 16.2547 23.4368 16.5719L23.4368 21.4306C23.4368 21.9403 22.8252 22.1894 22.4741 21.827L20.9452 20.3094C18.8839 22.5292 15.9505 23.9336 12.6774 23.9336C7.29762 23.9336 2.78997 20.1734 1.63474 15.1448C1.47618 14.4313 2.00849 13.7404 2.74466 13.7404C3.27697 13.7404 3.73 14.1142 3.85459 14.6351C4.77197 18.6558 8.37357 21.6684 12.6774 21.6684ZM12.6774 1.28208C18.0571 1.28208 22.5647 5.04223 23.72 10.0709C23.8785 10.7844 23.3462 11.4753 22.61 11.4753C22.0777 11.4753 21.6247 11.1015 21.5001 10.5805C20.5827 6.55988 16.9811 3.54723 12.6774 3.54723C10.0385 3.54723 7.67137 4.70246 6.01781 6.51458L7.75065 8.24742C7.82891 8.32726 7.88179 8.42848 7.90262 8.53833C7.92345 8.64818 7.9113 8.76173 7.8677 8.86468C7.82409 8.96763 7.75099 9.05537 7.6576 9.11684C7.56422 9.17831 7.45472 9.21077 7.34292 9.21011L2.48417 9.21011C2.16705 9.21011 1.91788 8.96094 1.91788 8.64382L1.91788 3.78507C1.91788 3.27541 2.52947 3.02625 2.88057 3.38867L4.40955 4.90632C6.47084 2.68647 9.40421 1.28208 12.6774 1.28208Z" fill="#3F3F3F"/>
</svg>
