<svg width="39" height="39" viewBox="0 0 39 39" fill="none" xmlns="http://www.w3.org/2000/svg">
<circle cx="19.5" cy="19.5" r="19.5" fill="#F1F1F1"/>
<path d="M19.2385 26.5005C21.3699 26.5005 23.2818 25.5675 24.6173 24.1038L23.2177 22.7042C23.1545 22.6397 23.1118 22.558 23.095 22.4693C23.0782 22.3805 23.088 22.2888 23.1232 22.2057C23.1584 22.1225 23.2174 22.0517 23.2929 22.002C23.3683 21.9524 23.4567 21.9261 23.547 21.9267L27.4714 21.9267C27.7276 21.9267 27.9288 22.1279 27.9288 22.3841L27.9288 26.3084C27.9288 26.7201 27.4348 26.9213 27.1512 26.6286L25.9163 25.4028C24.2514 27.1958 21.8822 28.3301 19.2385 28.3301C14.8933 28.3301 11.2525 25.293 10.3194 21.2314C10.1914 20.6551 10.6213 20.0971 11.2159 20.0971C11.6458 20.0971 12.0118 20.399 12.1124 20.8198C12.8533 24.0672 15.7623 26.5005 19.2385 26.5005ZM19.2385 10.0346C23.5836 10.0346 27.2244 13.0717 28.1575 17.1333C28.2856 17.7096 27.8556 18.2676 27.261 18.2676C26.8311 18.2676 26.4652 17.9657 26.3645 17.5449C25.6236 14.2975 22.7146 11.8642 19.2385 11.8642C17.107 11.8642 15.1952 12.7972 13.8596 14.2609L15.2592 15.6605C15.3224 15.725 15.3651 15.8067 15.3819 15.8954C15.3988 15.9842 15.389 16.0759 15.3537 16.159C15.3185 16.2422 15.2595 16.3131 15.184 16.3627C15.1086 16.4124 15.0202 16.4386 14.9299 16.438L11.0055 16.438C10.7494 16.438 10.5481 16.2368 10.5481 15.9806L10.5481 12.0563C10.5481 11.6446 11.0421 11.4434 11.3257 11.7361L12.5606 12.9619C14.2255 11.1689 16.5948 10.0346 19.2385 10.0346Z" fill="black"/>
</svg>
