<svg width="93" height="21" viewBox="0 0 93 21" fill="none" xmlns="http://www.w3.org/2000/svg">
<g clip-path="url(#clip0_1488_18717)">
<path d="M82.5707 21.0003C79.5883 21.0003 77.0868 20.0027 75.1054 17.9878C73.1239 15.973 72.123 13.4781 72.123 10.4852C72.123 7.49234 73.1239 5.01706 75.1054 3.00222C77.0883 1.00545 79.5883 0.0078125 82.5707 0.0078125C85.553 0.0078125 88.0356 1.00545 90.017 3.00072C91.9985 5.01555 92.9994 7.51039 92.9994 10.4837C92.9994 13.4571 91.9985 15.9715 90.017 17.9863C88.0356 20.0012 85.553 20.9988 82.5707 20.9988V21.0003ZM82.5707 15.4554C83.9231 15.4554 85.0533 14.9754 85.9612 14.0349C86.8691 13.0944 87.3136 11.9057 87.3136 10.4852C87.3136 9.06478 86.8691 7.8956 85.9612 6.95515C85.0533 6.01469 83.9231 5.55424 82.5707 5.55424C81.2182 5.55424 80.0706 6.01469 79.1801 6.95515C78.2722 7.8956 77.8277 9.08434 77.8277 10.4852C77.8277 11.8861 78.2722 13.0944 79.1801 14.0349C80.0692 14.9754 81.1993 15.4554 82.5707 15.4554Z" fill="black"/>
<path d="M66.1374 10.5033H64.7632V14.056C63.8596 14.9814 62.7381 15.4539 61.3973 15.4539C60.0275 15.4539 58.8973 14.9738 58.0083 14.0334C57.1003 13.0929 56.6558 11.9042 56.6558 10.4837C56.6558 9.06327 57.1003 7.8941 58.0083 6.95364C58.8973 6.01319 60.0275 5.55274 61.3988 5.55274H64.3099V0.0078125H61.3988C58.4165 0.0078125 55.9149 1.00545 53.9335 3.00072C51.9521 5.01555 50.9512 7.51039 50.9512 10.4837C50.9512 13.4571 51.9521 15.9715 53.9335 17.9863C55.9149 20.0011 58.4164 20.9988 61.3973 20.9988C64.3797 20.9988 66.8608 20.0011 68.8437 17.9863C69.3246 17.4973 69.7444 16.9797 70.1105 16.4349H70.1134V10.5033H66.1389H66.1374Z" fill="black"/>
<path d="M49.9955 15.2549H42.1758V0H36.6367V15.2549V20.991H42.1758H49.9955V15.2549Z" fill="black"/>
<path d="M15.2182 3.02028C13.2367 1.00545 10.7352 0.0078125 7.7529 0.0078125H0V20.9988H7.7529C10.7352 20.9988 13.2367 20.0011 15.2182 18.0059C17.1996 15.991 18.2005 13.4962 18.2005 10.5229C18.2005 7.54951 17.1996 5.03511 15.2182 3.02028ZM11.1434 14.053C10.2544 14.9934 9.12423 15.4539 7.7529 15.4539V15.4584H5.53903V5.54822H7.7529V5.55274C9.12423 5.55274 10.253 6.03275 11.1434 6.9732C12.0514 7.91366 12.4959 9.1024 12.4959 10.5229C12.4959 11.9433 12.0514 13.1125 11.1434 14.053Z" fill="black"/>
<path d="M30.6585 5.55274H33.5697V0.0078125H30.6585C27.6762 0.0078125 25.1747 1.00545 23.1933 3.00072C21.2118 5.01555 20.2109 7.51039 20.2109 10.4837C20.2109 13.4571 21.2118 15.9715 23.1933 17.9863C25.1747 20.0011 27.6762 20.9988 30.6585 20.9988H33.5697V15.4539H30.6585C29.2872 15.4539 28.1585 14.9738 27.268 14.0334C27.0385 13.7956 26.8395 13.5429 26.6695 13.2735H33.5697V7.73309H26.6579C26.8308 7.45773 27.0327 7.19741 27.268 6.95364C28.157 6.01319 29.2872 5.55274 30.6585 5.55274Z" fill="black"/>
</g>
<defs>
<clipPath id="clip0_1488_18717">
<rect width="93" height="21" fill="white"/>
</clipPath>
</defs>
</svg>
