<svg width="105" height="25" viewBox="0 0 105 25" fill="none" xmlns="http://www.w3.org/2000/svg">
<g clip-path="url(#clip0_956_6167)">
<path d="M93.2239 24.7492C89.8568 24.7492 87.0325 23.6091 84.7954 21.3064C82.5583 19.0037 81.4282 16.1525 81.4282 12.732C81.4282 9.31155 82.5583 6.48266 84.7954 4.18C87.0341 1.89797 89.8568 0.757812 93.2239 0.757812C96.5911 0.757812 99.394 1.89797 101.631 4.17828C103.868 6.48094 104.998 9.33219 104.998 12.7303C104.998 16.1284 103.868 19.002 101.631 21.3047C99.394 23.6073 96.5911 24.7475 93.2239 24.7475V24.7492ZM93.2239 18.4122C94.7509 18.4122 96.0269 17.8636 97.0519 16.7888C98.077 15.714 98.5789 14.3554 98.5789 12.732C98.5789 11.1086 98.077 9.77243 97.0519 8.69762C96.0269 7.62282 94.7509 7.09659 93.2239 7.09659C91.697 7.09659 90.4013 7.62282 89.3959 8.69762C88.3708 9.77243 87.8689 11.131 87.8689 12.732C87.8689 14.333 88.3708 15.714 89.3959 16.7888C90.3996 17.8636 91.6756 18.4122 93.2239 18.4122Z" fill="white"/>
<path d="M74.6711 12.7527H73.1196V16.8128C72.0994 17.8705 70.8333 18.4104 69.3194 18.4104C67.7728 18.4104 66.4968 17.8619 65.4931 16.787C64.468 15.7122 63.9661 14.3537 63.9661 12.7303C63.9661 11.1069 64.468 9.77071 65.4931 8.6959C66.4968 7.6211 67.7728 7.09487 69.3211 7.09487H72.6079V0.757812H69.3211C65.9539 0.757812 63.1297 1.89797 60.8925 4.17828C58.6554 6.48094 57.5254 9.33219 57.5254 12.7303C57.5254 16.1284 58.6554 19.002 60.8925 21.3047C63.1297 23.6073 65.9539 24.7475 69.3194 24.7475C72.6866 24.7475 75.4879 23.6073 77.7267 21.3047C78.2695 20.7458 78.7435 20.1542 79.1568 19.5317H79.1601V12.7527H74.6728H74.6711Z" fill="white"/>
<path d="M56.4462 18.1842H47.6175V0.75H41.3638V18.1842V24.7397H47.6175H56.4462V18.1842Z" fill="white"/>
<path d="M17.1818 4.20063C14.9447 1.89797 12.1204 0.757812 8.75328 0.757812H0V24.7475H8.75328C12.1204 24.7475 14.9447 23.6073 17.1818 21.327C19.4189 19.0244 20.549 16.1731 20.549 12.775C20.549 9.3769 19.4189 6.5033 17.1818 4.20063ZM12.5813 16.8094C11.5776 17.8842 10.3015 18.4104 8.75328 18.4104V18.4156H6.25375V7.08971H8.75328V7.09487C10.3015 7.09487 11.5759 7.64345 12.5813 8.71826C13.6064 9.79307 14.1082 11.1516 14.1082 12.775C14.1082 14.3984 13.6064 15.7346 12.5813 16.8094Z" fill="white"/>
<path d="M34.6145 7.09487H37.9013V0.757812H34.6145C31.2474 0.757812 28.4231 1.89797 26.186 4.17828C23.9489 6.48094 22.8188 9.33219 22.8188 12.7303C22.8188 16.1284 23.9489 19.002 26.186 21.3047C28.4231 23.6073 31.2474 24.7475 34.6145 24.7475H37.9013V18.4104H34.6145C33.0663 18.4104 31.7919 17.8619 30.7865 16.787C30.5274 16.5153 30.3027 16.2264 30.1108 15.9186H37.9013V9.5867H30.0977C30.2928 9.272 30.5208 8.97449 30.7865 8.6959C31.7903 7.6211 33.0663 7.09487 34.6145 7.09487Z" fill="white"/>
</g>
<defs>
<clipPath id="clip0_956_6167">
<rect width="105" height="24" fill="white" transform="translate(0 0.75)"/>
</clipPath>
</defs>
</svg>
