<svg width="30" height="24" viewBox="0 0 30 24" fill="none" xmlns="http://www.w3.org/2000/svg">
<path d="M14.638 13.8636C16.9164 13.8636 18.9614 14.8698 20.3554 16.3555C21.7589 17.8514 22.409 19.722 22.1209 21.4152C21.9899 22.185 21.7505 22.3297 21.6738 22.3724C21.5029 22.4676 21.1369 22.5494 20.3763 22.4639C19.7782 22.3966 19.1337 22.2548 18.3802 22.0891C18.1888 22.047 17.9904 22.0033 17.7839 21.9589C16.8265 21.7532 15.7204 21.5394 14.638 21.5394C13.5556 21.5394 12.4495 21.7532 11.4921 21.9589C11.2856 22.0033 11.0872 22.047 10.8958 22.0891C10.1423 22.2548 9.49774 22.3966 8.89965 22.4639C8.13911 22.5494 7.77312 22.4676 7.6022 22.3724C7.52546 22.3297 7.28612 22.185 7.15513 21.4152C6.86702 19.722 7.51712 17.8514 8.9206 16.3555C10.3145 14.8698 12.3596 13.8636 14.638 13.8636ZM17.1202 4.36364C17.1202 6.07727 15.8827 7.22727 14.638 7.22727C13.3933 7.22727 12.1558 6.07727 12.1558 4.36364C12.1558 2.65001 13.3933 1.5 14.638 1.5C15.8827 1.5 17.1202 2.65001 17.1202 4.36364ZM28.3967 9.44179C28.8106 10.9972 27.9534 12.3696 26.7794 12.6848C25.6086 12.9992 24.1885 12.2432 23.775 10.6896C23.3611 9.13422 24.2183 7.76185 25.3924 7.44662C26.5632 7.13226 27.9833 7.88818 28.3967 9.44179ZM3.22061 12.6848C2.04657 12.3696 1.18935 10.9972 1.60327 9.44179C2.0167 7.88818 3.43682 7.13226 4.60764 7.44662C5.78168 7.76185 6.6389 9.13422 6.22498 10.6896C5.81155 12.2432 4.39143 12.9992 3.22061 12.6848Z" fill="#474747" stroke="#474747" stroke-width="3"/>
</svg>
