<svg width="23" height="22" viewBox="0 0 23 22" fill="none" xmlns="http://www.w3.org/2000/svg">
<ellipse cx="11.5" cy="17.25" rx="2.46429" ry="1.64286" fill="#3F3F3F"/>
<path d="M10.9785 11.3977C12.6873 11.3977 14.2211 12.1524 15.2665 13.2666C16.3191 14.3886 16.8067 15.7915 16.5906 17.0614C16.4924 17.6388 16.3129 17.7472 16.2553 17.7793C16.1271 17.8507 15.8527 17.912 15.2823 17.8479C14.8337 17.7975 14.3503 17.6911 13.7852 17.5668C13.6416 17.5352 13.4928 17.5025 13.3379 17.4692C12.6199 17.3149 11.7903 17.1546 10.9785 17.1546C10.1667 17.1546 9.33713 17.3149 8.61905 17.4692C8.46419 17.5025 8.31537 17.5352 8.17183 17.5668C7.6067 17.6911 7.1233 17.7975 6.67474 17.8479C6.10433 17.912 5.82984 17.8507 5.70165 17.7793C5.6441 17.7472 5.46459 17.6388 5.36635 17.0614C5.15027 15.7915 5.63784 14.3886 6.69045 13.2666C7.7359 12.1524 9.26969 11.3977 10.9785 11.3977ZM12.8401 4.27273C12.8401 5.55795 11.912 6.42045 10.9785 6.42045C10.045 6.42045 9.11685 5.55795 9.11685 4.27273C9.11685 2.9875 10.045 2.125 10.9785 2.125C11.912 2.125 12.8401 2.9875 12.8401 4.27273ZM21.2975 8.08135C21.608 9.2479 20.9651 10.2772 20.0845 10.5136C19.2064 10.7494 18.1413 10.1824 17.8313 9.01722C17.5208 7.85067 18.1637 6.82138 19.0443 6.58496C19.9224 6.34919 20.9875 6.91613 21.2975 8.08135ZM2.41546 10.5136C1.53493 10.2772 0.892015 9.2479 1.20245 8.08135C1.51253 6.91614 2.57761 6.34919 3.45573 6.58496C4.33626 6.82138 4.97917 7.85066 4.66874 9.01722C4.35866 10.1824 3.29357 10.7494 2.41546 10.5136Z" fill="white" stroke="white" stroke-width="2.25"/>
</svg>
