<svg width="27" height="27" viewBox="0 0 27 27" fill="none" xmlns="http://www.w3.org/2000/svg">
<circle cx="13.5" cy="13.5" r="13.5" fill="#D9D9D9"/>
<path d="M14.319 14.6818C15.235 14.6818 16.0642 15.0871 16.6307 15.6909C17.1772 16.2733 17.3952 16.94 17.3336 17.4928C17.3145 17.4912 17.294 17.4891 17.272 17.4866C17.0154 17.4578 16.7417 17.3977 16.3724 17.3166C16.2723 17.2946 16.1652 17.2711 16.0495 17.2462C15.5689 17.1429 14.9472 17.0197 14.319 17.0197C13.6908 17.0197 13.0691 17.1429 12.5885 17.2462C12.4728 17.2711 12.3657 17.2946 12.2656 17.3166C11.8963 17.3977 11.6226 17.4578 11.366 17.4866C11.344 17.4891 11.3235 17.4912 11.3044 17.4928C11.2428 16.94 11.4608 16.2733 12.0073 15.6909C12.5738 15.0871 13.403 14.6818 14.319 14.6818ZM14.8101 9.18182C14.8101 9.41338 14.7249 9.59735 14.6189 9.71347C14.515 9.82732 14.4077 9.86364 14.319 9.86364C14.2303 9.86364 14.123 9.82732 14.0191 9.71347C13.9131 9.59735 13.8279 9.41338 13.8279 9.18182C13.8279 8.95026 13.9131 8.76628 14.0191 8.65017C14.123 8.53632 14.2303 8.5 14.319 8.5C14.4077 8.5 14.515 8.53632 14.6189 8.65017C14.7249 8.76628 14.8101 8.95026 14.8101 9.18182ZM20.4736 11.9138C20.5886 12.3459 20.3308 12.5816 20.1952 12.6181C20.0628 12.6536 19.7268 12.5823 19.6123 12.1519C19.4973 11.7198 19.755 11.4841 19.8907 11.4477C20.0231 11.4121 20.3591 11.4834 20.4736 11.9138ZM8.80479 12.6181C8.66916 12.5816 8.41142 12.3459 8.52641 11.9138C8.64093 11.4834 8.97692 11.4121 9.10934 11.4477C9.24497 11.4841 9.50271 11.7198 9.38772 12.1519C9.2732 12.5823 8.9372 12.6536 8.80479 12.6181Z" fill="#474747" stroke="#474747" stroke-width="3"/>
</svg>
