<svg width="21" height="23" viewBox="0 0 21 23" fill="none" xmlns="http://www.w3.org/2000/svg">
<path d="M5.07996 21.8857C3.95173 20.944 4.60996 18.289 5.07996 17.0791C5.28739 16.5452 5.36127 16.4514 5.78508 15.1172C6.38712 13.222 7.11653 10.7618 9.41156 9.91829C11.8281 9.03012 19.0822 12.8611 20.291 15.1172C21.802 18.5505 18.2944 20.12 17.1682 20.12C16.4494 20.12 12.5344 20.12 10.7211 21.8857C8.90788 23.6514 6.49025 23.0628 5.07996 21.8857Z" fill="#C4C4C4"/>
<path d="M5.07996 21.8857C3.95173 20.944 4.60996 18.289 5.07996 17.0791C5.28739 16.5452 5.36127 16.4514 5.78508 15.1172C6.38712 13.222 7.11653 10.7618 9.41156 9.91829C11.8281 9.03012 19.0822 12.8611 20.291 15.1172C21.802 18.5505 18.2944 20.12 17.1682 20.12C16.4494 20.12 12.5344 20.12 10.7211 21.8857C8.90788 23.6514 6.49025 23.0628 5.07996 21.8857Z" fill="#C4C4C4"/>
<path d="M13.6214 4.29115C13.6538 1.83167 11.6515 1.07227 10.6463 1C9.93126 1 8.50918 1.65823 8.54156 4.29115C8.58204 7.5823 11.0713 8.46913 11.7392 8.33117C12.4071 8.19322 13.5809 7.36551 13.6214 4.29115Z" fill="#C4C4C4"/>
<path d="M13.6214 4.29115C13.6538 1.83167 11.6515 1.07227 10.6463 1C9.93126 1 8.50918 1.65823 8.54156 4.29115C8.58204 7.5823 11.0713 8.46913 11.7392 8.33117C12.4071 8.19322 13.5809 7.36551 13.6214 4.29115Z" fill="#C4C4C4"/>
<path d="M2.32739 6.49052C1.8094 4.08311 3.62407 2.96258 4.59616 2.70325C5.29787 2.5692 6.82347 2.94854 7.31219 5.53829C7.92309 8.77548 5.65566 10.1123 4.97301 10.1022C4.29037 10.092 2.97488 9.49979 2.32739 6.49052Z" fill="#C4C4C4"/>
<path d="M2.32739 6.49052C1.8094 4.08311 3.62407 2.96258 4.59616 2.70325C5.29787 2.5692 6.82347 2.94854 7.31219 5.53829C7.92309 8.77548 5.65566 10.1123 4.97301 10.1022C4.29037 10.092 2.97488 9.49979 2.32739 6.49052Z" fill="#C4C4C4"/>
<path d="M18.1163 6.32042C17.0315 5.26409 15.8429 5.5781 15.3841 5.86715C14.6151 6.63571 14.6758 7.68026 14.8175 8.8233C14.9591 9.96633 16.6187 10.8335 18.1163 10.3211C19.6139 9.80867 19.4723 7.64083 18.1163 6.32042Z" fill="#C4C4C4"/>
<path d="M18.1163 6.32042C17.0315 5.26409 15.8429 5.5781 15.3841 5.86715C14.6151 6.63571 14.6758 7.68026 14.8175 8.8233C14.9591 9.96633 16.6187 10.8335 18.1163 10.3211C19.6139 9.80867 19.4723 7.64083 18.1163 6.32042Z" fill="#C4C4C4"/>
<path d="M1.0712 11.5978C2.15597 10.5414 3.34464 10.8554 3.80338 11.1445C4.57244 11.9131 4.51169 12.9576 4.37003 14.1006C4.22836 15.2437 2.56882 16.1108 1.0712 15.5984C-0.426428 15.086 -0.28477 12.9182 1.0712 11.5978Z" fill="#C4C4C4"/>
<path d="M1.0712 11.5978C2.15597 10.5414 3.34464 10.8554 3.80338 11.1445C4.57244 11.9131 4.51169 12.9576 4.37003 14.1006C4.22836 15.2437 2.56882 16.1108 1.0712 15.5984C-0.426428 15.086 -0.28477 12.9182 1.0712 11.5978Z" fill="#C4C4C4"/>
<path fill-rule="evenodd" clip-rule="evenodd" d="M7.70312 11.4583C7.97568 11.261 8.27862 11.0938 8.61691 10.9646C10.9419 10.0764 17.9213 13.9074 19.0844 16.1635C19.7154 17.6536 19.4368 18.7927 18.8307 19.6047C19.921 18.8305 20.8303 17.4298 19.9436 15.336C18.7806 13.0798 11.8012 9.24887 9.47617 10.137C8.73155 10.4215 8.15822 10.8898 7.70312 11.4583Z" fill="#C4C4C4"/>
<g filter="url(#filter0_f_1973_10817)">
<path fill-rule="evenodd" clip-rule="evenodd" d="M10.6161 1.43359C11.525 1.49894 13.3355 2.18561 13.3062 4.40952C13.283 6.17109 12.8483 7.11693 12.3792 7.60523C12.6309 7.05245 12.813 6.26085 12.8278 5.13756C12.8571 2.91365 11.0466 2.22698 10.1377 2.16164C9.83345 2.16164 9.38763 2.29343 9.00391 2.68104C9.41615 1.7182 10.169 1.43359 10.6161 1.43359Z" fill="#C4C4C4"/>
</g>
<g filter="url(#filter1_f_1973_10817)">
<path fill-rule="evenodd" clip-rule="evenodd" d="M4.43492 3.21289C5.35837 3.27763 7.19784 3.95792 7.16808 6.16118C7.14451 7.90632 6.70288 8.84336 6.22636 9.32714C6.48202 8.7795 6.66704 7.99527 6.68207 6.88247C6.71182 4.67921 4.87235 3.99892 3.9489 3.93418C3.63975 3.93418 3.18676 4.06476 2.79688 4.44881C3.21571 3.49487 3.98062 3.21289 4.43492 3.21289Z" fill="#C4C4C4"/>
</g>
<g filter="url(#filter2_f_1973_10817)">
<path fill-rule="evenodd" clip-rule="evenodd" d="M16.5256 5.92773C17.2558 5.97285 18.7102 6.44697 18.6867 7.98248C18.668 9.19878 18.3188 9.85184 17.942 10.189C18.1442 9.80732 18.2905 9.26076 18.3024 8.4852C18.3259 6.94968 16.8715 6.47557 16.1413 6.43045C15.8969 6.43045 15.5387 6.52144 15.2305 6.78907C15.5616 6.12425 16.1664 5.92773 16.5256 5.92773Z" fill="#C4C4C4"/>
</g>
<g filter="url(#filter3_f_1973_10817)">
<path fill-rule="evenodd" clip-rule="evenodd" d="M2.35936 11.2148C2.94626 11.2592 4.11534 11.7249 4.09643 13.2331C4.08145 14.428 3.80068 15.0695 3.49777 15.4006C3.66029 15.0257 3.77792 14.4888 3.78747 13.7269C3.80638 12.2186 2.6373 11.7529 2.0504 11.7086C1.85395 11.7086 1.56612 11.798 1.31836 12.0608C1.58457 11.4078 2.07065 11.2148 2.35936 11.2148Z" fill="#C4C4C4"/>
</g>
<path d="M5.43625 21.3865C4.4551 20.5676 5.02752 18.2587 5.43625 17.2066C5.61663 16.7423 5.68088 16.6607 6.04945 15.5005C6.573 13.8523 7.20731 11.7129 9.20315 10.9793C11.3046 10.2069 17.613 13.5385 18.6642 15.5005C19.9783 18.4862 16.928 19.851 15.9486 19.851C15.3235 19.851 11.9188 19.851 10.342 21.3865C8.76513 22.922 6.66268 22.4102 5.43625 21.3865Z" fill="#C4C4C4"/>
<defs>
<filter id="filter0_f_1973_10817" x="7.94985" y="0.37954" width="6.41084" height="8.27998" filterUnits="userSpaceOnUse" color-interpolation-filters="sRGB">
<feFlood flood-opacity="0" result="BackgroundImageFix"/>
<feBlend mode="normal" in="SourceGraphic" in2="BackgroundImageFix" result="shape"/>
<feGaussianBlur stdDeviation="0.527027" result="effect1_foregroundBlur_1973_10817"/>
</filter>
<filter id="filter1_f_1973_10817" x="1.74282" y="2.15884" width="6.4792" height="8.22139" filterUnits="userSpaceOnUse" color-interpolation-filters="sRGB">
<feFlood flood-opacity="0" result="BackgroundImageFix"/>
<feBlend mode="normal" in="SourceGraphic" in2="BackgroundImageFix" result="shape"/>
<feGaussianBlur stdDeviation="0.527027" result="effect1_foregroundBlur_1973_10817"/>
</filter>
<filter id="filter2_f_1973_10817" x="14.1764" y="4.87368" width="5.56514" height="6.36983" filterUnits="userSpaceOnUse" color-interpolation-filters="sRGB">
<feFlood flood-opacity="0" result="BackgroundImageFix"/>
<feBlend mode="normal" in="SourceGraphic" in2="BackgroundImageFix" result="shape"/>
<feGaussianBlur stdDeviation="0.527027" result="effect1_foregroundBlur_1973_10817"/>
</filter>
<filter id="filter3_f_1973_10817" x="0.264305" y="10.1608" width="4.88545" height="6.29366" filterUnits="userSpaceOnUse" color-interpolation-filters="sRGB">
<feFlood flood-opacity="0" result="BackgroundImageFix"/>
<feBlend mode="normal" in="SourceGraphic" in2="BackgroundImageFix" result="shape"/>
<feGaussianBlur stdDeviation="0.527027" result="effect1_foregroundBlur_1973_10817"/>
</filter>
</defs>
</svg>
