<svg width="21" height="23" viewBox="0 0 21 23" fill="none" xmlns="http://www.w3.org/2000/svg">
<path d="M5.07996 21.8837C3.95173 20.942 4.60996 18.287 5.07996 17.0772C5.28739 16.5432 5.36127 16.4495 5.78508 15.1153C6.38712 13.2201 7.11653 10.7599 9.41156 9.91634C11.8281 9.02816 19.0822 12.8591 20.291 15.1153C21.802 18.5486 18.2944 20.1181 17.1682 20.1181C16.4494 20.1181 12.5344 20.1181 10.7211 21.8837C8.90788 23.6494 6.49025 23.0609 5.07996 21.8837Z" fill="#474747"/>
<path d="M5.07996 21.8837C3.95173 20.942 4.60996 18.287 5.07996 17.0772C5.28739 16.5432 5.36127 16.4495 5.78508 15.1153C6.38712 13.2201 7.11653 10.7599 9.41156 9.91634C11.8281 9.02816 19.0822 12.8591 20.291 15.1153C21.802 18.5486 18.2944 20.1181 17.1682 20.1181C16.4494 20.1181 12.5344 20.1181 10.7211 21.8837C8.90788 23.6494 6.49025 23.0609 5.07996 21.8837Z" fill="#474747"/>
<path d="M13.6214 4.29115C13.6538 1.83167 11.6515 1.07227 10.6463 1C9.93126 1 8.50918 1.65823 8.54156 4.29115C8.58204 7.5823 11.0713 8.46913 11.7392 8.33117C12.4071 8.19322 13.5809 7.36551 13.6214 4.29115Z" fill="#474747"/>
<path d="M13.6214 4.29115C13.6538 1.83167 11.6515 1.07227 10.6463 1C9.93126 1 8.50918 1.65823 8.54156 4.29115C8.58204 7.5823 11.0713 8.46913 11.7392 8.33117C12.4071 8.19322 13.5809 7.36551 13.6214 4.29115Z" fill="#474747"/>
<path d="M2.32739 6.49052C1.8094 4.08311 3.62407 2.96258 4.59616 2.70325C5.29787 2.5692 6.82347 2.94854 7.31219 5.53829C7.92309 8.77548 5.65566 10.1123 4.97301 10.1022C4.29037 10.092 2.97488 9.49979 2.32739 6.49052Z" fill="#474747"/>
<path d="M2.32739 6.49052C1.8094 4.08311 3.62407 2.96258 4.59616 2.70325C5.29787 2.5692 6.82347 2.94854 7.31219 5.53829C7.92309 8.77548 5.65566 10.1123 4.97301 10.1022C4.29037 10.092 2.97488 9.49979 2.32739 6.49052Z" fill="#474747"/>
<path d="M18.1163 6.32237C17.0315 5.26604 15.8429 5.58005 15.3841 5.8691C14.6151 6.63767 14.6758 7.68222 14.8175 8.82525C14.9591 9.96828 16.6187 10.8354 18.1163 10.323C19.6139 9.81062 19.4723 7.64279 18.1163 6.32237Z" fill="#474747"/>
<path d="M18.1163 6.32237C17.0315 5.26604 15.8429 5.58005 15.3841 5.8691C14.6151 6.63767 14.6758 7.68222 14.8175 8.82525C14.9591 9.96828 16.6187 10.8354 18.1163 10.323C19.6139 9.81062 19.4723 7.64279 18.1163 6.32237Z" fill="#474747"/>
<path d="M1.0712 11.5997C2.15597 10.5434 3.34464 10.8574 3.80338 11.1464C4.57244 11.915 4.51169 12.9596 4.37003 14.1026C4.22836 15.2456 2.56882 16.1128 1.0712 15.6004C-0.426428 15.088 -0.28477 12.9201 1.0712 11.5997Z" fill="#474747"/>
<path d="M1.0712 11.5997C2.15597 10.5434 3.34464 10.8574 3.80338 11.1464C4.57244 11.915 4.51169 12.9596 4.37003 14.1026C4.22836 15.2456 2.56882 16.1128 1.0712 15.6004C-0.426428 15.088 -0.28477 12.9201 1.0712 11.5997Z" fill="#474747"/>
<path fill-rule="evenodd" clip-rule="evenodd" d="M7.70312 11.4563C7.97568 11.259 8.27862 11.0919 8.61691 10.9626C10.9419 10.0744 17.9213 13.9054 19.0844 16.1616C19.7154 17.6517 19.4368 18.7907 18.8307 19.6027C19.921 18.8285 20.8303 17.4279 19.9436 15.334C18.7806 13.0779 11.8012 9.24691 9.47617 10.1351C8.73155 10.4195 8.15822 10.8878 7.70312 11.4563Z" fill="#474747"/>
<g filter="url(#filter0_f_1973_24893)">
<path fill-rule="evenodd" clip-rule="evenodd" d="M10.6161 1.43359C11.525 1.49894 13.3355 2.18561 13.3062 4.40952C13.283 6.17109 12.8483 7.11693 12.3792 7.60523C12.6309 7.05245 12.813 6.26085 12.8278 5.13756C12.8571 2.91365 11.0466 2.22698 10.1377 2.16164C9.83345 2.16164 9.38763 2.29343 9.00391 2.68104C9.41615 1.7182 10.169 1.43359 10.6161 1.43359Z" fill="#474747"/>
</g>
<g filter="url(#filter1_f_1973_24893)">
<path fill-rule="evenodd" clip-rule="evenodd" d="M4.43492 3.21094C5.35837 3.27567 7.19784 3.95596 7.16808 6.15922C7.14451 7.90436 6.70288 8.8414 6.22636 9.32519C6.48202 8.77754 6.66704 7.99332 6.68207 6.88051C6.71182 4.67725 4.87235 3.99696 3.9489 3.93223C3.63975 3.93223 3.18676 4.06281 2.79688 4.44686C3.21571 3.49292 3.98062 3.21094 4.43492 3.21094Z" fill="#474747"/>
</g>
<g filter="url(#filter2_f_1973_24893)">
<path fill-rule="evenodd" clip-rule="evenodd" d="M16.5256 5.92578C17.2558 5.9709 18.7102 6.44501 18.6867 7.98053C18.668 9.19683 18.3188 9.84988 17.942 10.187C18.1442 9.80537 18.2905 9.25881 18.3024 8.48325C18.3259 6.94773 16.8715 6.47361 16.1413 6.4285C15.8969 6.4285 15.5387 6.51949 15.2305 6.78712C15.5616 6.1223 16.1664 5.92578 16.5256 5.92578Z" fill="#474747"/>
</g>
<g filter="url(#filter3_f_1973_24893)">
<path fill-rule="evenodd" clip-rule="evenodd" d="M2.35936 11.2148C2.94626 11.2592 4.11534 11.7249 4.09643 13.2331C4.08145 14.428 3.80068 15.0695 3.49777 15.4006C3.66029 15.0257 3.77792 14.4888 3.78747 13.7269C3.80638 12.2186 2.6373 11.7529 2.0504 11.7086C1.85395 11.7086 1.56612 11.798 1.31836 12.0608C1.58457 11.4078 2.07065 11.2148 2.35936 11.2148Z" fill="#474747"/>
</g>
<path d="M5.43625 21.3885C4.4551 20.5695 5.02752 18.2607 5.43625 17.2085C5.61663 16.7442 5.68088 16.6627 6.04945 15.5024C6.573 13.8543 7.20731 11.7148 9.20315 10.9813C11.3046 10.2089 17.613 13.5404 18.6642 15.5024C19.9783 18.4881 16.928 19.853 15.9486 19.853C15.3235 19.853 11.9188 19.853 10.342 21.3885C8.76513 22.924 6.66268 22.4122 5.43625 21.3885Z" fill="#474747"/>
<defs>
<filter id="filter0_f_1973_24893" x="7.94985" y="0.37954" width="6.41084" height="8.27998" filterUnits="userSpaceOnUse" color-interpolation-filters="sRGB">
<feFlood flood-opacity="0" result="BackgroundImageFix"/>
<feBlend mode="normal" in="SourceGraphic" in2="BackgroundImageFix" result="shape"/>
<feGaussianBlur stdDeviation="0.527027" result="effect1_foregroundBlur_1973_24893"/>
</filter>
<filter id="filter1_f_1973_24893" x="1.74282" y="2.15688" width="6.4792" height="8.22139" filterUnits="userSpaceOnUse" color-interpolation-filters="sRGB">
<feFlood flood-opacity="0" result="BackgroundImageFix"/>
<feBlend mode="normal" in="SourceGraphic" in2="BackgroundImageFix" result="shape"/>
<feGaussianBlur stdDeviation="0.527027" result="effect1_foregroundBlur_1973_24893"/>
</filter>
<filter id="filter2_f_1973_24893" x="14.1764" y="4.87173" width="5.56514" height="6.36983" filterUnits="userSpaceOnUse" color-interpolation-filters="sRGB">
<feFlood flood-opacity="0" result="BackgroundImageFix"/>
<feBlend mode="normal" in="SourceGraphic" in2="BackgroundImageFix" result="shape"/>
<feGaussianBlur stdDeviation="0.527027" result="effect1_foregroundBlur_1973_24893"/>
</filter>
<filter id="filter3_f_1973_24893" x="0.264305" y="10.1608" width="4.88545" height="6.29561" filterUnits="userSpaceOnUse" color-interpolation-filters="sRGB">
<feFlood flood-opacity="0" result="BackgroundImageFix"/>
<feBlend mode="normal" in="SourceGraphic" in2="BackgroundImageFix" result="shape"/>
<feGaussianBlur stdDeviation="0.527027" result="effect1_foregroundBlur_1973_24893"/>
</filter>
</defs>
</svg>
