<svg xmlns="http://www.w3.org/2000/svg" width="63" height="63" fill="none">
  <circle cx="31.5" cy="31.5" r="31.5" fill="#8A8A8A"/>
  <path fill="#FFA0C2" d="M19.178 22.885C14.45 29.049 25.09 40.863 31 46c5.91-5.137 16.55-16.951 11.822-23.115C38.093 16.72 32.97 25.453 31 30.59c-1.97-5.137-7.093-13.87-11.822-7.705Z"/>
  <path fill="url(#a)" d="M19.178 22.885C14.45 29.049 25.09 40.863 31 46c5.91-5.137 16.55-16.951 11.822-23.115C38.093 16.72 32.97 25.453 31 30.59c-1.97-5.137-7.093-13.87-11.822-7.705Z"/>
  <path fill="url(#b)" d="M42.822 22.885C47.55 29.049 36.91 40.863 31 46c-5.91-5.137-16.55-16.951-11.822-23.115C23.907 16.72 29.03 25.453 31 30.59c1.97-5.137 7.093-13.87 11.822-7.705Z"/>
  <g filter="url(#c)">
    <path fill="url(#d)" d="M19.178 22.885C14.45 29.049 25.09 40.863 31 46c5.91-5.137 16.55-16.951 11.822-23.115C38.093 16.72 32.97 25.453 31 30.59c-1.97-5.137-7.093-13.87-11.822-7.705Z" shape-rendering="crispEdges"/>
  </g>
  <g filter="url(#e)">
    <path fill="#fff" fill-opacity=".1" fill-rule="evenodd" d="M22.642 20.765c-1.144.004-2.315.623-3.464 2.12C14.45 29.049 25.09 40.863 31 46l.265-.231c-4.545-6.301-11.29-18.365-8.623-25.004Z" clip-rule="evenodd"/>
  </g>
  <g filter="url(#f)">
    <path fill="#EF4870" fill-opacity=".33" fill-rule="evenodd" d="M39.228 20.765c1.144.004 2.316.623 3.464 2.12 4.729 6.164-5.91 17.978-11.821 23.115a51.533 51.533 0 0 1-.265-.231c4.545-6.301 11.29-18.365 8.622-25.004Z" clip-rule="evenodd"/>
  </g>
  <g filter="url(#g)" opacity=".3">
    <ellipse fill="#fff" rx=".955" ry="4.567" transform="matrix(-.83257 -.55392 .57688 -.81683 35.611 25.789)"/>
  </g>
  <g filter="url(#h)" opacity=".3">
    <ellipse cx="21.151" cy="23.823" fill="#fff" rx="1.576" ry="1.529"/>
  </g>
  <defs>
    <filter id="c" width="38" height="37.235" x="12" y="15.765" color-interpolation-filters="sRGB" filterUnits="userSpaceOnUse">
      <feFlood flood-opacity="0" result="BackgroundImageFix"/>
      <feColorMatrix in="SourceAlpha" result="hardAlpha" values="0 0 0 0 0 0 0 0 0 0 0 0 0 0 0 0 0 0 127 0"/>
      <feOffset dy="1"/>
      <feGaussianBlur stdDeviation="3"/>
      <feComposite in2="hardAlpha" operator="out"/>
      <feColorMatrix values="0 0 0 0 0 0 0 0 0 0 0 0 0 0 0 0 0 0 0.15 0"/>
      <feBlend in2="BackgroundImageFix" result="effect1_dropShadow_1673_23486"/>
      <feBlend in="SourceGraphic" in2="effect1_dropShadow_1673_23486" result="shape"/>
    </filter>
    <filter id="e" width="17.264" height="29.235" x="16" y="18.765" color-interpolation-filters="sRGB" filterUnits="userSpaceOnUse">
      <feFlood flood-opacity="0" result="BackgroundImageFix"/>
      <feBlend in="SourceGraphic" in2="BackgroundImageFix" result="shape"/>
      <feGaussianBlur result="effect1_foregroundBlur_1673_23486" stdDeviation="1"/>
    </filter>
    <filter id="f" width="17.264" height="29.235" x="28.606" y="18.765" color-interpolation-filters="sRGB" filterUnits="userSpaceOnUse">
      <feFlood flood-opacity="0" result="BackgroundImageFix"/>
      <feBlend in="SourceGraphic" in2="BackgroundImageFix" result="shape"/>
      <feGaussianBlur result="effect1_foregroundBlur_1673_23486" stdDeviation="1"/>
    </filter>
    <filter id="g" width="15.505" height="17.536" x="27.859" y="17.021" color-interpolation-filters="sRGB" filterUnits="userSpaceOnUse">
      <feFlood flood-opacity="0" result="BackgroundImageFix"/>
      <feBlend in="SourceGraphic" in2="BackgroundImageFix" result="shape"/>
      <feGaussianBlur result="effect1_foregroundBlur_1673_23486" stdDeviation="2.5"/>
    </filter>
    <filter id="h" width="7.152" height="7.059" x="17.576" y="20.294" color-interpolation-filters="sRGB" filterUnits="userSpaceOnUse">
      <feFlood flood-opacity="0" result="BackgroundImageFix"/>
      <feBlend in="SourceGraphic" in2="BackgroundImageFix" result="shape"/>
      <feGaussianBlur result="effect1_foregroundBlur_1673_23486" stdDeviation="1"/>
    </filter>
    <linearGradient id="a" x1="38.091" x2="19.62" y1="43.706" y2="28.64" gradientUnits="userSpaceOnUse">
      <stop stop-color="#FF3F61"/>
      <stop offset=".629" stop-color="#FF4D82" stop-opacity="0"/>
    </linearGradient>
    <linearGradient id="b" x1="23.909" x2="42.38" y1="43.706" y2="28.64" gradientUnits="userSpaceOnUse">
      <stop stop-color="#FF3F61"/>
      <stop offset=".629" stop-color="#FF4D82" stop-opacity="0"/>
    </linearGradient>
    <radialGradient id="d" cx="0" cy="0" r="1" gradientTransform="matrix(0 14.9117 -15.3636 0 31 32.618)" gradientUnits="userSpaceOnUse">
      <stop stop-color="#FF4874" stop-opacity=".35"/>
      <stop offset=".573" stop-color="#F26690" stop-opacity=".32"/>
      <stop offset=".854" stop-color="#F1608C"/>
    </radialGradient>
  </defs>
</svg>
