<svg width="63" height="63" viewBox="0 0 63 63" fill="none" xmlns="http://www.w3.org/2000/svg">
<circle cx="31.5" cy="31.5" r="31.5" fill="#3F3F3F"/>
<path d="M27.478 24.296H29.34V37.19H27.478V24.296ZM19.316 25.64H25.504C25.504 26.62 25.4107 27.558 25.224 28.454C25.0373 29.35 24.7153 30.1947 24.258 30.988C23.81 31.772 23.208 32.5047 22.452 33.186C21.696 33.858 20.744 34.4693 19.596 35.02L18.63 33.564C19.4513 33.172 20.1607 32.752 20.758 32.304C21.3553 31.8467 21.8547 31.352 22.256 30.82C22.6573 30.288 22.9653 29.714 23.18 29.098C23.404 28.482 23.5487 27.8193 23.614 27.11H19.316V25.64ZM43.4509 29.196V30.722H41.5749V37.218H39.7269V24.31H41.5749V29.196H43.4509ZM33.8329 30.414V32.808C34.7382 32.808 35.5829 32.7847 36.3669 32.738C37.1602 32.6913 37.9769 32.6027 38.8169 32.472L38.9849 33.942C38.4902 34.0167 38.0096 34.0773 37.5429 34.124C37.0762 34.1707 36.6049 34.208 36.1289 34.236C35.6529 34.2547 35.1629 34.2687 34.6589 34.278C34.1642 34.2873 33.6369 34.292 33.0769 34.292H31.9849V25.374H38.0469V26.872H33.8329V28.972H37.8649V30.414H33.8329Z" fill="white"/>
</svg>
