<svg width="28" height="28" viewBox="0 0 28 28" fill="none" xmlns="http://www.w3.org/2000/svg">
<g clip-path="url(#clip0_1589_20790)">
<path d="M23.4421 2.33247C23.4421 2.12619 23.3601 1.92835 23.2143 1.78249C23.0684 1.63663 22.8706 1.55469 22.6643 1.55469H5.55317C5.34689 1.55469 5.14906 1.63663 5.0032 1.78249C4.85733 1.92835 4.77539 2.12619 4.77539 2.33247V3.11024H23.4421V2.33247Z" fill="#3F3F3F"/>
<path d="M24.9829 5.44379C24.9829 5.23751 24.9009 5.03968 24.7551 4.89382C24.6092 4.74796 24.4114 4.66602 24.2051 4.66602H3.98286C3.77658 4.66602 3.57875 4.74796 3.43288 4.89382C3.28702 5.03968 3.20508 5.23751 3.20508 5.44379V6.22157H24.9829V5.44379Z" fill="#3F3F3F"/>
<path d="M24.9814 7.77734H3.01691C2.6291 7.77734 2.25718 7.9314 1.98296 8.20562C1.70874 8.47984 1.55469 8.85176 1.55469 9.23957V23.4262C1.55469 23.814 1.70874 24.186 1.98296 24.4602C2.25718 24.7344 2.6291 24.8885 3.01691 24.8885H24.9814C25.3692 24.8885 25.7411 24.7344 26.0153 24.4602C26.2895 24.186 26.4436 23.814 26.4436 23.4262V9.23957C26.4436 8.85176 26.2895 8.47984 26.0153 8.20562C25.7411 7.9314 25.3692 7.77734 24.9814 7.77734V7.77734ZM6.65691 10.4607C7.1184 10.4607 7.56953 10.5975 7.95324 10.8539C8.33695 11.1103 8.63602 11.4747 8.81263 11.9011C8.98923 12.3274 9.03544 12.7966 8.94541 13.2492C8.85538 13.7018 8.63315 14.1176 8.30683 14.4439C7.9805 14.7702 7.56474 14.9925 7.11212 15.0825C6.6595 15.1725 6.19034 15.1263 5.76398 14.9497C5.33762 14.7731 4.9732 14.4741 4.71681 14.0903C4.46042 13.7066 4.32358 13.2555 4.32358 12.794C4.32358 12.1752 4.56941 11.5817 5.00699 11.1441C5.44458 10.7065 6.03807 10.4607 6.65691 10.4607V10.4607ZM23.3325 21.7773H4.6658L10.468 15.9673C10.5715 15.8648 10.7112 15.8072 10.8569 15.8072C11.0026 15.8072 11.1424 15.8648 11.2458 15.9673L14.108 18.8296L18.0514 14.7773C18.1548 14.6748 18.2946 14.6172 18.4402 14.6172C18.5859 14.6172 18.7257 14.6748 18.8291 14.7773L23.3325 19.2807V21.7773Z" fill="#3F3F3F"/>
</g>
<defs>
<clipPath id="clip0_1589_20790">
<rect width="28" height="28" fill="white"/>
</clipPath>
</defs>
</svg>
