<svg width="50" height="59" viewBox="0 0 50 59" fill="none" xmlns="http://www.w3.org/2000/svg">
<path fill-rule="evenodd" clip-rule="evenodd" d="M30.9572 48.6499C41.8022 46.0577 49.865 36.3017 49.865 24.6625C49.865 11.0418 38.8232 0 25.2025 0C11.5818 0 0.540039 11.0418 0.540039 24.6625C0.540039 36.3015 8.60265 46.0575 19.4474 48.6499L25.2023 58.6176L30.9572 48.6499Z" fill="#AA93EC"/>
<path d="M26.0875 20.0584L21.0287 22.9189C19.0082 24.0613 16.4248 23.3834 15.2583 21.4046L15.1791 21.2702C14.0126 19.2915 14.7048 16.7613 16.7252 15.6189L21.7841 12.7584L26.0875 20.0584Z" fill="#DACDFF"/>
<path d="M24.8513 28.7434L27.7721 23.7889C28.9386 21.8101 31.522 21.1322 33.5424 22.2746L33.6797 22.3522C35.7001 23.4946 36.3923 26.0248 35.2258 28.0035L32.3051 32.958L24.8513 28.7434Z" fill="#E9CDFF"/>
<path fill-rule="evenodd" clip-rule="evenodd" d="M26.0913 20.0563C26.09 20.0571 26.0887 20.0578 26.0874 20.0585C25.0263 20.6586 23.2027 19.5108 22.0143 17.4949C20.8259 15.4791 20.7228 13.3585 21.784 12.7585C21.784 12.7585 21.7841 12.7584 21.7841 12.7584L26.7744 9.93671C28.8327 8.77285 31.4646 9.46353 32.653 11.4794C33.8413 13.4952 33.1361 16.0729 31.0778 17.2367L26.0913 20.0563Z" fill="#8269CB"/>
<path fill-rule="evenodd" clip-rule="evenodd" d="M24.8491 28.7472C24.8499 28.7459 24.8506 28.7447 24.8513 28.7434C25.464 27.7041 27.6292 27.8051 29.6875 28.969C31.7458 30.1328 32.9178 31.9188 32.3051 32.9581C32.3051 32.9581 32.305 32.9582 32.305 32.9582L29.4239 37.8455C28.2356 39.8614 25.6036 40.5521 23.5453 39.3882C21.487 38.2244 20.7818 35.6467 21.9702 33.6309L24.8491 28.7472Z" fill="#9041B5"/>
<path fill-rule="evenodd" clip-rule="evenodd" d="M26.0874 20.0585L21.0972 22.8802C19.0389 24.044 16.407 23.3533 15.2186 21.3375C15.1369 21.1989 15.0642 21.0577 15.0002 20.9145C16.2828 22.6198 18.6971 23.1442 20.614 22.0604L25.6042 19.2387L30.5944 16.417C32.5112 15.3332 33.2546 13.0232 32.388 11.0827C32.4826 11.2086 32.5711 11.3409 32.6528 11.4794C33.8412 13.4953 33.136 16.0729 31.0777 17.2368L26.0874 20.0585Z" fill="#B2ABC8" fill-opacity="0.3" style="mix-blend-mode:color-burn"/>
<path fill-rule="evenodd" clip-rule="evenodd" d="M24.8513 28.7434L27.7324 23.8561C28.9207 21.8402 31.5527 21.1496 33.611 22.3134C33.7524 22.3934 33.8875 22.4801 34.0161 22.5728C32.0347 21.7241 29.6761 22.4521 28.5694 24.3294L25.6883 29.2167L22.8072 34.104C21.7005 35.9813 22.236 38.3458 23.9772 39.602C23.831 39.5393 23.6868 39.4681 23.5453 39.3881C21.487 38.2242 20.7818 35.6466 21.9702 33.6307L24.8513 28.7434Z" fill="#B2ABC8" fill-opacity="0.3" style="mix-blend-mode:color-burn"/>
<path fill-rule="evenodd" clip-rule="evenodd" d="M22.2253 13.5163L17.8502 15.9901C15.7413 17.1826 15.0187 19.8236 16.2363 21.8891C16.32 22.031 16.4107 22.1666 16.5077 22.2956C15.6197 20.3073 16.3814 17.9405 18.3453 16.83L22.7204 14.3562L22.2253 13.5163ZM22.2337 13.5115L26.6088 11.0377C28.7177 9.84519 31.4143 10.5529 32.6319 12.6183C32.7156 12.7602 32.7901 12.9049 32.8557 13.0517C31.5415 11.3045 29.0679 10.7671 27.1039 11.8776L22.7288 14.3514L22.2337 13.5115Z" fill="url(#paint0_linear_2_3)"/>
<path fill-rule="evenodd" clip-rule="evenodd" d="M31.5361 32.5178L34.062 28.233C35.2796 26.1676 34.5571 23.5265 32.4481 22.3341C32.3032 22.2521 32.1554 22.1791 32.0056 22.1149C33.7896 23.402 34.3383 25.8246 33.2044 27.7481L30.6785 32.0329L31.5361 32.5178ZM31.5312 32.5261L29.0053 36.8109C27.7877 38.8763 25.091 39.584 22.9821 38.3915C22.8372 38.3096 22.6988 38.2208 22.5671 38.1258C24.5972 38.9954 27.0138 38.2495 28.1477 36.326L30.6736 32.0412L31.5312 32.5261Z" fill="url(#paint1_linear_2_3)"/>
<path d="M15.2187 21.3374C14.0303 19.3216 14.7355 16.7439 16.7938 15.5801L26.7743 9.93669C28.8326 8.77283 31.4645 9.46352 32.6529 11.4794C33.8413 13.4952 33.136 16.0729 31.0777 17.2367L21.0973 22.8801C19.039 24.044 16.407 23.3533 15.2187 21.3374Z" fill="url(#paint2_linear_2_3)"/>
<path d="M33.6111 22.3135C35.6694 23.4773 36.3746 26.055 35.1862 28.0708L29.424 37.8455C28.2356 39.8613 25.6037 40.552 23.5454 39.3882C21.4871 38.2243 20.7819 35.6467 21.9702 33.6308L27.7325 23.8562C28.9208 21.8403 31.5528 21.1496 33.6111 22.3135Z" fill="url(#paint3_linear_2_3)"/>
<defs>
<linearGradient id="paint0_linear_2_3" x1="28.2536" y1="8.10631" x2="29.6819" y2="10.7385" gradientUnits="userSpaceOnUse">
<stop stop-color="#C9B6FF"/>
<stop offset="1" stop-color="#C9B6FF" stop-opacity="0"/>
</linearGradient>
<linearGradient id="paint1_linear_2_3" x1="29.0773" y1="40.155" x2="26.4984" y2="38.572" gradientUnits="userSpaceOnUse">
<stop stop-color="#C9B6FF"/>
<stop offset="1" stop-color="#C9B6FF" stop-opacity="0"/>
</linearGradient>
<linearGradient id="paint2_linear_2_3" x1="30.841" y1="28.122" x2="24.1493" y2="16.2876" gradientUnits="userSpaceOnUse">
<stop stop-color="#8042A6"/>
<stop offset="1" stop-color="#473772" stop-opacity="0"/>
</linearGradient>
<linearGradient id="paint3_linear_2_3" x1="16.618" y1="24.088" x2="28.4524" y2="31.0645" gradientUnits="userSpaceOnUse">
<stop stop-color="#8042A6"/>
<stop offset="1" stop-color="#473772" stop-opacity="0"/>
</linearGradient>
</defs>
</svg>
