<svg width="24" height="24" viewBox="0 0 24 24" fill="none" xmlns="http://www.w3.org/2000/svg">
<rect width="23.1998" height="23.1998" rx="11.5999" fill="#AA93EC"/>
<path d="M7.94815 17V6.09091H12.2521C13.0795 6.09091 13.7844 6.24893 14.3668 6.56499C14.9492 6.87749 15.3931 7.3125 15.6985 7.87003C16.0075 8.42401 16.1619 9.06321 16.1619 9.78764C16.1619 10.5121 16.0057 11.1513 15.6932 11.7053C15.3807 12.2592 14.9279 12.6907 14.3349 12.9996C13.7454 13.3086 13.0316 13.4631 12.1935 13.4631H9.45028V11.6147H11.8207C12.2646 11.6147 12.6303 11.5384 12.918 11.3857C13.2092 11.2294 13.4258 11.0146 13.5678 10.7411C13.7134 10.4641 13.7862 10.1463 13.7862 9.78764C13.7862 9.42543 13.7134 9.10937 13.5678 8.83949C13.4258 8.56605 13.2092 8.35476 12.918 8.20561C12.6268 8.05291 12.2575 7.97656 11.81 7.97656H10.2546V17H7.94815Z" fill="white"/>
</svg>
