<svg width="8" height="14" viewBox="0 0 8 14" fill="none" xmlns="http://www.w3.org/2000/svg">
<path d="M1.94933 0.578279C1.5654 0.181266 0.932324 0.170655 0.535311 0.554581C0.138297 0.938506 0.127687 1.57158 0.511612 1.9686L1.94933 0.578279ZM6.76893 7.00071L7.48779 7.69587C7.86264 7.30823 7.86264 6.69319 7.48779 6.30555L6.76893 7.00071ZM0.511612 12.0328C0.127687 12.4298 0.138297 13.0629 0.535311 13.4468C0.932324 13.8308 1.5654 13.8202 1.94933 13.4231L0.511612 12.0328ZM0.511612 1.9686L6.05007 7.69587L7.48779 6.30555L1.94933 0.578279L0.511612 1.9686ZM6.05007 6.30555L0.511612 12.0328L1.94933 13.4231L7.48779 7.69587L6.05007 6.30555Z" fill="#8A8A8A"/>
</svg>
