<svg width="21" height="21" viewBox="0 0 21 21" fill="none" xmlns="http://www.w3.org/2000/svg">
<circle cx="10.5" cy="10.5" r="9.65" fill="#91CF9B" stroke="white" stroke-width="0.3"/>
<path d="M6.36836 16.9018C6.02001 16.6044 6.22324 15.7659 6.36836 15.3839C6.4324 15.2152 6.45521 15.1856 6.58607 14.7643C6.77195 14.1658 6.99715 13.3888 7.70575 13.1224C8.45186 12.8419 10.6916 14.0518 11.0648 14.7643C11.5313 15.8485 10.4484 16.3442 10.1006 16.3442C9.8787 16.3442 8.66992 16.3442 8.11008 16.9018C7.55024 17.4594 6.80379 17.2735 6.36836 16.9018Z" fill="white"/>
<path d="M6.36836 16.9018C6.02001 16.6044 6.22324 15.7659 6.36836 15.3839C6.4324 15.2152 6.45521 15.1856 6.58607 14.7643C6.77195 14.1658 6.99715 13.3888 7.70575 13.1224C8.45186 12.8419 10.6916 14.0518 11.0648 14.7643C11.5313 15.8485 10.4484 16.3442 10.1006 16.3442C9.8787 16.3442 8.66992 16.3442 8.11008 16.9018C7.55024 17.4594 6.80379 17.2735 6.36836 16.9018Z" fill="white"/>
<path d="M9.00583 11.3453C9.01583 10.5686 8.39763 10.3288 8.08728 10.306C7.8665 10.306 7.42743 10.5138 7.43742 11.3453C7.44992 12.3847 8.2185 12.6648 8.42471 12.6212C8.63091 12.5776 8.99333 12.3162 9.00583 11.3453Z" fill="white"/>
<path d="M9.00583 11.3453C9.01583 10.5686 8.39763 10.3288 8.08728 10.306C7.8665 10.306 7.42743 10.5138 7.43742 11.3453C7.44992 12.3847 8.2185 12.6648 8.42471 12.6212C8.63091 12.5776 8.99333 12.3162 9.00583 11.3453Z" fill="white"/>
<path d="M5.51846 12.0398C5.35852 11.2795 5.91881 10.9256 6.21894 10.8437C6.4356 10.8014 6.90663 10.9212 7.05753 11.7391C7.24614 12.7614 6.54607 13.1836 6.3353 13.1804C6.12453 13.1772 5.71837 12.9901 5.51846 12.0398Z" fill="white"/>
<path d="M5.51846 12.0398C5.35852 11.2795 5.91881 10.9256 6.21894 10.8437C6.4356 10.8014 6.90663 10.9212 7.05753 11.7391C7.24614 12.7614 6.54607 13.1836 6.3353 13.1804C6.12453 13.1772 5.71837 12.9901 5.51846 12.0398Z" fill="white"/>
<path d="M10.393 11.9864C10.0581 11.6528 9.69111 11.752 9.54947 11.8433C9.31202 12.086 9.33078 12.4158 9.37452 12.7768C9.41826 13.1378 9.93065 13.4116 10.393 13.2498C10.8554 13.088 10.8117 12.4034 10.393 11.9864Z" fill="white"/>
<path d="M10.393 11.9864C10.0581 11.6528 9.69111 11.752 9.54947 11.8433C9.31202 12.086 9.33078 12.4158 9.37452 12.7768C9.41826 13.1378 9.93065 13.4116 10.393 13.2498C10.8554 13.088 10.8117 12.4034 10.393 11.9864Z" fill="white"/>
<path d="M5.13064 13.6529C5.46557 13.3193 5.83257 13.4185 5.97421 13.5098C6.21166 13.7525 6.1929 14.0824 6.14916 14.4433C6.10542 14.8043 5.59304 15.0782 5.13064 14.9163C4.66824 14.7545 4.71198 14.0699 5.13064 13.6529Z" fill="white"/>
<path d="M5.13064 13.6529C5.46557 13.3193 5.83257 13.4185 5.97421 13.5098C6.21166 13.7525 6.1929 14.0824 6.14916 14.4433C6.10542 14.8043 5.59304 15.0782 5.13064 14.9163C4.66824 14.7545 4.71198 14.0699 5.13064 13.6529Z" fill="white"/>
<path fill-rule="evenodd" clip-rule="evenodd" d="M7.17834 13.6086C7.2625 13.5463 7.35603 13.4935 7.46048 13.4527C8.17834 13.1722 10.3332 14.3821 10.6923 15.0946C10.8872 15.5652 10.8011 15.9249 10.614 16.1813C10.9506 15.9368 11.2314 15.4945 10.9576 14.8332C10.5985 14.1207 8.44363 12.9109 7.72578 13.1914C7.49587 13.2812 7.31886 13.4291 7.17834 13.6086Z" fill="white"/>
<g filter="url(#filter0_f_1477_23395)">
<path fill-rule="evenodd" clip-rule="evenodd" d="M8.0776 10.4429C8.35823 10.4635 8.91721 10.6804 8.90817 11.3827C8.90101 11.939 8.76679 12.2377 8.62198 12.3919C8.69967 12.2173 8.7559 11.9673 8.76047 11.6126C8.76951 10.9103 8.21053 10.6934 7.9299 10.6728C7.83596 10.6728 7.69831 10.7144 7.57983 10.8368C7.70711 10.5328 7.93955 10.4429 8.0776 10.4429Z" fill="white"/>
</g>
<g filter="url(#filter1_f_1477_23395)">
<path fill-rule="evenodd" clip-rule="evenodd" d="M6.16896 11.0046C6.45408 11.025 7.02202 11.2399 7.01283 11.9357C7.00555 12.4868 6.8692 12.7827 6.72207 12.9355C6.80101 12.7625 6.85813 12.5149 6.86277 12.1635C6.87196 11.4676 6.30402 11.2528 6.0189 11.2324C5.92345 11.2324 5.78359 11.2736 5.66321 11.3949C5.79253 11.0936 6.02869 11.0046 6.16896 11.0046Z" fill="white"/>
</g>
<g filter="url(#filter2_f_1477_23395)">
<path fill-rule="evenodd" clip-rule="evenodd" d="M9.90196 11.8621C10.1274 11.8764 10.5765 12.0261 10.5692 12.511C10.5634 12.8951 10.4556 13.1014 10.3393 13.2079C10.4017 13.0873 10.4469 12.9147 10.4505 12.6698C10.4578 12.1849 10.0087 12.0351 9.7833 12.0209C9.70783 12.0209 9.59725 12.0496 9.50208 12.1341C9.60432 11.9242 9.79105 11.8621 9.90196 11.8621Z" fill="white"/>
</g>
<g filter="url(#filter3_f_1477_23395)">
<path fill-rule="evenodd" clip-rule="evenodd" d="M5.52893 13.5318C5.71014 13.5458 6.07109 13.6929 6.06526 14.1692C6.06063 14.5465 5.97394 14.7491 5.88042 14.8537C5.9306 14.7353 5.96691 14.5657 5.96986 14.3251C5.9757 13.8488 5.61475 13.7017 5.43354 13.6877C5.37289 13.6877 5.28402 13.716 5.20752 13.7989C5.28971 13.5928 5.43979 13.5318 5.52893 13.5318Z" fill="white"/>
</g>
<path d="M6.47854 16.7443C6.1756 16.4856 6.35234 15.7565 6.47854 15.4242C6.53423 15.2776 6.55407 15.2518 6.66786 14.8854C6.82951 14.3649 7.02536 13.6893 7.64158 13.4576C8.29041 13.2137 10.2381 14.2658 10.5627 14.8854C10.9684 15.8283 10.0266 16.2593 9.72424 16.2593C9.53124 16.2593 8.48005 16.2593 7.99319 16.7443C7.50634 17.2292 6.8572 17.0675 6.47854 16.7443Z" fill="white"/>
<path d="M10.1662 9.59443C9.95958 9.18666 10.4708 8.48917 10.7522 8.19137C10.8764 8.05994 10.9089 8.04128 11.1923 7.70174C11.5949 7.21942 12.1026 6.58719 12.8594 6.61126C13.6561 6.63661 15.2558 8.60925 15.3252 9.4102C15.3371 10.5904 14.1464 10.6354 13.8256 10.5027C13.6208 10.4181 12.5053 9.95698 11.7734 10.2588C11.0416 10.5607 10.4245 10.1041 10.1662 9.59443Z" fill="white"/>
<path d="M10.1662 9.59443C9.95958 9.18666 10.4708 8.48917 10.7522 8.19137C10.8764 8.05994 10.9089 8.04128 11.1923 7.70174C11.5949 7.21942 12.1026 6.58719 12.8594 6.61126C13.6561 6.63661 15.2558 8.60925 15.3252 9.4102C15.3371 10.5904 14.1464 10.6354 13.8256 10.5027C13.6208 10.4181 12.5053 9.95698 11.7734 10.2588C11.0416 10.5607 10.4245 10.1041 10.1662 9.59443Z" fill="white"/>
<path d="M14.7415 5.46743C15.0505 4.75354 14.5728 4.29619 14.2953 4.15676C14.0916 4.07256 13.6064 4.09721 13.2947 4.86933C12.9052 5.8345 13.5061 6.38637 13.7131 6.42475C13.9201 6.46313 14.3553 6.3598 14.7415 5.46743Z" fill="white"/>
<path d="M14.7415 5.46743C15.0505 4.75354 14.5728 4.29619 14.2953 4.15676C14.0916 4.07256 13.6064 4.09721 13.2947 4.86933C12.9052 5.8345 13.5061 6.38637 13.7131 6.42475C13.9201 6.46313 14.3553 6.3598 14.7415 5.46743Z" fill="white"/>
<path d="M11.2551 4.77726C11.4009 4.0136 12.0541 3.90025 12.3625 3.93903C12.5786 3.98254 12.9668 4.27293 12.7904 5.08636C12.5699 6.10315 11.7615 6.22632 11.5683 6.14296C11.3752 6.0596 11.0728 5.73183 11.2551 4.77726Z" fill="white"/>
<path d="M11.2551 4.77726C11.4009 4.0136 12.0541 3.90025 12.3625 3.93903C12.5786 3.98254 12.9668 4.27293 12.7904 5.08636C12.5699 6.10315 11.7615 6.22632 11.5683 6.14296C11.3752 6.0596 11.0728 5.73183 11.2551 4.77726Z" fill="white"/>
<path d="M15.7763 6.58961C15.5961 6.15357 15.2192 6.10525 15.0533 6.13559C14.7405 6.26933 14.6305 6.58134 14.5315 6.93162C14.4326 7.2819 14.7996 7.7304 15.2887 7.75721C15.7777 7.78402 16.0016 7.13465 15.7763 6.58961Z" fill="white"/>
<path d="M15.7763 6.58961C15.5961 6.15357 15.2192 6.10525 15.0533 6.13559C14.7405 6.26933 14.6305 6.58134 14.5315 6.93162C14.4326 7.2819 14.7996 7.7304 15.2887 7.75721C15.7777 7.78402 16.0016 7.13465 15.7763 6.58961Z" fill="white"/>
<path d="M10.2753 6.118C10.7131 5.93745 11.0134 6.16907 11.1089 6.30745C11.2343 6.62232 11.0896 6.92002 10.9099 7.23694C10.7303 7.55385 10.1518 7.6115 9.78765 7.2856C9.42349 6.95971 9.7281 6.3437 10.2753 6.118Z" fill="white"/>
<path d="M10.2753 6.118C10.7131 5.93745 11.0134 6.16907 11.1089 6.30745C11.2343 6.62232 11.0896 6.92002 10.9099 7.23694C10.7303 7.55385 10.1518 7.6115 9.78765 7.2856C9.42349 6.95971 9.7281 6.3437 10.2753 6.118Z" fill="white"/>
<path fill-rule="evenodd" clip-rule="evenodd" d="M12.1847 6.8602C12.2864 6.83471 12.3931 6.82159 12.5053 6.82371C13.276 6.83828 14.7975 8.77866 14.8538 9.57425C14.8519 10.0836 14.6337 10.3832 14.362 10.5489C14.767 10.4513 15.1969 10.1495 15.1996 9.43388C15.1432 8.63829 13.6217 6.69792 12.851 6.68334C12.6042 6.67868 12.3837 6.74785 12.1847 6.8602Z" fill="white"/>
<g filter="url(#filter4_f_1477_23395)">
<path fill-rule="evenodd" clip-rule="evenodd" d="M14.2335 4.27966C14.4844 4.40575 14.9163 4.81929 14.6369 5.46481C14.4157 5.97612 14.1766 6.20095 13.9835 6.28822C14.1225 6.15654 14.2709 5.94698 14.412 5.62093C14.6913 4.97542 14.2594 4.56187 14.0085 4.43579C13.9218 4.39997 13.7788 4.38593 13.6223 4.45386C13.857 4.22143 14.1061 4.22702 14.2335 4.27966Z" fill="white"/>
</g>
<g filter="url(#filter5_f_1477_23395)">
<path fill-rule="evenodd" clip-rule="evenodd" d="M12.2545 4.0689C12.5096 4.19652 12.9506 4.61162 12.6736 5.25107C12.4542 5.75755 12.2142 5.979 12.0196 6.06407C12.1591 5.93436 12.3074 5.72729 12.4473 5.40433C12.7243 4.76488 12.2833 4.34978 12.0282 4.22216C11.9401 4.18576 11.7952 4.17053 11.6373 4.2367C11.8729 4.00764 12.1251 4.01541 12.2545 4.0689Z" fill="white"/>
</g>
<g filter="url(#filter6_f_1477_23395)">
<path fill-rule="evenodd" clip-rule="evenodd" d="M15.3712 6.28757C15.5737 6.38672 15.9302 6.69634 15.7363 7.14168C15.5828 7.49445 15.4037 7.64391 15.2553 7.69794C15.3594 7.61035 15.4677 7.46808 15.5656 7.24314C15.7595 6.79779 15.403 6.48817 15.2005 6.38903C15.1309 6.36025 15.0178 6.34463 14.8973 6.38644C15.0727 6.23142 15.2689 6.24528 15.3712 6.28757Z" fill="white"/>
</g>
<g filter="url(#filter7_f_1477_23395)">
<path fill-rule="evenodd" clip-rule="evenodd" d="M10.6895 6.15821C10.8513 6.24024 11.1275 6.51378 10.9383 6.95168C10.7884 7.29858 10.6303 7.45271 10.5037 7.51367C10.5956 7.42341 10.6946 7.28058 10.7901 7.05938C10.9793 6.62149 10.7031 6.34795 10.5414 6.26592C10.4854 6.24279 10.3926 6.23497 10.29 6.28249C10.4454 6.12331 10.6073 6.12422 10.6895 6.15821Z" fill="white"/>
</g>
<path d="M10.3285 9.49066C10.1488 9.13605 10.5934 8.5295 10.8381 8.27052C10.9461 8.15622 10.9744 8.13999 11.2208 7.84472C11.5709 7.42528 12.0125 6.87547 12.6706 6.89641C13.3635 6.91845 14.7546 8.63392 14.8149 9.33045C14.8253 10.3567 13.7899 10.3959 13.5108 10.2806C13.3327 10.2069 12.3627 9.80594 11.7262 10.0684C11.0898 10.3309 10.5532 9.93392 10.3285 9.49066Z" fill="white"/>
<defs>
<filter id="filter0_f_1477_23395" x="6.52578" y="9.38882" width="3.4366" height="4.05714" filterUnits="userSpaceOnUse" color-interpolation-filters="sRGB">
<feFlood flood-opacity="0" result="BackgroundImageFix"/>
<feBlend mode="normal" in="SourceGraphic" in2="BackgroundImageFix" result="shape"/>
<feGaussianBlur stdDeviation="0.527027" result="effect1_foregroundBlur_1477_23395"/>
</filter>
<filter id="filter1_f_1477_23395" x="4.60915" y="9.95052" width="3.45784" height="4.03902" filterUnits="userSpaceOnUse" color-interpolation-filters="sRGB">
<feFlood flood-opacity="0" result="BackgroundImageFix"/>
<feBlend mode="normal" in="SourceGraphic" in2="BackgroundImageFix" result="shape"/>
<feGaussianBlur stdDeviation="0.527027" result="effect1_foregroundBlur_1477_23395"/>
</filter>
<filter id="filter2_f_1477_23395" x="8.44802" y="10.8081" width="3.17525" height="3.45381" filterUnits="userSpaceOnUse" color-interpolation-filters="sRGB">
<feFlood flood-opacity="0" result="BackgroundImageFix"/>
<feBlend mode="normal" in="SourceGraphic" in2="BackgroundImageFix" result="shape"/>
<feGaussianBlur stdDeviation="0.527027" result="effect1_foregroundBlur_1477_23395"/>
</filter>
<filter id="filter3_f_1477_23395" x="4.15347" y="12.4777" width="2.9659" height="3.43001" filterUnits="userSpaceOnUse" color-interpolation-filters="sRGB">
<feFlood flood-opacity="0" result="BackgroundImageFix"/>
<feBlend mode="normal" in="SourceGraphic" in2="BackgroundImageFix" result="shape"/>
<feGaussianBlur stdDeviation="0.527027" result="effect1_foregroundBlur_1477_23395"/>
</filter>
<filter id="filter4_f_1477_23395" x="12.5683" y="3.1957" width="3.21345" height="4.14656" filterUnits="userSpaceOnUse" color-interpolation-filters="sRGB">
<feFlood flood-opacity="0" result="BackgroundImageFix"/>
<feBlend mode="normal" in="SourceGraphic" in2="BackgroundImageFix" result="shape"/>
<feGaussianBlur stdDeviation="0.527027" result="effect1_foregroundBlur_1477_23395"/>
</filter>
<filter id="filter5_f_1477_23395" x="10.5833" y="2.98367" width="3.23262" height="4.13448" filterUnits="userSpaceOnUse" color-interpolation-filters="sRGB">
<feFlood flood-opacity="0" result="BackgroundImageFix"/>
<feBlend mode="normal" in="SourceGraphic" in2="BackgroundImageFix" result="shape"/>
<feGaussianBlur stdDeviation="0.527027" result="effect1_foregroundBlur_1477_23395"/>
</filter>
<filter id="filter6_f_1477_23395" x="13.8433" y="5.20535" width="3.00301" height="3.54665" filterUnits="userSpaceOnUse" color-interpolation-filters="sRGB">
<feFlood flood-opacity="0" result="BackgroundImageFix"/>
<feBlend mode="normal" in="SourceGraphic" in2="BackgroundImageFix" result="shape"/>
<feGaussianBlur stdDeviation="0.527027" result="effect1_foregroundBlur_1477_23395"/>
</filter>
<filter id="filter7_f_1477_23395" x="9.23586" y="5.08584" width="2.82027" height="3.48189" filterUnits="userSpaceOnUse" color-interpolation-filters="sRGB">
<feFlood flood-opacity="0" result="BackgroundImageFix"/>
<feBlend mode="normal" in="SourceGraphic" in2="BackgroundImageFix" result="shape"/>
<feGaussianBlur stdDeviation="0.527027" result="effect1_foregroundBlur_1477_23395"/>
</filter>
</defs>
</svg>
