<svg width="71" height="71" viewBox="0 0 71 71" fill="none" xmlns="http://www.w3.org/2000/svg">
<circle cx="35.5" cy="35.5" r="31.5" fill="#91CF9B"/>
<path d="M20.9526 56.8973C19.8525 55.9649 20.4943 53.336 20.9526 52.1381C21.1548 51.6094 21.2269 51.5166 21.6401 50.1956C22.2271 48.319 22.9382 45.8831 25.1759 45.0479C27.5321 44.1684 34.6048 47.9617 35.7835 50.1956C37.2567 53.595 33.8368 55.149 32.7387 55.149C32.0379 55.149 28.2207 55.149 26.4528 56.8973C24.6848 58.6456 22.3276 58.0628 20.9526 56.8973Z" fill="#161616"/>
<path d="M20.9526 56.8973C19.8525 55.9649 20.4943 53.336 20.9526 52.1381C21.1548 51.6094 21.2269 51.5166 21.6401 50.1956C22.2271 48.319 22.9382 45.8831 25.1759 45.0479C27.5321 44.1684 34.6048 47.9617 35.7835 50.1956C37.2567 53.595 33.8368 55.149 32.7387 55.149C32.0379 55.149 28.2207 55.149 26.4528 56.8973C24.6848 58.6456 22.3276 58.0628 20.9526 56.8973Z" fill="url(#paint0_radial_1031_21797)"/>
<path d="M29.2815 39.4755C29.3131 37.0403 27.3609 36.2884 26.3808 36.2168C25.6836 36.2168 24.2971 36.8685 24.3287 39.4755C24.3681 42.7342 26.7952 43.6123 27.4464 43.4757C28.0976 43.3391 29.242 42.5196 29.2815 39.4755Z" fill="#161616"/>
<path d="M29.2815 39.4755C29.3131 37.0403 27.3609 36.2884 26.3808 36.2168C25.6836 36.2168 24.2971 36.8685 24.3287 39.4755C24.3681 42.7342 26.7952 43.6123 27.4464 43.4757C28.0976 43.3391 29.242 42.5196 29.2815 39.4755Z" fill="url(#paint1_radial_1031_21797)"/>
<path d="M18.2687 41.6524C17.7637 39.2687 19.533 38.1593 20.4808 37.9025C21.165 37.7698 22.6524 38.1454 23.129 40.7096C23.7246 43.9149 21.5138 45.2386 20.8482 45.2285C20.1827 45.2184 18.9 44.632 18.2687 41.6524Z" fill="#161616"/>
<path d="M18.2687 41.6524C17.7637 39.2687 19.533 38.1593 20.4808 37.9025C21.165 37.7698 22.6524 38.1454 23.129 40.7096C23.7246 43.9149 21.5138 45.2386 20.8482 45.2285C20.1827 45.2184 18.9 44.632 18.2687 41.6524Z" fill="url(#paint2_radial_1031_21797)"/>
<path d="M33.6621 41.4851C32.6044 40.4392 31.4454 40.7501 30.9982 41.0363C30.2483 41.7973 30.3075 42.8315 30.4457 43.9633C30.5838 45.0951 32.2019 45.9536 33.6621 45.4463C35.1223 44.939 34.9841 42.7925 33.6621 41.4851Z" fill="#161616"/>
<path d="M33.6621 41.4851C32.6044 40.4392 31.4454 40.7501 30.9982 41.0363C30.2483 41.7973 30.3075 42.8315 30.4457 43.9633C30.5838 45.0951 32.2019 45.9536 33.6621 45.4463C35.1223 44.939 34.9841 42.7925 33.6621 41.4851Z" fill="url(#paint3_radial_1031_21797)"/>
<path d="M17.044 46.7097C18.1017 45.6638 19.2606 45.9747 19.7079 46.2609C20.4577 47.0219 20.3985 48.0561 20.2604 49.1879C20.1223 50.3197 18.5042 51.1782 17.044 50.6709C15.5838 50.1636 15.7219 48.0171 17.044 46.7097Z" fill="#161616"/>
<path d="M17.044 46.7097C18.1017 45.6638 19.2606 45.9747 19.7079 46.2609C20.4577 47.0219 20.3985 48.0561 20.2604 49.1879C20.1223 50.3197 18.5042 51.1782 17.044 50.6709C15.5838 50.1636 15.7219 48.0171 17.044 46.7097Z" fill="url(#paint4_radial_1031_21797)"/>
<g filter="url(#filter0_f_1031_21797)">
<path fill-rule="evenodd" clip-rule="evenodd" d="M23.5103 46.5709C23.776 46.3756 24.0714 46.21 24.4012 46.0821C26.6681 45.2027 33.4731 48.9959 34.6071 51.2298C35.2223 52.7052 34.9507 53.833 34.3598 54.637C35.4228 53.8705 36.3094 52.4836 35.4449 50.4104C34.3109 48.1765 27.5059 44.3833 25.239 45.2627C24.513 45.5443 23.954 46.008 23.5103 46.5709Z" fill="url(#paint5_linear_1031_21797)" fill-opacity="0.6"/>
</g>
<g filter="url(#filter1_f_1031_21797)">
<path fill-rule="evenodd" clip-rule="evenodd" d="M26.3502 36.6465C27.2364 36.7112 29.0016 37.3911 28.9731 39.5931C28.9505 41.3373 28.5266 42.2738 28.0693 42.7573C28.3147 42.21 28.4922 41.4262 28.5066 40.314C28.5352 38.112 26.77 37.4321 25.8838 37.3674C25.5871 37.3674 25.1525 37.4978 24.7783 37.8816C25.1803 36.9283 25.9143 36.6465 26.3502 36.6465Z" fill="url(#paint6_linear_1031_21797)" fill-opacity="0.6"/>
</g>
<g filter="url(#filter2_f_1031_21797)">
<path fill-rule="evenodd" clip-rule="evenodd" d="M20.3232 38.4062C21.2236 38.4703 23.0171 39.1439 22.988 41.3255C22.9651 43.0534 22.5345 43.9812 22.0699 44.4603C22.3191 43.918 22.4995 43.1415 22.5142 42.0397C22.5432 39.8581 20.7497 39.1845 19.8493 39.1204C19.5479 39.1204 19.1062 39.2497 18.7261 39.63C19.1344 38.6854 19.8802 38.4062 20.3232 38.4062Z" fill="url(#paint7_linear_1031_21797)" fill-opacity="0.6"/>
</g>
<g filter="url(#filter3_f_1031_21797)">
<path fill-rule="evenodd" clip-rule="evenodd" d="M32.1114 41.0957C32.8233 41.1404 34.2414 41.6098 34.2185 43.1302C34.2003 44.3345 33.8598 44.9811 33.4924 45.315C33.6895 44.9371 33.8322 44.3959 33.8437 43.628C33.8667 42.1076 32.4486 41.6381 31.7367 41.5935C31.4984 41.5935 31.1492 41.6836 30.8486 41.9485C31.1715 41.2903 31.7612 41.0957 32.1114 41.0957Z" fill="url(#paint8_linear_1031_21797)" fill-opacity="0.6"/>
</g>
<g filter="url(#filter4_f_1031_21797)">
<path fill-rule="evenodd" clip-rule="evenodd" d="M18.3016 46.3301C18.8738 46.374 20.0137 46.8351 19.9953 48.3285C19.9807 49.5116 19.7069 50.1467 19.4116 50.4746C19.57 50.1034 19.6847 49.5718 19.694 48.8174C19.7125 47.324 18.5726 46.8629 18.0004 46.819C17.8088 46.819 17.5282 46.9075 17.2866 47.1677C17.5462 46.5212 18.0201 46.3301 18.3016 46.3301Z" fill="url(#paint9_linear_1031_21797)" fill-opacity="0.6"/>
</g>
<g filter="url(#filter5_f_1031_21797)">
<path d="M21.3002 56.402C20.3435 55.5911 20.9016 53.305 21.3002 52.2632C21.476 51.8035 21.5387 51.7228 21.898 50.5739C22.4085 48.942 23.027 46.8237 24.9729 46.0973C27.0219 45.3326 33.1726 48.6313 34.1976 50.5739C35.4788 53.5302 32.5047 54.8816 31.5497 54.8816C30.9403 54.8816 27.6207 54.8816 26.0833 56.402C24.5458 57.9223 22.4959 57.4156 21.3002 56.402Z" fill="url(#paint10_linear_1031_21797)"/>
</g>
<path d="M32.9468 34.0041C32.297 32.7256 33.9144 30.5339 34.8043 29.5977C35.197 29.1846 35.2996 29.1258 36.196 28.0587C37.4694 26.5428 39.0755 24.5559 41.4637 24.6272C43.9782 24.7023 49.0159 30.8839 49.2302 33.397C49.2612 37.1005 45.5029 37.2485 44.491 36.8341C43.8451 36.5695 40.3273 35.1288 38.0157 36.0801C35.7041 37.0315 33.7592 35.6023 32.9468 34.0041Z" fill="#161616"/>
<path d="M32.9468 34.0041C32.297 32.7256 33.9144 30.5339 34.8043 29.5977C35.197 29.1846 35.2996 29.1258 36.196 28.0587C37.4694 26.5428 39.0755 24.5559 41.4637 24.6272C43.9782 24.7023 49.0159 30.8839 49.2302 33.397C49.2612 37.1005 45.5029 37.2485 44.491 36.8341C43.8451 36.5695 40.3273 35.1288 38.0157 36.0801C35.7041 37.0315 33.7592 35.6023 32.9468 34.0041Z" fill="url(#paint11_radial_1031_21797)"/>
<path d="M47.39 21.0426C48.3686 18.8018 46.8644 17.37 45.99 16.9343C45.3481 16.6713 43.8174 16.7513 42.83 19.1748C41.5957 22.2042 43.4879 23.9317 44.1407 24.0509C44.7935 24.1701 46.1667 23.8436 47.39 21.0426Z" fill="#161616"/>
<path d="M47.39 21.0426C48.3686 18.8018 46.8644 17.37 45.99 16.9343C45.3481 16.6713 43.8174 16.7513 42.83 19.1748C41.5957 22.2042 43.4879 23.9317 44.1407 24.0509C44.7935 24.1701 46.1667 23.8436 47.39 21.0426Z" fill="url(#paint12_radial_1031_21797)"/>
<path d="M36.3905 18.8863C36.8545 16.4894 38.9142 16.1301 39.886 16.2501C40.5671 16.3854 41.789 17.2943 41.2284 19.8475C40.5277 23.0391 37.9784 23.4301 37.3701 23.1696C36.7618 22.9091 35.8104 21.8824 36.3905 18.8863Z" fill="#161616"/>
<path d="M36.3905 18.8863C36.8545 16.4894 38.9142 16.1301 39.886 16.2501C40.5671 16.3854 41.789 17.2943 41.2284 19.8475C40.5277 23.0391 37.9784 23.4301 37.3701 23.1696C36.7618 22.9091 35.8104 21.8824 36.3905 18.8863Z" fill="url(#paint13_radial_1031_21797)"/>
<path d="M50.6627 24.5612C50.0965 23.1942 48.9076 23.0447 48.384 23.1408C47.3964 23.5622 47.0475 24.5417 46.7332 25.6411C46.419 26.7406 47.5745 28.1456 49.1174 28.2269C50.6604 28.3083 51.3705 26.2698 50.6627 24.5612Z" fill="#161616"/>
<path d="M50.6627 24.5612C50.0965 23.1942 48.9076 23.0447 48.384 23.1408C47.3964 23.5622 47.0475 24.5417 46.7332 25.6411C46.419 26.7406 47.5745 28.1456 49.1174 28.2269C50.6604 28.3083 51.3705 26.2698 50.6627 24.5612Z" fill="url(#paint14_radial_1031_21797)"/>
<path d="M33.2944 23.0859C34.6766 22.5171 35.6229 23.242 35.9232 23.6756C36.3171 24.6627 35.8591 25.5975 35.2903 26.5927C34.7216 27.588 32.8962 27.7721 31.7491 26.7517C30.602 25.7313 31.5665 23.7971 33.2944 23.0859Z" fill="#161616"/>
<path d="M33.2944 23.0859C34.6766 22.5171 35.6229 23.242 35.9232 23.6756C36.3171 24.6627 35.8591 25.5975 35.2903 26.5927C34.7216 27.588 32.8962 27.7721 31.7491 26.7517C30.602 25.7313 31.5665 23.7971 33.2944 23.0859Z" fill="url(#paint15_radial_1031_21797)"/>
<g filter="url(#filter6_f_1031_21797)">
<path fill-rule="evenodd" clip-rule="evenodd" d="M39.3322 25.4156C39.6534 25.3351 39.9902 25.2933 40.3442 25.2993C42.7768 25.3407 47.5681 31.422 47.7413 33.9186C47.7324 35.517 47.0419 36.4588 46.1834 36.9802C47.4624 36.6717 48.8208 35.7222 48.8333 33.4761C48.6601 30.9795 43.8688 24.8983 41.4362 24.8568C40.6571 24.8436 39.9609 25.0619 39.3322 25.4156Z" fill="url(#paint16_linear_1031_21797)" fill-opacity="0.6"/>
</g>
<g filter="url(#filter7_f_1031_21797)">
<path fill-rule="evenodd" clip-rule="evenodd" d="M45.7944 17.3213C46.5851 17.7153 47.9452 19.01 47.0603 21.0362C46.3594 22.6411 45.604 23.3476 44.9945 23.6224C45.4338 23.2086 45.9029 22.5505 46.3498 21.5271C47.2347 19.5009 45.8746 18.2063 45.0839 17.8122C44.8108 17.7004 44.3597 17.6572 43.8656 17.8711C44.6074 17.1408 45.393 17.1569 45.7944 17.3213Z" fill="url(#paint17_linear_1031_21797)" fill-opacity="0.6"/>
</g>
<g filter="url(#filter8_f_1031_21797)">
<path fill-rule="evenodd" clip-rule="evenodd" d="M39.5452 16.6609C40.3492 17.0598 41.7379 18.3593 40.8605 20.3664C40.1656 21.9563 39.4074 22.6522 38.7928 22.9201C39.2337 22.5125 39.7026 21.8622 40.1457 20.8484C41.0231 18.8412 39.6344 17.5417 38.8304 17.1429C38.5529 17.0292 38.0958 16.9822 37.5975 17.1907C38.3418 16.4709 39.1374 16.4939 39.5452 16.6609Z" fill="url(#paint18_linear_1031_21797)" fill-opacity="0.6"/>
</g>
<g filter="url(#filter9_f_1031_21797)">
<path fill-rule="evenodd" clip-rule="evenodd" d="M49.3861 23.6169C50.0243 23.9268 51.1472 24.896 50.5331 26.2941C50.0466 27.4016 49.4809 27.8714 49.0123 28.0417C49.3412 27.7664 49.6837 27.3195 49.9938 26.6133C50.6079 25.2153 49.4851 24.246 48.8469 23.9362C48.6274 23.8463 48.2707 23.7979 47.8905 23.9297C48.4446 23.4425 49.0636 23.4848 49.3861 23.6169Z" fill="url(#paint19_linear_1031_21797)" fill-opacity="0.6"/>
</g>
<g filter="url(#filter10_f_1031_21797)">
<path fill-rule="evenodd" clip-rule="evenodd" d="M34.6014 23.2109C35.1111 23.4672 35.9807 24.3236 35.3814 25.698C34.9067 26.7869 34.4071 27.2711 34.0074 27.4631C34.298 27.1794 34.6108 26.731 34.9135 26.0367C35.5127 24.6622 34.6432 23.8059 34.1335 23.5495C33.9571 23.4773 33.6643 23.4533 33.3404 23.6029C33.8314 23.1028 34.3422 23.1047 34.6014 23.2109Z" fill="url(#paint20_linear_1031_21797)" fill-opacity="0.6"/>
</g>
<g filter="url(#filter11_f_1031_21797)">
<path d="M33.459 33.6767C32.8938 32.5649 34.3004 30.6589 35.0743 29.8448C35.4158 29.4855 35.505 29.4344 36.2846 28.5064C37.3919 27.1881 38.7887 25.4602 40.8655 25.5222C43.0522 25.5875 47.4331 30.9633 47.6195 33.1488C47.6464 36.3695 44.3782 36.4982 43.4981 36.1377C42.9364 35.9077 39.8772 34.6547 37.867 35.4821C35.8567 36.3094 34.1654 35.0665 33.459 33.6767Z" fill="url(#paint21_linear_1031_21797)"/>
</g>
<defs>
<filter id="filter0_f_1031_21797" x="21.5103" y="43.1328" width="16.2837" height="13.5039" filterUnits="userSpaceOnUse" color-interpolation-filters="sRGB">
<feFlood flood-opacity="0" result="BackgroundImageFix"/>
<feBlend mode="normal" in="SourceGraphic" in2="BackgroundImageFix" result="shape"/>
<feGaussianBlur stdDeviation="1" result="effect1_foregroundBlur_1031_21797"/>
</filter>
<filter id="filter1_f_1031_21797" x="21.7783" y="33.6465" width="10.1953" height="12.1113" filterUnits="userSpaceOnUse" color-interpolation-filters="sRGB">
<feFlood flood-opacity="0" result="BackgroundImageFix"/>
<feBlend mode="normal" in="SourceGraphic" in2="BackgroundImageFix" result="shape"/>
<feGaussianBlur stdDeviation="1.5" result="effect1_foregroundBlur_1031_21797"/>
</filter>
<filter id="filter2_f_1031_21797" x="15.7261" y="35.4062" width="10.2622" height="12.0547" filterUnits="userSpaceOnUse" color-interpolation-filters="sRGB">
<feFlood flood-opacity="0" result="BackgroundImageFix"/>
<feBlend mode="normal" in="SourceGraphic" in2="BackgroundImageFix" result="shape"/>
<feGaussianBlur stdDeviation="1.5" result="effect1_foregroundBlur_1031_21797"/>
</filter>
<filter id="filter3_f_1031_21797" x="27.8486" y="38.0957" width="9.37012" height="10.2188" filterUnits="userSpaceOnUse" color-interpolation-filters="sRGB">
<feFlood flood-opacity="0" result="BackgroundImageFix"/>
<feBlend mode="normal" in="SourceGraphic" in2="BackgroundImageFix" result="shape"/>
<feGaussianBlur stdDeviation="1.5" result="effect1_foregroundBlur_1031_21797"/>
</filter>
<filter id="filter4_f_1031_21797" x="14.2866" y="43.3301" width="8.70898" height="10.1445" filterUnits="userSpaceOnUse" color-interpolation-filters="sRGB">
<feFlood flood-opacity="0" result="BackgroundImageFix"/>
<feBlend mode="normal" in="SourceGraphic" in2="BackgroundImageFix" result="shape"/>
<feGaussianBlur stdDeviation="1.5" result="effect1_foregroundBlur_1031_21797"/>
</filter>
<filter id="filter5_f_1031_21797" x="17.772" y="42.9844" width="19.7407" height="17.377" filterUnits="userSpaceOnUse" color-interpolation-filters="sRGB">
<feFlood flood-opacity="0" result="BackgroundImageFix"/>
<feBlend mode="normal" in="SourceGraphic" in2="BackgroundImageFix" result="shape"/>
<feGaussianBlur stdDeviation="1.5" result="effect1_foregroundBlur_1031_21797"/>
</filter>
<filter id="filter6_f_1031_21797" x="37.332" y="22.8555" width="13.5015" height="16.125" filterUnits="userSpaceOnUse" color-interpolation-filters="sRGB">
<feFlood flood-opacity="0" result="BackgroundImageFix"/>
<feBlend mode="normal" in="SourceGraphic" in2="BackgroundImageFix" result="shape"/>
<feGaussianBlur stdDeviation="1" result="effect1_foregroundBlur_1031_21797"/>
</filter>
<filter id="filter7_f_1031_21797" x="40.8657" y="14.2285" width="9.48291" height="12.3945" filterUnits="userSpaceOnUse" color-interpolation-filters="sRGB">
<feFlood flood-opacity="0" result="BackgroundImageFix"/>
<feBlend mode="normal" in="SourceGraphic" in2="BackgroundImageFix" result="shape"/>
<feGaussianBlur stdDeviation="1.5" result="effect1_foregroundBlur_1031_21797"/>
</filter>
<filter id="filter8_f_1031_21797" x="34.5977" y="13.5645" width="9.54346" height="12.3555" filterUnits="userSpaceOnUse" color-interpolation-filters="sRGB">
<feFlood flood-opacity="0" result="BackgroundImageFix"/>
<feBlend mode="normal" in="SourceGraphic" in2="BackgroundImageFix" result="shape"/>
<feGaussianBlur stdDeviation="1.5" result="effect1_foregroundBlur_1031_21797"/>
</filter>
<filter id="filter9_f_1031_21797" x="44.8906" y="20.5293" width="8.82031" height="10.5117" filterUnits="userSpaceOnUse" color-interpolation-filters="sRGB">
<feFlood flood-opacity="0" result="BackgroundImageFix"/>
<feBlend mode="normal" in="SourceGraphic" in2="BackgroundImageFix" result="shape"/>
<feGaussianBlur stdDeviation="1.5" result="effect1_foregroundBlur_1031_21797"/>
</filter>
<filter id="filter10_f_1031_21797" x="30.3403" y="20.1543" width="8.24414" height="10.3086" filterUnits="userSpaceOnUse" color-interpolation-filters="sRGB">
<feFlood flood-opacity="0" result="BackgroundImageFix"/>
<feBlend mode="normal" in="SourceGraphic" in2="BackgroundImageFix" result="shape"/>
<feGaussianBlur stdDeviation="1.5" result="effect1_foregroundBlur_1031_21797"/>
</filter>
<filter id="filter11_f_1031_21797" x="30.3286" y="22.5215" width="20.291" height="16.7559" filterUnits="userSpaceOnUse" color-interpolation-filters="sRGB">
<feFlood flood-opacity="0" result="BackgroundImageFix"/>
<feBlend mode="normal" in="SourceGraphic" in2="BackgroundImageFix" result="shape"/>
<feGaussianBlur stdDeviation="1.5" result="effect1_foregroundBlur_1031_21797"/>
</filter>
<radialGradient id="paint0_radial_1031_21797" cx="0" cy="0" r="1" gradientUnits="userSpaceOnUse" gradientTransform="translate(28.2457 52.1187) rotate(-67.9837) scale(11.2681 17.249)">
<stop stop-color="#232323" stop-opacity="0"/>
<stop offset="1" stop-color="#232323"/>
</radialGradient>
<radialGradient id="paint1_radial_1031_21797" cx="0" cy="0" r="1" gradientUnits="userSpaceOnUse" gradientTransform="translate(26.805 40.2195) rotate(-77.153) scale(5.95595 5.68713)">
<stop stop-color="#232323" stop-opacity="0"/>
<stop offset="1" stop-color="#232323"/>
</radialGradient>
<radialGradient id="paint2_radial_1031_21797" cx="0" cy="0" r="1" gradientUnits="userSpaceOnUse" gradientTransform="translate(20.8437 41.9111) rotate(-114.045) scale(5.96364 5.67979)">
<stop stop-color="#232323" stop-opacity="0"/>
<stop offset="1" stop-color="#232323"/>
</radialGradient>
<radialGradient id="paint3_radial_1031_21797" cx="0" cy="0" r="1" gradientUnits="userSpaceOnUse" gradientTransform="translate(32.5334 43.4214) rotate(-73.2569) scale(4.03225 4.89965)">
<stop stop-color="#232323" stop-opacity="0"/>
<stop offset="1" stop-color="#232323"/>
</radialGradient>
<radialGradient id="paint4_radial_1031_21797" cx="0" cy="0" r="1" gradientUnits="userSpaceOnUse" gradientTransform="translate(18.1726 48.646) rotate(-106.743) scale(4.03225 4.89965)">
<stop stop-color="#232323" stop-opacity="0"/>
<stop offset="1" stop-color="#232323"/>
</radialGradient>
<linearGradient id="paint5_linear_1031_21797" x1="29.652" y1="45.1328" x2="28.5875" y2="47.5029" gradientUnits="userSpaceOnUse">
<stop stop-color="#BAE490"/>
<stop offset="1" stop-color="#A7DC94" stop-opacity="0"/>
</linearGradient>
<linearGradient id="paint6_linear_1031_21797" x1="26.8759" y1="36.6465" x2="25.973" y2="37.7143" gradientUnits="userSpaceOnUse">
<stop stop-color="#BAE490"/>
<stop offset="1" stop-color="#A7DC94" stop-opacity="0"/>
</linearGradient>
<linearGradient id="paint7_linear_1031_21797" x1="20.8572" y1="38.4062" x2="19.9667" y2="39.4863" gradientUnits="userSpaceOnUse">
<stop stop-color="#BAE490"/>
<stop offset="1" stop-color="#A7DC94" stop-opacity="0"/>
</linearGradient>
<linearGradient id="paint8_linear_1031_21797" x1="32.5337" y1="41.0957" x2="31.9324" y2="41.9231" gradientUnits="userSpaceOnUse">
<stop stop-color="#BAE490"/>
<stop offset="1" stop-color="#A7DC94" stop-opacity="0"/>
</linearGradient>
<linearGradient id="paint9_linear_1031_21797" x1="18.6411" y1="46.3301" x2="18.0244" y2="47.0244" gradientUnits="userSpaceOnUse">
<stop stop-color="#BAE490"/>
<stop offset="1" stop-color="#A7DC94" stop-opacity="0"/>
</linearGradient>
<linearGradient id="paint10_linear_1031_21797" x1="25.5695" y1="52.612" x2="21.3905" y2="56.6293" gradientUnits="userSpaceOnUse">
<stop stop-color="#2B2B2B" stop-opacity="0"/>
<stop offset="1" stop-color="#6A8E6D"/>
</linearGradient>
<radialGradient id="paint11_radial_1031_21797" cx="0" cy="0" r="1" gradientUnits="userSpaceOnUse" gradientTransform="translate(41.533 32.3325) rotate(-45.3846) scale(11.3476 17.138)">
<stop stop-color="#232323" stop-opacity="0"/>
<stop offset="1" stop-color="#232323"/>
</radialGradient>
<radialGradient id="paint12_radial_1031_21797" cx="0" cy="0" r="1" gradientUnits="userSpaceOnUse" gradientTransform="translate(44.8198 20.7969) rotate(-54.437) scale(5.98934 5.64809)">
<stop stop-color="#232323" stop-opacity="0"/>
<stop offset="1" stop-color="#232323"/>
</radialGradient>
<radialGradient id="paint13_radial_1031_21797" cx="0" cy="0" r="1" gradientUnits="userSpaceOnUse" gradientTransform="translate(38.6583 20.0973) rotate(-91.0921) scale(5.95888 5.67519)">
<stop stop-color="#232323" stop-opacity="0"/>
<stop offset="1" stop-color="#232323"/>
</radialGradient>
<radialGradient id="paint14_radial_1031_21797" cx="0" cy="0" r="1" gradientUnits="userSpaceOnUse" gradientTransform="translate(48.8677 25.9273) rotate(-50.5878) scale(4.05784 4.86681)">
<stop stop-color="#232323" stop-opacity="0"/>
<stop offset="1" stop-color="#232323"/>
</radialGradient>
<radialGradient id="paint15_radial_1031_21797" cx="0" cy="0" r="1" gradientUnits="userSpaceOnUse" gradientTransform="translate(33.5786 25.3036) rotate(-83.7928) scale(4.0352 4.89412)">
<stop stop-color="#232323" stop-opacity="0"/>
<stop offset="1" stop-color="#232323"/>
</radialGradient>
<linearGradient id="paint16_linear_1031_21797" x1="45.5542" y1="26.4024" x2="43.6482" y2="28.1954" gradientUnits="userSpaceOnUse">
<stop stop-color="#BAE490"/>
<stop offset="1" stop-color="#A7DC94" stop-opacity="0"/>
</linearGradient>
<linearGradient id="paint17_linear_1031_21797" x1="46.2784" y1="17.5195" x2="45.0262" y2="18.1579" gradientUnits="userSpaceOnUse">
<stop stop-color="#BAE490"/>
<stop offset="1" stop-color="#A7DC94" stop-opacity="0"/>
</linearGradient>
<linearGradient id="paint18_linear_1031_21797" x1="40.0369" y1="16.8623" x2="38.7914" y2="17.5171" gradientUnits="userSpaceOnUse">
<stop stop-color="#BAE490"/>
<stop offset="1" stop-color="#A7DC94" stop-opacity="0"/>
</linearGradient>
<linearGradient id="paint19_linear_1031_21797" x1="49.775" y1="23.7762" x2="48.8957" y2="24.3103" gradientUnits="userSpaceOnUse">
<stop stop-color="#BAE490"/>
<stop offset="1" stop-color="#A7DC94" stop-opacity="0"/>
</linearGradient>
<linearGradient id="paint20_linear_1031_21797" x1="34.9139" y1="23.3389" x2="34.0724" y2="23.7421" gradientUnits="userSpaceOnUse">
<stop stop-color="#BAE490"/>
<stop offset="1" stop-color="#A7DC94" stop-opacity="0"/>
</linearGradient>
<linearGradient id="paint21_linear_1031_21797" x1="38.8727" y1="31.7791" x2="33.4341" y2="33.8708" gradientUnits="userSpaceOnUse">
<stop stop-color="#2B2B2B" stop-opacity="0"/>
<stop offset="1" stop-color="#6A8E6D"/>
</linearGradient>
</defs>
</svg>
