<svg width="63" height="63" viewBox="0 0 63 63" fill="none" xmlns="http://www.w3.org/2000/svg">
<circle cx="31.5" cy="31.5" r="31.5" fill="#91CF9B"/>
<path d="M16.9526 52.8973C15.8525 51.9649 16.4943 49.336 16.9526 48.1381C17.1548 47.6094 17.2269 47.5166 17.6401 46.1956C18.2271 44.319 18.9382 41.8831 21.1759 41.0479C23.5321 40.1684 30.6048 43.9617 31.7835 46.1956C33.2567 49.595 29.8368 51.149 28.7387 51.149C28.0379 51.149 24.2207 51.149 22.4528 52.8973C20.6848 54.6456 18.3276 54.0628 16.9526 52.8973Z" fill="#161616"/>
<path d="M16.9526 52.8973C15.8525 51.9649 16.4943 49.336 16.9526 48.1381C17.1548 47.6094 17.2269 47.5166 17.6401 46.1956C18.2271 44.319 18.9382 41.8831 21.1759 41.0479C23.5321 40.1684 30.6048 43.9617 31.7835 46.1956C33.2567 49.595 29.8368 51.149 28.7387 51.149C28.0379 51.149 24.2207 51.149 22.4528 52.8973C20.6848 54.6456 18.3276 54.0628 16.9526 52.8973Z" fill="url(#paint0_radial_0_1)"/>
<path d="M25.2815 35.4755C25.3131 33.0403 23.3609 32.2884 22.3808 32.2168C21.6836 32.2168 20.2971 32.8685 20.3287 35.4755C20.3681 38.7342 22.7952 39.6123 23.4464 39.4757C24.0976 39.3391 25.242 38.5196 25.2815 35.4755Z" fill="#161616"/>
<path d="M25.2815 35.4755C25.3131 33.0403 23.3609 32.2884 22.3808 32.2168C21.6836 32.2168 20.2971 32.8685 20.3287 35.4755C20.3681 38.7342 22.7952 39.6123 23.4464 39.4757C24.0976 39.3391 25.242 38.5196 25.2815 35.4755Z" fill="url(#paint1_radial_0_1)"/>
<path d="M14.2687 37.6524C13.7637 35.2687 15.533 34.1593 16.4808 33.9025C17.165 33.7698 18.6524 34.1454 19.129 36.7096C19.7246 39.9149 17.5138 41.2386 16.8482 41.2285C16.1827 41.2184 14.9 40.632 14.2687 37.6524Z" fill="#161616"/>
<path d="M14.2687 37.6524C13.7637 35.2687 15.533 34.1593 16.4808 33.9025C17.165 33.7698 18.6524 34.1454 19.129 36.7096C19.7246 39.9149 17.5138 41.2386 16.8482 41.2285C16.1827 41.2184 14.9 40.632 14.2687 37.6524Z" fill="url(#paint2_radial_0_1)"/>
<path d="M29.6621 37.4851C28.6044 36.4392 27.4454 36.7501 26.9982 37.0363C26.2483 37.7973 26.3075 38.8315 26.4457 39.9633C26.5838 41.0951 28.2019 41.9536 29.6621 41.4463C31.1223 40.939 30.9841 38.7925 29.6621 37.4851Z" fill="#161616"/>
<path d="M29.6621 37.4851C28.6044 36.4392 27.4454 36.7501 26.9982 37.0363C26.2483 37.7973 26.3075 38.8315 26.4457 39.9633C26.5838 41.0951 28.2019 41.9536 29.6621 41.4463C31.1223 40.939 30.9841 38.7925 29.6621 37.4851Z" fill="url(#paint3_radial_0_1)"/>
<path d="M13.044 42.7097C14.1017 41.6638 15.2606 41.9747 15.7079 42.2609C16.4577 43.0219 16.3985 44.0561 16.2604 45.1879C16.1223 46.3197 14.5042 47.1782 13.044 46.6709C11.5838 46.1636 11.7219 44.0171 13.044 42.7097Z" fill="#161616"/>
<path d="M13.044 42.7097C14.1017 41.6638 15.2606 41.9747 15.7079 42.2609C16.4577 43.0219 16.3985 44.0561 16.2604 45.1879C16.1223 46.3197 14.5042 47.1782 13.044 46.6709C11.5838 46.1636 11.7219 44.0171 13.044 42.7097Z" fill="url(#paint4_radial_0_1)"/>
<g filter="url(#filter0_f_0_1)">
<path fill-rule="evenodd" clip-rule="evenodd" d="M19.5103 42.5709C19.776 42.3756 20.0714 42.21 20.4012 42.0821C22.6681 41.2027 29.4731 44.9959 30.6071 47.2298C31.2223 48.7052 30.9507 49.833 30.3597 50.637C31.4228 49.8705 32.3094 48.4836 31.4449 46.4104C30.3109 44.1765 23.5059 40.3833 21.239 41.2627C20.513 41.5443 19.954 42.008 19.5103 42.5709Z" fill="url(#paint5_linear_0_1)" fill-opacity="0.6"/>
</g>
<g filter="url(#filter1_f_0_1)">
<path fill-rule="evenodd" clip-rule="evenodd" d="M22.3502 32.6465C23.2364 32.7112 25.0016 33.3911 24.9731 35.5931C24.9505 37.3373 24.5266 38.2738 24.0693 38.7573C24.3147 38.21 24.4922 37.4262 24.5066 36.314C24.5352 34.112 22.77 33.4321 21.8838 33.3674C21.5871 33.3674 21.1525 33.4978 20.7783 33.8816C21.1803 32.9283 21.9143 32.6465 22.3502 32.6465Z" fill="url(#paint6_linear_0_1)" fill-opacity="0.6"/>
</g>
<g filter="url(#filter2_f_0_1)">
<path fill-rule="evenodd" clip-rule="evenodd" d="M16.3232 34.4062C17.2236 34.4703 19.0171 35.1439 18.988 37.3255C18.9651 39.0534 18.5345 39.9812 18.0699 40.4603C18.3191 39.918 18.4995 39.1415 18.5142 38.0397C18.5432 35.8581 16.7497 35.1845 15.8493 35.1204C15.5479 35.1204 15.1062 35.2497 14.7261 35.63C15.1344 34.6854 15.8802 34.4062 16.3232 34.4062Z" fill="url(#paint7_linear_0_1)" fill-opacity="0.6"/>
</g>
<g filter="url(#filter3_f_0_1)">
<path fill-rule="evenodd" clip-rule="evenodd" d="M28.1114 37.0957C28.8233 37.1404 30.2414 37.6098 30.2185 39.1302C30.2003 40.3345 29.8598 40.9811 29.4924 41.315C29.6895 40.9371 29.8322 40.3959 29.8437 39.628C29.8667 38.1076 28.4486 37.6381 27.7367 37.5935C27.4984 37.5935 27.1492 37.6836 26.8486 37.9485C27.1715 37.2903 27.7612 37.0957 28.1114 37.0957Z" fill="url(#paint8_linear_0_1)" fill-opacity="0.6"/>
</g>
<g filter="url(#filter4_f_0_1)">
<path fill-rule="evenodd" clip-rule="evenodd" d="M14.3016 42.3301C14.8738 42.374 16.0137 42.8351 15.9953 44.3285C15.9807 45.5116 15.7069 46.1467 15.4116 46.4746C15.57 46.1034 15.6847 45.5718 15.694 44.8174C15.7125 43.324 14.5726 42.8629 14.0004 42.819C13.8088 42.819 13.5282 42.9075 13.2866 43.1677C13.5462 42.5212 14.0201 42.3301 14.3016 42.3301Z" fill="url(#paint9_linear_0_1)" fill-opacity="0.6"/>
</g>
<g filter="url(#filter5_f_0_1)">
<path d="M17.3002 52.402C16.3435 51.5911 16.9016 49.305 17.3002 48.2632C17.476 47.8035 17.5387 47.7228 17.898 46.5739C18.4085 44.942 19.027 42.8237 20.9729 42.0973C23.0219 41.3326 29.1726 44.6313 30.1976 46.5739C31.4788 49.5302 28.5047 50.8816 27.5497 50.8816C26.9403 50.8816 23.6207 50.8816 22.0833 52.402C20.5458 53.9223 18.4959 53.4156 17.3002 52.402Z" fill="url(#paint10_linear_0_1)"/>
</g>
<path d="M28.9468 30.0041C28.297 28.7256 29.9144 26.5339 30.8043 25.5977C31.197 25.1846 31.2996 25.1258 32.196 24.0587C33.4694 22.5428 35.0755 20.5559 37.4637 20.6272C39.9782 20.7023 45.0159 26.8839 45.2302 29.397C45.2612 33.1005 41.5029 33.2485 40.491 32.8341C39.8451 32.5695 36.3273 31.1288 34.0157 32.0801C31.7041 33.0315 29.7592 31.6023 28.9468 30.0041Z" fill="#161616"/>
<path d="M28.9468 30.0041C28.297 28.7256 29.9144 26.5339 30.8043 25.5977C31.197 25.1846 31.2996 25.1258 32.196 24.0587C33.4694 22.5428 35.0755 20.5559 37.4637 20.6272C39.9782 20.7023 45.0159 26.8839 45.2302 29.397C45.2612 33.1005 41.5029 33.2485 40.491 32.8341C39.8451 32.5695 36.3273 31.1288 34.0157 32.0801C31.7041 33.0315 29.7592 31.6023 28.9468 30.0041Z" fill="url(#paint11_radial_0_1)"/>
<path d="M43.39 17.0426C44.3686 14.8018 42.8644 13.37 41.99 12.9343C41.3481 12.6713 39.8174 12.7513 38.83 15.1748C37.5957 18.2042 39.4879 19.9317 40.1407 20.0509C40.7935 20.1701 42.1667 19.8436 43.39 17.0426Z" fill="#161616"/>
<path d="M43.39 17.0426C44.3686 14.8018 42.8644 13.37 41.99 12.9343C41.3481 12.6713 39.8174 12.7513 38.83 15.1748C37.5957 18.2042 39.4879 19.9317 40.1407 20.0509C40.7935 20.1701 42.1667 19.8436 43.39 17.0426Z" fill="url(#paint12_radial_0_1)"/>
<path d="M32.3905 14.8863C32.8545 12.4894 34.9142 12.1301 35.886 12.2501C36.5671 12.3854 37.789 13.2943 37.2284 15.8475C36.5277 19.0391 33.9784 19.4301 33.3701 19.1696C32.7618 18.9091 31.8104 17.8824 32.3905 14.8863Z" fill="#161616"/>
<path d="M32.3905 14.8863C32.8545 12.4894 34.9142 12.1301 35.886 12.2501C36.5671 12.3854 37.789 13.2943 37.2284 15.8475C36.5277 19.0391 33.9784 19.4301 33.3701 19.1696C32.7618 18.9091 31.8104 17.8824 32.3905 14.8863Z" fill="url(#paint13_radial_0_1)"/>
<path d="M46.6627 20.5612C46.0965 19.1942 44.9076 19.0447 44.384 19.1408C43.3964 19.5622 43.0475 20.5417 42.7332 21.6411C42.419 22.7406 43.5745 24.1456 45.1174 24.2269C46.6604 24.3083 47.3705 22.2698 46.6627 20.5612Z" fill="#161616"/>
<path d="M46.6627 20.5612C46.0965 19.1942 44.9076 19.0447 44.384 19.1408C43.3964 19.5622 43.0475 20.5417 42.7332 21.6411C42.419 22.7406 43.5745 24.1456 45.1174 24.2269C46.6604 24.3083 47.3705 22.2698 46.6627 20.5612Z" fill="url(#paint14_radial_0_1)"/>
<path d="M29.2944 19.0859C30.6766 18.5171 31.6229 19.242 31.9232 19.6756C32.3171 20.6627 31.8591 21.5975 31.2903 22.5927C30.7216 23.588 28.8962 23.7721 27.7491 22.7517C26.602 21.7313 27.5665 19.7971 29.2944 19.0859Z" fill="#161616"/>
<path d="M29.2944 19.0859C30.6766 18.5171 31.6229 19.242 31.9232 19.6756C32.3171 20.6627 31.8591 21.5975 31.2903 22.5927C30.7216 23.588 28.8962 23.7721 27.7491 22.7517C26.602 21.7313 27.5665 19.7971 29.2944 19.0859Z" fill="url(#paint15_radial_0_1)"/>
<g filter="url(#filter6_f_0_1)">
<path fill-rule="evenodd" clip-rule="evenodd" d="M35.3322 21.4156C35.6534 21.3351 35.9902 21.2933 36.3442 21.2993C38.7768 21.3407 43.5681 27.422 43.7413 29.9186C43.7324 31.517 43.0419 32.4588 42.1834 32.9802C43.4624 32.6717 44.8208 31.7222 44.8333 29.4761C44.6601 26.9795 39.8688 20.8983 37.4362 20.8568C36.6571 20.8436 35.9609 21.0619 35.3322 21.4156Z" fill="url(#paint16_linear_0_1)" fill-opacity="0.6"/>
</g>
<g filter="url(#filter7_f_0_1)">
<path fill-rule="evenodd" clip-rule="evenodd" d="M41.7944 13.3213C42.5851 13.7153 43.9452 15.01 43.0603 17.0362C42.3594 18.6411 41.604 19.3476 40.9945 19.6224C41.4338 19.2086 41.9029 18.5505 42.3498 17.5271C43.2347 15.5009 41.8746 14.2063 41.0839 13.8122C40.8108 13.7004 40.3597 13.6572 39.8656 13.8711C40.6074 13.1408 41.393 13.1569 41.7944 13.3213Z" fill="url(#paint17_linear_0_1)" fill-opacity="0.6"/>
</g>
<g filter="url(#filter8_f_0_1)">
<path fill-rule="evenodd" clip-rule="evenodd" d="M35.5452 12.6609C36.3492 13.0598 37.7379 14.3593 36.8605 16.3664C36.1656 17.9563 35.4074 18.6522 34.7928 18.9201C35.2337 18.5125 35.7026 17.8622 36.1457 16.8484C37.0231 14.8412 35.6344 13.5417 34.8304 13.1429C34.5529 13.0292 34.0958 12.9822 33.5975 13.1907C34.3418 12.4709 35.1374 12.4939 35.5452 12.6609Z" fill="url(#paint18_linear_0_1)" fill-opacity="0.6"/>
</g>
<g filter="url(#filter9_f_0_1)">
<path fill-rule="evenodd" clip-rule="evenodd" d="M45.3861 19.6169C46.0243 19.9268 47.1472 20.896 46.5331 22.2941C46.0466 23.4016 45.4809 23.8714 45.0123 24.0417C45.3412 23.7664 45.6837 23.3195 45.9938 22.6133C46.6079 21.2153 45.4851 20.246 44.8469 19.9362C44.6274 19.8463 44.2707 19.7979 43.8905 19.9297C44.4446 19.4425 45.0636 19.4848 45.3861 19.6169Z" fill="url(#paint19_linear_0_1)" fill-opacity="0.6"/>
</g>
<g filter="url(#filter10_f_0_1)">
<path fill-rule="evenodd" clip-rule="evenodd" d="M30.6014 19.2109C31.1111 19.4672 31.9807 20.3236 31.3814 21.698C30.9067 22.7869 30.4071 23.2711 30.0074 23.4631C30.298 23.1794 30.6108 22.731 30.9135 22.0367C31.5127 20.6622 30.6432 19.8059 30.1335 19.5495C29.9571 19.4773 29.6643 19.4533 29.3404 19.6029C29.8314 19.1028 30.3422 19.1047 30.6014 19.2109Z" fill="url(#paint20_linear_0_1)" fill-opacity="0.6"/>
</g>
<g filter="url(#filter11_f_0_1)">
<path d="M29.459 29.6767C28.8938 28.5649 30.3004 26.6589 31.0743 25.8448C31.4158 25.4855 31.505 25.4344 32.2846 24.5064C33.3919 23.1881 34.7887 21.4602 36.8655 21.5222C39.0522 21.5875 43.4331 26.9633 43.6195 29.1488C43.6464 32.3695 40.3782 32.4982 39.4981 32.1377C38.9364 31.9077 35.8772 30.6547 33.867 31.4821C31.8567 32.3094 30.1654 31.0665 29.459 29.6767Z" fill="url(#paint21_linear_0_1)"/>
</g>
<defs>
<filter id="filter0_f_0_1" x="17.5103" y="39.1328" width="16.2837" height="13.5039" filterUnits="userSpaceOnUse" color-interpolation-filters="sRGB">
<feFlood flood-opacity="0" result="BackgroundImageFix"/>
<feBlend mode="normal" in="SourceGraphic" in2="BackgroundImageFix" result="shape"/>
<feGaussianBlur stdDeviation="1" result="effect1_foregroundBlur_0_1"/>
</filter>
<filter id="filter1_f_0_1" x="17.7783" y="29.6465" width="10.1953" height="12.1113" filterUnits="userSpaceOnUse" color-interpolation-filters="sRGB">
<feFlood flood-opacity="0" result="BackgroundImageFix"/>
<feBlend mode="normal" in="SourceGraphic" in2="BackgroundImageFix" result="shape"/>
<feGaussianBlur stdDeviation="1.5" result="effect1_foregroundBlur_0_1"/>
</filter>
<filter id="filter2_f_0_1" x="11.7261" y="31.4062" width="10.2622" height="12.0547" filterUnits="userSpaceOnUse" color-interpolation-filters="sRGB">
<feFlood flood-opacity="0" result="BackgroundImageFix"/>
<feBlend mode="normal" in="SourceGraphic" in2="BackgroundImageFix" result="shape"/>
<feGaussianBlur stdDeviation="1.5" result="effect1_foregroundBlur_0_1"/>
</filter>
<filter id="filter3_f_0_1" x="23.8486" y="34.0957" width="9.37012" height="10.2188" filterUnits="userSpaceOnUse" color-interpolation-filters="sRGB">
<feFlood flood-opacity="0" result="BackgroundImageFix"/>
<feBlend mode="normal" in="SourceGraphic" in2="BackgroundImageFix" result="shape"/>
<feGaussianBlur stdDeviation="1.5" result="effect1_foregroundBlur_0_1"/>
</filter>
<filter id="filter4_f_0_1" x="10.2866" y="39.3301" width="8.70898" height="10.1445" filterUnits="userSpaceOnUse" color-interpolation-filters="sRGB">
<feFlood flood-opacity="0" result="BackgroundImageFix"/>
<feBlend mode="normal" in="SourceGraphic" in2="BackgroundImageFix" result="shape"/>
<feGaussianBlur stdDeviation="1.5" result="effect1_foregroundBlur_0_1"/>
</filter>
<filter id="filter5_f_0_1" x="13.772" y="38.9844" width="19.7407" height="17.377" filterUnits="userSpaceOnUse" color-interpolation-filters="sRGB">
<feFlood flood-opacity="0" result="BackgroundImageFix"/>
<feBlend mode="normal" in="SourceGraphic" in2="BackgroundImageFix" result="shape"/>
<feGaussianBlur stdDeviation="1.5" result="effect1_foregroundBlur_0_1"/>
</filter>
<filter id="filter6_f_0_1" x="33.332" y="18.8555" width="13.5015" height="16.125" filterUnits="userSpaceOnUse" color-interpolation-filters="sRGB">
<feFlood flood-opacity="0" result="BackgroundImageFix"/>
<feBlend mode="normal" in="SourceGraphic" in2="BackgroundImageFix" result="shape"/>
<feGaussianBlur stdDeviation="1" result="effect1_foregroundBlur_0_1"/>
</filter>
<filter id="filter7_f_0_1" x="36.8657" y="10.2285" width="9.48291" height="12.3945" filterUnits="userSpaceOnUse" color-interpolation-filters="sRGB">
<feFlood flood-opacity="0" result="BackgroundImageFix"/>
<feBlend mode="normal" in="SourceGraphic" in2="BackgroundImageFix" result="shape"/>
<feGaussianBlur stdDeviation="1.5" result="effect1_foregroundBlur_0_1"/>
</filter>
<filter id="filter8_f_0_1" x="30.5977" y="9.56445" width="9.54346" height="12.3555" filterUnits="userSpaceOnUse" color-interpolation-filters="sRGB">
<feFlood flood-opacity="0" result="BackgroundImageFix"/>
<feBlend mode="normal" in="SourceGraphic" in2="BackgroundImageFix" result="shape"/>
<feGaussianBlur stdDeviation="1.5" result="effect1_foregroundBlur_0_1"/>
</filter>
<filter id="filter9_f_0_1" x="40.8906" y="16.5293" width="8.82031" height="10.5117" filterUnits="userSpaceOnUse" color-interpolation-filters="sRGB">
<feFlood flood-opacity="0" result="BackgroundImageFix"/>
<feBlend mode="normal" in="SourceGraphic" in2="BackgroundImageFix" result="shape"/>
<feGaussianBlur stdDeviation="1.5" result="effect1_foregroundBlur_0_1"/>
</filter>
<filter id="filter10_f_0_1" x="26.3403" y="16.1543" width="8.24414" height="10.3086" filterUnits="userSpaceOnUse" color-interpolation-filters="sRGB">
<feFlood flood-opacity="0" result="BackgroundImageFix"/>
<feBlend mode="normal" in="SourceGraphic" in2="BackgroundImageFix" result="shape"/>
<feGaussianBlur stdDeviation="1.5" result="effect1_foregroundBlur_0_1"/>
</filter>
<filter id="filter11_f_0_1" x="26.3286" y="18.5215" width="20.291" height="16.7559" filterUnits="userSpaceOnUse" color-interpolation-filters="sRGB">
<feFlood flood-opacity="0" result="BackgroundImageFix"/>
<feBlend mode="normal" in="SourceGraphic" in2="BackgroundImageFix" result="shape"/>
<feGaussianBlur stdDeviation="1.5" result="effect1_foregroundBlur_0_1"/>
</filter>
<radialGradient id="paint0_radial_0_1" cx="0" cy="0" r="1" gradientUnits="userSpaceOnUse" gradientTransform="translate(24.2457 48.1187) rotate(-67.9837) scale(11.2681 17.249)">
<stop stop-color="#232323" stop-opacity="0"/>
<stop offset="1" stop-color="#232323"/>
</radialGradient>
<radialGradient id="paint1_radial_0_1" cx="0" cy="0" r="1" gradientUnits="userSpaceOnUse" gradientTransform="translate(22.805 36.2195) rotate(-77.153) scale(5.95595 5.68713)">
<stop stop-color="#232323" stop-opacity="0"/>
<stop offset="1" stop-color="#232323"/>
</radialGradient>
<radialGradient id="paint2_radial_0_1" cx="0" cy="0" r="1" gradientUnits="userSpaceOnUse" gradientTransform="translate(16.8437 37.9111) rotate(-114.045) scale(5.96364 5.67979)">
<stop stop-color="#232323" stop-opacity="0"/>
<stop offset="1" stop-color="#232323"/>
</radialGradient>
<radialGradient id="paint3_radial_0_1" cx="0" cy="0" r="1" gradientUnits="userSpaceOnUse" gradientTransform="translate(28.5334 39.4214) rotate(-73.2569) scale(4.03225 4.89965)">
<stop stop-color="#232323" stop-opacity="0"/>
<stop offset="1" stop-color="#232323"/>
</radialGradient>
<radialGradient id="paint4_radial_0_1" cx="0" cy="0" r="1" gradientUnits="userSpaceOnUse" gradientTransform="translate(14.1726 44.646) rotate(-106.743) scale(4.03225 4.89965)">
<stop stop-color="#232323" stop-opacity="0"/>
<stop offset="1" stop-color="#232323"/>
</radialGradient>
<linearGradient id="paint5_linear_0_1" x1="25.652" y1="41.1328" x2="24.5875" y2="43.5029" gradientUnits="userSpaceOnUse">
<stop stop-color="#BAE490"/>
<stop offset="1" stop-color="#A7DC94" stop-opacity="0"/>
</linearGradient>
<linearGradient id="paint6_linear_0_1" x1="22.8759" y1="32.6465" x2="21.973" y2="33.7143" gradientUnits="userSpaceOnUse">
<stop stop-color="#BAE490"/>
<stop offset="1" stop-color="#A7DC94" stop-opacity="0"/>
</linearGradient>
<linearGradient id="paint7_linear_0_1" x1="16.8572" y1="34.4062" x2="15.9667" y2="35.4863" gradientUnits="userSpaceOnUse">
<stop stop-color="#BAE490"/>
<stop offset="1" stop-color="#A7DC94" stop-opacity="0"/>
</linearGradient>
<linearGradient id="paint8_linear_0_1" x1="28.5337" y1="37.0957" x2="27.9324" y2="37.9231" gradientUnits="userSpaceOnUse">
<stop stop-color="#BAE490"/>
<stop offset="1" stop-color="#A7DC94" stop-opacity="0"/>
</linearGradient>
<linearGradient id="paint9_linear_0_1" x1="14.6411" y1="42.3301" x2="14.0244" y2="43.0244" gradientUnits="userSpaceOnUse">
<stop stop-color="#BAE490"/>
<stop offset="1" stop-color="#A7DC94" stop-opacity="0"/>
</linearGradient>
<linearGradient id="paint10_linear_0_1" x1="21.5695" y1="48.612" x2="17.3905" y2="52.6293" gradientUnits="userSpaceOnUse">
<stop stop-color="#2B2B2B" stop-opacity="0"/>
<stop offset="1" stop-color="#6A8E6D"/>
</linearGradient>
<radialGradient id="paint11_radial_0_1" cx="0" cy="0" r="1" gradientUnits="userSpaceOnUse" gradientTransform="translate(37.533 28.3325) rotate(-45.3846) scale(11.3476 17.138)">
<stop stop-color="#232323" stop-opacity="0"/>
<stop offset="1" stop-color="#232323"/>
</radialGradient>
<radialGradient id="paint12_radial_0_1" cx="0" cy="0" r="1" gradientUnits="userSpaceOnUse" gradientTransform="translate(40.8198 16.7969) rotate(-54.437) scale(5.98934 5.64809)">
<stop stop-color="#232323" stop-opacity="0"/>
<stop offset="1" stop-color="#232323"/>
</radialGradient>
<radialGradient id="paint13_radial_0_1" cx="0" cy="0" r="1" gradientUnits="userSpaceOnUse" gradientTransform="translate(34.6583 16.0973) rotate(-91.0921) scale(5.95888 5.67519)">
<stop stop-color="#232323" stop-opacity="0"/>
<stop offset="1" stop-color="#232323"/>
</radialGradient>
<radialGradient id="paint14_radial_0_1" cx="0" cy="0" r="1" gradientUnits="userSpaceOnUse" gradientTransform="translate(44.8677 21.9273) rotate(-50.5878) scale(4.05784 4.86681)">
<stop stop-color="#232323" stop-opacity="0"/>
<stop offset="1" stop-color="#232323"/>
</radialGradient>
<radialGradient id="paint15_radial_0_1" cx="0" cy="0" r="1" gradientUnits="userSpaceOnUse" gradientTransform="translate(29.5786 21.3036) rotate(-83.7928) scale(4.0352 4.89412)">
<stop stop-color="#232323" stop-opacity="0"/>
<stop offset="1" stop-color="#232323"/>
</radialGradient>
<linearGradient id="paint16_linear_0_1" x1="41.5542" y1="22.4024" x2="39.6482" y2="24.1954" gradientUnits="userSpaceOnUse">
<stop stop-color="#BAE490"/>
<stop offset="1" stop-color="#A7DC94" stop-opacity="0"/>
</linearGradient>
<linearGradient id="paint17_linear_0_1" x1="42.2784" y1="13.5195" x2="41.0262" y2="14.1579" gradientUnits="userSpaceOnUse">
<stop stop-color="#BAE490"/>
<stop offset="1" stop-color="#A7DC94" stop-opacity="0"/>
</linearGradient>
<linearGradient id="paint18_linear_0_1" x1="36.0369" y1="12.8623" x2="34.7914" y2="13.5171" gradientUnits="userSpaceOnUse">
<stop stop-color="#BAE490"/>
<stop offset="1" stop-color="#A7DC94" stop-opacity="0"/>
</linearGradient>
<linearGradient id="paint19_linear_0_1" x1="45.775" y1="19.7762" x2="44.8957" y2="20.3103" gradientUnits="userSpaceOnUse">
<stop stop-color="#BAE490"/>
<stop offset="1" stop-color="#A7DC94" stop-opacity="0"/>
</linearGradient>
<linearGradient id="paint20_linear_0_1" x1="30.9139" y1="19.3389" x2="30.0724" y2="19.7421" gradientUnits="userSpaceOnUse">
<stop stop-color="#BAE490"/>
<stop offset="1" stop-color="#A7DC94" stop-opacity="0"/>
</linearGradient>
<linearGradient id="paint21_linear_0_1" x1="34.8727" y1="27.7791" x2="29.4341" y2="29.8708" gradientUnits="userSpaceOnUse">
<stop stop-color="#2B2B2B" stop-opacity="0"/>
<stop offset="1" stop-color="#6A8E6D"/>
</linearGradient>
</defs>
</svg>
