<svg width="63" height="63" viewBox="0 0 63 63" fill="none" xmlns="http://www.w3.org/2000/svg">
<circle cx="31.5" cy="31.5" r="31.5" fill="#91CF9B"/>
<path d="M17.6993 51.9469C16.6556 51.0559 17.2645 48.5439 17.6993 47.3992C17.8911 46.8941 17.9595 46.8054 18.3515 45.543C18.9084 43.7499 19.5831 41.4222 21.706 40.6241C23.9413 39.7838 30.6514 43.4084 31.7696 45.543C33.1673 48.7914 29.9228 50.2764 28.881 50.2764C28.2161 50.2764 24.5946 50.2764 22.9174 51.9469C21.2401 53.6175 19.0038 53.0607 17.6993 51.9469Z" fill="#161616"/>
<path d="M17.6993 51.9469C16.6556 51.0559 17.2645 48.5439 17.6993 47.3992C17.8911 46.8941 17.9595 46.8054 18.3515 45.543C18.9084 43.7499 19.5831 41.4222 21.706 40.6241C23.9413 39.7838 30.6514 43.4084 31.7696 45.543C33.1673 48.7914 29.9228 50.2764 28.881 50.2764C28.2161 50.2764 24.5946 50.2764 22.9174 51.9469C21.2401 53.6175 19.0038 53.0607 17.6993 51.9469Z" fill="url(#paint0_radial_1334_21348)"/>
<path d="M25.5998 35.2994C25.6297 32.9724 23.7776 32.2539 22.8478 32.1855C22.1864 32.1855 20.8709 32.8083 20.9009 35.2994C20.9383 38.4133 23.241 39.2524 23.8587 39.1219C24.4765 38.9913 25.5623 38.2082 25.5998 35.2994Z" fill="#161616"/>
<path d="M25.5998 35.2994C25.6297 32.9724 23.7776 32.2539 22.8478 32.1855C22.1864 32.1855 20.8709 32.8083 20.9009 35.2994C20.9383 38.4133 23.241 39.2524 23.8587 39.1219C24.4765 38.9913 25.5623 38.2082 25.5998 35.2994Z" fill="url(#paint1_radial_1334_21348)"/>
<path d="M15.1525 37.3805C14.6733 35.1028 16.3519 34.0426 17.2511 33.7972C17.9002 33.6704 19.3114 34.0293 19.7634 36.4796C20.3285 39.5424 18.2311 40.8073 17.5997 40.7976C16.9682 40.788 15.7514 40.2277 15.1525 37.3805Z" fill="#161616"/>
<path d="M15.1525 37.3805C14.6733 35.1028 16.3519 34.0426 17.2511 33.7972C17.9002 33.6704 19.3114 34.0293 19.7634 36.4796C20.3285 39.5424 18.2311 40.8073 17.5997 40.7976C16.9682 40.788 15.7514 40.2277 15.1525 37.3805Z" fill="url(#paint2_radial_1334_21348)"/>
<path d="M29.7569 37.2204C28.7535 36.221 27.654 36.5181 27.2296 36.7916C26.5182 37.5187 26.5744 38.507 26.7055 39.5885C26.8365 40.67 28.3716 41.4904 29.7569 41.0056C31.1422 40.5208 31.0112 38.4697 29.7569 37.2204Z" fill="#161616"/>
<path d="M29.7569 37.2204C28.7535 36.221 27.654 36.5181 27.2296 36.7916C26.5182 37.5187 26.5744 38.507 26.7055 39.5885C26.8365 40.67 28.3716 41.4904 29.7569 41.0056C31.1422 40.5208 31.0112 38.4697 29.7569 37.2204Z" fill="url(#paint3_radial_1334_21348)"/>
<path d="M13.9911 42.2126C14.9945 41.2132 16.0941 41.5103 16.5184 41.7837C17.2298 42.5109 17.1736 43.4992 17.0426 44.5807C16.9115 45.6621 15.3764 46.4826 13.9911 45.9978C12.6058 45.513 12.7368 43.4619 13.9911 42.2126Z" fill="#161616"/>
<path d="M13.9911 42.2126C14.9945 41.2132 16.0941 41.5103 16.5184 41.7837C17.2298 42.5109 17.1736 43.4992 17.0426 44.5807C16.9115 45.6621 15.3764 46.4826 13.9911 45.9978C12.6058 45.513 12.7368 43.4619 13.9911 42.2126Z" fill="url(#paint4_radial_1334_21348)"/>
<g filter="url(#filter0_f_1334_21348)">
<path fill-rule="evenodd" clip-rule="evenodd" d="M20.125 42.0792C20.3771 41.8926 20.6573 41.7344 20.9703 41.6122C23.1209 40.7718 29.5769 44.3965 30.6528 46.5311C31.2364 47.9409 30.9787 49.0186 30.4181 49.7869C31.4266 49.0544 32.2677 47.7292 31.4476 45.7481C30.3717 43.6135 23.9157 39.9889 21.7651 40.8292C21.0763 41.0983 20.546 41.5414 20.125 42.0792Z" fill="url(#paint5_linear_1334_21348)" fill-opacity="0.6"/>
</g>
<g filter="url(#filter1_f_1334_21348)">
<path fill-rule="evenodd" clip-rule="evenodd" d="M22.8194 32.5957C23.6602 32.6575 25.3349 33.3072 25.3078 35.4113C25.2863 37.078 24.8842 37.9729 24.4503 38.4349C24.6831 37.9119 24.8516 37.163 24.8653 36.1002C24.8923 33.996 23.2176 33.3464 22.3769 33.2845C22.0955 33.2845 21.6831 33.4092 21.3281 33.776C21.7095 32.865 22.4058 32.5957 22.8194 32.5957Z" fill="url(#paint6_linear_1334_21348)" fill-opacity="0.6"/>
</g>
<g filter="url(#filter2_f_1334_21348)">
<path fill-rule="evenodd" clip-rule="evenodd" d="M17.1011 34.2793C17.9553 34.3405 19.6569 34.9842 19.6293 37.0688C19.6075 38.7199 19.199 39.6065 18.7582 40.0642C18.9947 39.5461 19.1659 38.8041 19.1798 37.7512C19.2073 35.6666 17.5058 35.023 16.6516 34.9617C16.3656 34.9617 15.9466 35.0853 15.5859 35.4487C15.9734 34.5461 16.6809 34.2793 17.1011 34.2793Z" fill="url(#paint7_linear_1334_21348)" fill-opacity="0.6"/>
</g>
<g filter="url(#filter3_f_1334_21348)">
<path fill-rule="evenodd" clip-rule="evenodd" d="M28.2859 36.8477C28.9613 36.8903 30.3067 37.3389 30.2849 38.7917C30.2677 39.9425 29.9446 40.5604 29.5961 40.8794C29.7831 40.5183 29.9184 40.0012 29.9294 39.2674C29.9512 37.8146 28.6058 37.366 27.9304 37.3233C27.7043 37.3233 27.373 37.4094 27.0879 37.6626C27.3942 37.0336 27.9537 36.8477 28.2859 36.8477Z" fill="url(#paint8_linear_1334_21348)" fill-opacity="0.6"/>
</g>
<g filter="url(#filter4_f_1334_21348)">
<path fill-rule="evenodd" clip-rule="evenodd" d="M15.1836 41.8496C15.7265 41.8915 16.8079 42.3322 16.7904 43.7592C16.7766 44.8897 16.5169 45.4966 16.2367 45.8099C16.387 45.4552 16.4958 44.9472 16.5046 44.2264C16.5221 42.7993 15.4407 42.3587 14.8978 42.3168C14.7161 42.3168 14.4499 42.4013 14.2207 42.65C14.4669 42.0322 14.9166 41.8496 15.1836 41.8496Z" fill="url(#paint9_linear_1334_21348)" fill-opacity="0.6"/>
</g>
<g filter="url(#filter5_f_1334_21348)">
<path d="M18.0284 51.4741C17.1209 50.6993 17.6504 48.5148 18.0284 47.5193C18.1953 47.08 18.2547 47.0029 18.5957 45.9051C19.0799 44.3457 19.6667 42.3215 21.5128 41.6275C23.4567 40.8967 29.292 44.0488 30.2644 45.9051C31.4799 48.73 28.6584 50.0214 27.7524 50.0214C27.1742 50.0214 24.0249 50.0214 22.5663 51.4741C21.1077 52.9269 19.1629 52.4427 18.0284 51.4741Z" fill="url(#paint10_linear_1334_21348)"/>
</g>
<path d="M29.0756 30.0543C28.4565 28.8326 29.9881 26.743 30.8312 25.8508C31.2033 25.457 31.3006 25.4011 32.1496 24.3839C33.3558 22.9389 34.877 21.0447 37.1441 21.1169C39.5312 21.1928 44.3238 27.1027 44.5316 29.5023C44.5674 33.038 41.0001 33.1729 40.0388 32.7755C39.4252 32.5219 36.0834 31.1404 33.8907 32.0448C31.6981 32.9491 29.8494 31.5813 29.0756 30.0543Z" fill="#161616"/>
<path d="M29.0756 30.0543C28.4565 28.8326 29.9881 26.743 30.8312 25.8508C31.2033 25.457 31.3006 25.4011 32.1496 24.3839C33.3558 22.9389 34.877 21.0447 37.1441 21.1169C39.5312 21.1928 44.3238 27.1027 44.5316 29.5023C44.5674 33.038 41.0001 33.1729 40.0388 32.7755C39.4252 32.5219 36.0834 31.1404 33.8907 32.0448C31.6981 32.9491 29.8494 31.5813 29.0756 30.0543Z" fill="url(#paint11_radial_1334_21348)"/>
<path d="M42.7837 17.6908C43.7093 15.5521 42.2781 14.1819 41.4468 13.7641C40.8367 13.5119 39.3829 13.5857 38.4492 15.899C37.282 18.7906 39.0823 20.4439 39.7025 20.5589C40.3228 20.6739 41.6266 20.3643 42.7837 17.6908Z" fill="#161616"/>
<path d="M42.7837 17.6908C43.7093 15.5521 42.2781 14.1819 41.4468 13.7641C40.8367 13.5119 39.3829 13.5857 38.4492 15.899C37.282 18.7906 39.0823 20.4439 39.7025 20.5589C40.3228 20.6739 41.6266 20.3643 42.7837 17.6908Z" fill="url(#paint12_radial_1334_21348)"/>
<path d="M32.3385 15.6216C32.7754 13.3337 34.7323 12.9941 35.6562 13.1103C36.3037 13.2407 37.4666 14.1107 36.9382 16.5477C36.2777 19.5939 33.8556 19.9629 33.277 19.7132C32.6984 19.4635 31.7924 18.4815 32.3385 15.6216Z" fill="#161616"/>
<path d="M32.3385 15.6216C32.7754 13.3337 34.7323 12.9941 35.6562 13.1103C36.3037 13.2407 37.4666 14.1107 36.9382 16.5477C36.2777 19.5939 33.8556 19.9629 33.277 19.7132C32.6984 19.4635 31.7924 18.4815 32.3385 15.6216Z" fill="url(#paint13_radial_1334_21348)"/>
<path d="M45.8838 21.0518C45.3438 19.7455 44.2146 19.6007 43.7176 19.6916C42.7806 20.0923 42.4509 21.027 42.1544 22.0765C41.8579 23.1259 42.9575 24.4696 44.4228 24.5499C45.888 24.6302 46.5588 22.6847 45.8838 21.0518Z" fill="#161616"/>
<path d="M45.8838 21.0518C45.3438 19.7455 44.2146 19.6007 43.7176 19.6916C42.7806 20.0923 42.4509 21.027 42.1544 22.0765C41.8579 23.1259 42.9575 24.4696 44.4228 24.5499C45.888 24.6302 46.5588 22.6847 45.8838 21.0518Z" fill="url(#paint14_radial_1334_21348)"/>
<path d="M29.4034 19.6394C30.715 19.0984 31.6148 19.7924 31.9007 20.2069C32.2764 21.1503 31.8431 22.0422 31.3048 22.9916C30.7664 23.9411 29.0334 24.1138 27.9424 23.1374C26.8514 22.1611 27.764 20.3155 29.4034 19.6394Z" fill="#161616"/>
<path d="M29.4034 19.6394C30.715 19.0984 31.6148 19.7924 31.9007 20.2069C32.2764 21.1503 31.8431 22.0422 31.3048 22.9916C30.7664 23.9411 29.0334 24.1138 27.9424 23.1374C26.8514 22.1611 27.764 20.3155 29.4034 19.6394Z" fill="url(#paint15_radial_1334_21348)"/>
<g filter="url(#filter6_f_1334_21348)">
<path fill-rule="evenodd" clip-rule="evenodd" d="M35.1238 21.862C35.4285 21.7857 35.7482 21.7464 36.0841 21.7527C38.3932 21.7964 42.9516 27.6096 43.1203 29.9932C43.1146 31.519 42.4608 32.4169 41.6468 32.9132C42.8602 32.6208 44.1481 31.7167 44.156 29.5727C43.9873 27.1891 39.429 21.3758 37.1199 21.3322C36.3804 21.3182 35.7199 21.5254 35.1238 21.862Z" fill="url(#paint16_linear_1334_21348)" fill-opacity="0.6"/>
</g>
<g filter="url(#filter7_f_1334_21348)">
<path fill-rule="evenodd" clip-rule="evenodd" d="M41.2604 14.1312C42.0121 14.5089 43.3062 15.7479 42.4692 17.6818C41.8062 19.2137 41.09 19.8873 40.5115 20.1487C40.928 19.7542 41.3725 19.1264 41.7952 18.1496C42.6322 16.2156 41.3381 14.9767 40.5864 14.5989C40.3268 14.4916 39.8982 14.4496 39.4293 14.6531C40.1326 13.9567 40.8789 13.9735 41.2604 14.1312Z" fill="url(#paint17_linear_1334_21348)" fill-opacity="0.6"/>
</g>
<g filter="url(#filter8_f_1334_21348)">
<path fill-rule="evenodd" clip-rule="evenodd" d="M35.3333 13.4997C36.0976 13.882 37.4189 15.1257 36.589 17.0414C35.9317 18.5588 35.2127 19.2222 34.6294 19.4771C35.0475 19.0885 35.4917 18.4681 35.9109 17.5006C36.7408 15.5848 35.4195 14.3412 34.6552 13.9588C34.3914 13.8498 33.9572 13.8042 33.4843 14.0024C34.19 13.3161 34.9456 13.3394 35.3333 13.4997Z" fill="url(#paint18_linear_1334_21348)" fill-opacity="0.6"/>
</g>
<g filter="url(#filter9_f_1334_21348)">
<path fill-rule="evenodd" clip-rule="evenodd" d="M44.6697 20.1463C45.2763 20.4434 46.3443 21.371 45.7636 22.7052C45.3035 23.7621 44.767 24.2099 44.3224 24.3717C44.6342 24.1093 44.9587 23.6831 45.252 23.0092C45.8328 21.6749 44.7648 20.7473 44.1582 20.4503C43.9496 20.3641 43.6107 20.3173 43.2499 20.4425C43.7753 19.9781 44.3632 20.0196 44.6697 20.1463Z" fill="url(#paint19_linear_1334_21348)" fill-opacity="0.6"/>
</g>
<g filter="url(#filter10_f_1334_21348)">
<path fill-rule="evenodd" clip-rule="evenodd" d="M30.6441 19.7598C31.1287 20.0055 31.9562 20.825 31.3894 22.137C30.9403 23.1763 30.4665 23.638 30.0872 23.8207C30.3627 23.5502 30.6591 23.1224 30.9455 22.4596C31.5123 21.1477 30.6848 20.3282 30.2002 20.0825C30.0326 20.0132 29.7544 19.9898 29.447 20.1321C29.9125 19.6552 30.3978 19.6579 30.6441 19.7598Z" fill="url(#paint20_linear_1334_21348)" fill-opacity="0.6"/>
</g>
<g filter="url(#filter11_f_1334_21348)">
<path d="M29.5628 29.7439C29.0244 28.6815 30.3564 26.8643 31.0896 26.0884C31.4131 25.746 31.4977 25.6974 32.2361 24.8127C33.285 23.5561 34.6079 21.9089 36.5794 21.9716C38.6553 22.0377 42.8232 27.1771 43.0039 29.2639C43.035 32.3386 39.9328 32.456 39.0968 32.1104C38.5632 31.8898 35.6571 30.6885 33.7502 31.4749C31.8434 32.2613 30.2358 31.0719 29.5628 29.7439Z" fill="url(#paint21_linear_1334_21348)"/>
</g>
<defs>
<filter id="filter0_f_1334_21348" x="18.125" y="38.7051" width="15.6543" height="13.082" filterUnits="userSpaceOnUse" color-interpolation-filters="sRGB">
<feFlood flood-opacity="0" result="BackgroundImageFix"/>
<feBlend mode="normal" in="SourceGraphic" in2="BackgroundImageFix" result="shape"/>
<feGaussianBlur stdDeviation="1" result="effect1_foregroundBlur_1334_21348"/>
</filter>
<filter id="filter1_f_1334_21348" x="18.3281" y="29.5957" width="9.98047" height="11.8398" filterUnits="userSpaceOnUse" color-interpolation-filters="sRGB">
<feFlood flood-opacity="0" result="BackgroundImageFix"/>
<feBlend mode="normal" in="SourceGraphic" in2="BackgroundImageFix" result="shape"/>
<feGaussianBlur stdDeviation="1.5" result="effect1_foregroundBlur_1334_21348"/>
</filter>
<filter id="filter2_f_1334_21348" x="12.5859" y="31.2793" width="10.043" height="11.7852" filterUnits="userSpaceOnUse" color-interpolation-filters="sRGB">
<feFlood flood-opacity="0" result="BackgroundImageFix"/>
<feBlend mode="normal" in="SourceGraphic" in2="BackgroundImageFix" result="shape"/>
<feGaussianBlur stdDeviation="1.5" result="effect1_foregroundBlur_1334_21348"/>
</filter>
<filter id="filter3_f_1334_21348" x="24.0879" y="33.8477" width="9.19727" height="10.0312" filterUnits="userSpaceOnUse" color-interpolation-filters="sRGB">
<feFlood flood-opacity="0" result="BackgroundImageFix"/>
<feBlend mode="normal" in="SourceGraphic" in2="BackgroundImageFix" result="shape"/>
<feGaussianBlur stdDeviation="1.5" result="effect1_foregroundBlur_1334_21348"/>
</filter>
<filter id="filter4_f_1334_21348" x="11.2207" y="38.8496" width="8.57031" height="9.96094" filterUnits="userSpaceOnUse" color-interpolation-filters="sRGB">
<feFlood flood-opacity="0" result="BackgroundImageFix"/>
<feBlend mode="normal" in="SourceGraphic" in2="BackgroundImageFix" result="shape"/>
<feGaussianBlur stdDeviation="1.5" result="effect1_foregroundBlur_1334_21348"/>
</filter>
<filter id="filter5_f_1334_21348" x="14.5273" y="38.5195" width="19.0371" height="16.8711" filterUnits="userSpaceOnUse" color-interpolation-filters="sRGB">
<feFlood flood-opacity="0" result="BackgroundImageFix"/>
<feBlend mode="normal" in="SourceGraphic" in2="BackgroundImageFix" result="shape"/>
<feGaussianBlur stdDeviation="1.5" result="effect1_foregroundBlur_1334_21348"/>
</filter>
<filter id="filter6_f_1334_21348" x="33.123" y="19.332" width="13.0332" height="15.582" filterUnits="userSpaceOnUse" color-interpolation-filters="sRGB">
<feFlood flood-opacity="0" result="BackgroundImageFix"/>
<feBlend mode="normal" in="SourceGraphic" in2="BackgroundImageFix" result="shape"/>
<feGaussianBlur stdDeviation="1" result="effect1_foregroundBlur_1334_21348"/>
</filter>
<filter id="filter7_f_1334_21348" x="36.4297" y="11.041" width="9.31055" height="12.1074" filterUnits="userSpaceOnUse" color-interpolation-filters="sRGB">
<feFlood flood-opacity="0" result="BackgroundImageFix"/>
<feBlend mode="normal" in="SourceGraphic" in2="BackgroundImageFix" result="shape"/>
<feGaussianBlur stdDeviation="1.5" result="effect1_foregroundBlur_1334_21348"/>
</filter>
<filter id="filter8_f_1334_21348" x="30.4844" y="10.4062" width="9.36914" height="12.0703" filterUnits="userSpaceOnUse" color-interpolation-filters="sRGB">
<feFlood flood-opacity="0" result="BackgroundImageFix"/>
<feBlend mode="normal" in="SourceGraphic" in2="BackgroundImageFix" result="shape"/>
<feGaussianBlur stdDeviation="1.5" result="effect1_foregroundBlur_1334_21348"/>
</filter>
<filter id="filter9_f_1334_21348" x="40.25" y="17.0625" width="8.68164" height="10.3086" filterUnits="userSpaceOnUse" color-interpolation-filters="sRGB">
<feFlood flood-opacity="0" result="BackgroundImageFix"/>
<feBlend mode="normal" in="SourceGraphic" in2="BackgroundImageFix" result="shape"/>
<feGaussianBlur stdDeviation="1.5" result="effect1_foregroundBlur_1334_21348"/>
</filter>
<filter id="filter10_f_1334_21348" x="26.4473" y="16.7051" width="8.13281" height="10.1152" filterUnits="userSpaceOnUse" color-interpolation-filters="sRGB">
<feFlood flood-opacity="0" result="BackgroundImageFix"/>
<feBlend mode="normal" in="SourceGraphic" in2="BackgroundImageFix" result="shape"/>
<feGaussianBlur stdDeviation="1.5" result="effect1_foregroundBlur_1334_21348"/>
</filter>
<filter id="filter11_f_1334_21348" x="26.4375" y="18.9707" width="19.5664" height="16.2734" filterUnits="userSpaceOnUse" color-interpolation-filters="sRGB">
<feFlood flood-opacity="0" result="BackgroundImageFix"/>
<feBlend mode="normal" in="SourceGraphic" in2="BackgroundImageFix" result="shape"/>
<feGaussianBlur stdDeviation="1.5" result="effect1_foregroundBlur_1334_21348"/>
</filter>
<radialGradient id="paint0_radial_1334_21348" cx="0" cy="0" r="1" gradientUnits="userSpaceOnUse" gradientTransform="translate(24.6183 47.3807) rotate(-68.1263) scale(10.7565 16.3809)">
<stop stop-color="#232323" stop-opacity="0"/>
<stop offset="1" stop-color="#232323"/>
</radialGradient>
<radialGradient id="paint1_radial_1334_21348" cx="0" cy="0" r="1" gradientUnits="userSpaceOnUse" gradientTransform="translate(23.2503 36.0103) rotate(-77.2419) scale(5.68923 5.39738)">
<stop stop-color="#232323" stop-opacity="0"/>
<stop offset="1" stop-color="#232323"/>
</radialGradient>
<radialGradient id="paint2_radial_1334_21348" cx="0" cy="0" r="1" gradientUnits="userSpaceOnUse" gradientTransform="translate(17.5954 37.6276) rotate(-113.892) scale(5.69184 5.39491)">
<stop stop-color="#232323" stop-opacity="0"/>
<stop offset="1" stop-color="#232323"/>
</radialGradient>
<radialGradient id="paint3_radial_1334_21348" cx="0" cy="0" r="1" gradientUnits="userSpaceOnUse" gradientTransform="translate(28.6862 39.0707) rotate(-73.3701) scale(3.85076 4.65114)">
<stop stop-color="#232323" stop-opacity="0"/>
<stop offset="1" stop-color="#232323"/>
</radialGradient>
<radialGradient id="paint4_radial_1334_21348" cx="0" cy="0" r="1" gradientUnits="userSpaceOnUse" gradientTransform="translate(15.0619 44.0628) rotate(-106.63) scale(3.85075 4.65114)">
<stop stop-color="#232323" stop-opacity="0"/>
<stop offset="1" stop-color="#232323"/>
</radialGradient>
<linearGradient id="paint5_linear_1334_21348" x1="25.9518" y1="40.7051" x2="24.9298" y2="42.9643" gradientUnits="userSpaceOnUse">
<stop stop-color="#BAE490"/>
<stop offset="1" stop-color="#A7DC94" stop-opacity="0"/>
</linearGradient>
<linearGradient id="paint6_linear_1334_21348" x1="23.3181" y1="32.5957" x2="22.4543" y2="33.6099" gradientUnits="userSpaceOnUse">
<stop stop-color="#BAE490"/>
<stop offset="1" stop-color="#A7DC94" stop-opacity="0"/>
</linearGradient>
<linearGradient id="paint7_linear_1334_21348" x1="17.6078" y1="34.2793" x2="16.7557" y2="35.3053" gradientUnits="userSpaceOnUse">
<stop stop-color="#BAE490"/>
<stop offset="1" stop-color="#A7DC94" stop-opacity="0"/>
</linearGradient>
<linearGradient id="paint8_linear_1334_21348" x1="28.6865" y1="36.8477" x2="28.1107" y2="37.6343" gradientUnits="userSpaceOnUse">
<stop stop-color="#BAE490"/>
<stop offset="1" stop-color="#A7DC94" stop-opacity="0"/>
</linearGradient>
<linearGradient id="paint9_linear_1334_21348" x1="15.5057" y1="41.8496" x2="14.9159" y2="42.5089" gradientUnits="userSpaceOnUse">
<stop stop-color="#BAE490"/>
<stop offset="1" stop-color="#A7DC94" stop-opacity="0"/>
</linearGradient>
<linearGradient id="paint10_linear_1334_21348" x1="22.0788" y1="47.8526" x2="18.0868" y2="51.6627" gradientUnits="userSpaceOnUse">
<stop stop-color="#2B2B2B" stop-opacity="0"/>
<stop offset="1" stop-color="#6A8E6D"/>
</linearGradient>
<radialGradient id="paint11_radial_1334_21348" cx="0" cy="0" r="1" gradientUnits="userSpaceOnUse" gradientTransform="translate(37.2231 28.473) rotate(-45.5499) scale(10.7835 16.3431)">
<stop stop-color="#232323" stop-opacity="0"/>
<stop offset="1" stop-color="#232323"/>
</radialGradient>
<radialGradient id="paint12_radial_1334_21348" cx="0" cy="0" r="1" gradientUnits="userSpaceOnUse" gradientTransform="translate(40.342 17.4518) rotate(-54.6239) scale(5.70058 5.38414)">
<stop stop-color="#232323" stop-opacity="0"/>
<stop offset="1" stop-color="#232323"/>
</radialGradient>
<radialGradient id="paint13_radial_1334_21348" cx="0" cy="0" r="1" gradientUnits="userSpaceOnUse" gradientTransform="translate(34.496 16.7818) rotate(-91.1903) scale(5.69023 5.39333)">
<stop stop-color="#232323" stop-opacity="0"/>
<stop offset="1" stop-color="#232323"/>
</radialGradient>
<radialGradient id="paint14_radial_1334_21348" cx="0" cy="0" r="1" gradientUnits="userSpaceOnUse" gradientTransform="translate(44.1818 22.3533) rotate(-50.7687) scale(3.85945 4.64)">
<stop stop-color="#232323" stop-opacity="0"/>
<stop offset="1" stop-color="#232323"/>
</radialGradient>
<radialGradient id="paint15_radial_1334_21348" cx="0" cy="0" r="1" gradientUnits="userSpaceOnUse" gradientTransform="translate(29.6772 21.7576) rotate(-83.9287) scale(3.85176 4.64927)">
<stop stop-color="#232323" stop-opacity="0"/>
<stop offset="1" stop-color="#232323"/>
</radialGradient>
<linearGradient id="paint16_linear_1334_21348" x1="41.0314" y1="22.8146" x2="39.216" y2="24.5131" gradientUnits="userSpaceOnUse">
<stop stop-color="#BAE490"/>
<stop offset="1" stop-color="#A7DC94" stop-opacity="0"/>
</linearGradient>
<linearGradient id="paint17_linear_1334_21348" x1="41.7205" y1="14.3214" x2="40.5307" y2="14.9261" gradientUnits="userSpaceOnUse">
<stop stop-color="#BAE490"/>
<stop offset="1" stop-color="#A7DC94" stop-opacity="0"/>
</linearGradient>
<linearGradient id="paint18_linear_1334_21348" x1="35.8007" y1="13.6929" x2="34.6172" y2="14.3131" gradientUnits="userSpaceOnUse">
<stop stop-color="#BAE490"/>
<stop offset="1" stop-color="#A7DC94" stop-opacity="0"/>
</linearGradient>
<linearGradient id="paint19_linear_1334_21348" x1="45.0393" y1="20.2991" x2="44.2034" y2="20.8049" gradientUnits="userSpaceOnUse">
<stop stop-color="#BAE490"/>
<stop offset="1" stop-color="#A7DC94" stop-opacity="0"/>
</linearGradient>
<linearGradient id="paint20_linear_1334_21348" x1="30.9412" y1="19.8826" x2="30.1417" y2="20.2646" gradientUnits="userSpaceOnUse">
<stop stop-color="#BAE490"/>
<stop offset="1" stop-color="#A7DC94" stop-opacity="0"/>
</linearGradient>
<linearGradient id="paint21_linear_1334_21348" x1="34.6985" y1="27.9415" x2="29.5372" y2="29.9232" gradientUnits="userSpaceOnUse">
<stop stop-color="#2B2B2B" stop-opacity="0"/>
<stop offset="1" stop-color="#6A8E6D"/>
</linearGradient>
</defs>
</svg>
