<svg width="91" height="43" viewBox="0 0 91 43" fill="none" xmlns="http://www.w3.org/2000/svg">
<rect width="91" height="43" rx="21.5" fill="#3F3F3F"/>
<path d="M26.608 18.348H25.072V15.576H23.836V22.116H25.072V19.368H26.608V18.348ZM22.984 20.736C21.316 20.196 20.416 18.852 20.416 17.484V17.292H22.684V16.284H16.864V17.292H19.168V17.484C19.168 18.96 18.22 20.352 16.504 20.928L17.152 21.9C18.448 21.456 19.324 20.58 19.804 19.428C20.272 20.484 21.136 21.288 22.348 21.684L22.984 20.736ZM17.944 23.64H23.836V26.424H25.072V22.644H17.944V23.64ZM35.3911 21.972H36.6271V15.576H35.3911V17.748H33.1951V18.756H35.3911V21.972ZM34.0831 20.568C32.4511 20.028 31.5391 18.672 31.5391 17.172V16.164H30.2911V17.232C30.2911 18.816 29.3431 20.292 27.6031 20.868L28.2511 21.864C29.5591 21.396 30.4711 20.448 30.9511 19.248C31.4191 20.304 32.2591 21.12 33.4231 21.54L34.0831 20.568ZM33.0151 22.272C30.7591 22.272 29.3671 23.04 29.3671 24.348C29.3671 25.656 30.7591 26.424 33.0151 26.424C35.2831 26.424 36.6751 25.656 36.6751 24.348C36.6751 23.04 35.2831 22.272 33.0151 22.272ZM33.0151 25.452C31.4671 25.452 30.6031 25.068 30.6031 24.348C30.6031 23.628 31.4671 23.244 33.0151 23.244C34.5631 23.244 35.4391 23.628 35.4391 24.348C35.4391 25.068 34.5631 25.452 33.0151 25.452ZM47.1741 19.14V15.6H45.9381V23.88H47.1741V20.16H48.6621V19.14H47.1741ZM45.3021 21.012C44.4381 21.144 43.5021 21.216 42.5781 21.276V20.34C43.8021 20.148 44.6181 19.32 44.6181 18.216C44.6181 16.932 43.5141 16.056 41.9421 16.056C40.3701 16.056 39.2541 16.932 39.2541 18.216C39.2541 19.32 40.0941 20.148 41.3421 20.34V21.324C40.3701 21.36 39.4461 21.36 38.6661 21.36L38.8221 22.368C40.6341 22.368 43.1421 22.332 45.3861 21.912L45.3021 21.012ZM40.4061 18.216C40.4061 17.448 41.0301 16.992 41.9421 16.992C42.8541 16.992 43.4661 17.448 43.4661 18.216C43.4661 18.984 42.8541 19.452 41.9421 19.452C41.0301 19.452 40.4061 18.984 40.4061 18.216ZM41.4021 23.172H40.1661V26.208H47.5461V25.212H41.4021V23.172ZM57.0252 24.132V22.26H58.6212V21.264H52.1292V19.764H58.3812V16.344H50.8932V17.34H57.1572V18.78H50.9172V22.26H52.3572V24.132H49.7292V25.152H59.5452V24.132H57.0252ZM53.5812 22.26H55.8012V24.132H53.5812V22.26Z" fill="white"/>
<path d="M70.6872 15.9459C70.3305 15.5242 69.6995 15.4717 69.2779 15.8284C68.8563 16.1852 68.8037 16.8161 69.1604 17.2377L70.6872 15.9459ZM74.0777 21.5009L74.8411 22.1468C75.1565 21.774 75.1565 21.2278 74.8411 20.8549L74.0777 21.5009ZM69.1604 25.764C68.8037 26.1856 68.8563 26.8166 69.2779 27.1734C69.6995 27.5301 70.3305 27.4775 70.6872 27.0559L69.1604 25.764ZM69.1604 17.2377L73.3143 22.1468L74.8411 20.8549L70.6872 15.9459L69.1604 17.2377ZM73.3143 20.8549L69.1604 25.764L70.6872 27.0559L74.8411 22.1468L73.3143 20.8549Z" fill="white"/>
</svg>
